<?xml version="1.0" encoding="UTF-8"?>
<svg width="207px" height="50px" viewBox="0 0 207 50" version="1.1" xmlns="http://www.w3.org/2000/svg" xmlns:xlink="http://www.w3.org/1999/xlink">
    <title>rlx-logo-wht</title>
    <g id="MB" stroke="none" stroke-width="1" fill="none" fill-rule="evenodd">
        <g id="RLX-NFW-HP-DSK1" transform="translate(-854.000000, -194.000000)" fill-rule="nonzero">
            <g id="Text" transform="translate(720.000000, 194.000000)">
                <g id="rlx-logo-wht" transform="translate(134.000000, 0.000000)">
                    <path d="M151.869,40.6132237 L149.316,40.6132237 L149.316,48.2870846 L138.897,48.2870846 L138.897,40.6132237 L136.344,40.6132237 L136.344,48.2870846 C136.344,49.2463172 136.965,50 138.069,50 L150.006,50 C151.11,50 151.869,49.4518671 151.869,48.2870846 L151.869,40.6132237 L151.869,40.6132237 Z" id="Path" fill="#FFFFFF"></path>
                    <path d="M191.475,50 L194.028,50 L194.028,42.3261391 L204.447,42.3261391 L204.447,50 L207,50 L207,42.2576225 C207,41.2983899 206.379,40.5447071 205.275,40.5447071 L191.475,40.5447071 L191.475,50 Z" id="Path" fill="#FFFFFF"></path>
                    <path d="M13.386,46.2315862 C14.766,45.8890031 15.249,44.4501541 15.318,43.4224049 C15.318,42.3946557 14.766,41.4354231 14.145,40.9558068 C13.524,40.5447071 12.558,40.5447071 12.282,40.5447071 L0,40.5447071 L0,49.9314834 L2.553,49.9314834 L2.553,46.5741692 L10.902,46.5741692 L12.696,50 L15.456,50 L13.386,46.2315862 Z M12.282,44.7242206 C11.937,44.9297705 11.592,44.8612538 11.385,44.8612538 L2.553,44.8612538 L2.553,42.2576225 L11.454,42.2576225 C11.73,42.2576225 12.006,42.2576225 12.282,42.4631723 C12.489,42.6002055 12.765,43.0798219 12.765,43.4909216 C12.834,43.9705379 12.627,44.5186708 12.282,44.7242206" id="Shape" fill="#FFFFFF"></path>
                    <path d="M168.429,46.2315862 C169.809,45.8890031 170.292,44.4501541 170.361,43.4224049 C170.361,42.3946557 169.809,41.4354231 169.188,40.9558068 C168.567,40.5447071 167.601,40.5447071 167.325,40.5447071 L155.043,40.5447071 L155.043,49.9314834 L157.596,49.9314834 L157.596,46.5741692 L165.945,46.5741692 L167.739,50 L170.499,50 L168.429,46.2315862 Z M167.256,44.7242206 C166.911,44.9297705 166.566,44.8612538 166.359,44.8612538 L157.527,44.8612538 L157.527,42.2576225 L166.428,42.2576225 C166.704,42.2576225 166.98,42.2576225 167.256,42.4631723 C167.463,42.6002055 167.739,43.0798219 167.739,43.4909216 C167.808,43.9705379 167.601,44.5186708 167.256,44.7242206" id="Shape" fill="#FFFFFF"></path>
                    <path d="M67.827,46.5741692 C69.759,46.5741692 70.449,44.5871874 70.449,43.6279548 C70.449,42.6002055 69.897,41.4354231 69.207,40.9558068 C68.517,40.5447071 67.689,40.6132237 67.413,40.6132237 L55.131,40.6132237 L55.131,50 L57.684,50 L57.684,46.6426858 L67.827,46.5741692 Z M67.344,44.7242206 C66.999,44.9297705 66.654,44.8612538 66.447,44.8612538 L57.615,44.8612538 L57.615,42.2576225 L66.516,42.2576225 C66.792,42.2576225 67.068,42.2576225 67.344,42.4631723 C67.551,42.6002055 67.827,43.0798219 67.827,43.4909216 C67.965,43.9705379 67.758,44.5186708 67.344,44.7242206" id="Shape" fill="#FFFFFF"></path>
                    <path d="M33.81,43.1483385 C33.81,42.3261391 33.465,41.640973 32.913,41.1613566 C32.223,40.6132237 31.878,40.5447071 31.05,40.5447071 L18.423,40.5447071 L18.423,49.9314834 L20.976,49.9314834 L20.976,46.5741692 L31.257,46.5741692 L31.257,49.9314834 L33.81,49.9314834 L33.81,43.1483385 L33.81,43.1483385 Z M31.257,44.8612538 L20.976,44.8612538 L20.976,42.3261391 L30.084,42.3261391 C30.222,42.3261391 30.36,42.3261391 30.567,42.3946557 C30.843,42.5316889 31.257,42.9427886 31.257,43.4224049 C31.257,43.8335046 31.257,44.8612538 31.257,44.8612538" id="Shape" fill="#FFFFFF"></path>
                    <path d="M133.584,43.1483385 C133.584,42.4631723 133.239,41.640973 132.687,41.1613566 C131.997,40.6132237 131.721,40.5447071 130.824,40.5447071 L118.197,40.5447071 L118.197,49.9314834 L120.75,49.9314834 L120.75,46.5741692 L131.031,46.5741692 L131.031,49.9314834 L133.584,49.9314834 L133.584,43.1483385 L133.584,43.1483385 Z M130.962,44.8612538 L120.681,44.8612538 L120.681,42.3261391 L129.789,42.3261391 C129.927,42.3261391 130.065,42.3261391 130.272,42.3946557 C130.548,42.5316889 130.962,42.9427886 130.962,43.4224049 C131.031,43.8335046 130.962,44.8612538 130.962,44.8612538" id="Shape" fill="#FFFFFF"></path>
                    <path d="M39.399,48.2870846 L39.399,40.6132237 L36.846,40.6132237 L36.846,48.2870846 C36.846,49.3833504 37.467,49.9314834 38.433,49.9314834 L52.371,49.9314834 L52.371,48.218568 L39.399,48.2870846 L39.399,48.2870846 Z" id="Path" fill="#FFFFFF"></path>
                    <path d="M102.327,48.2870846 L102.327,40.6132237 L99.774,40.6132237 L99.774,48.2870846 C99.774,49.3833504 100.395,49.9314834 101.361,49.9314834 L115.23,49.9314834 L115.23,48.218568 L102.327,48.2870846 L102.327,48.2870846 Z" id="Path" fill="#FFFFFF"></path>
                    <path d="M188.577,44.3816375 L175.605,44.3816375 L175.605,42.2576225 L188.577,42.2576225 L188.577,40.5447071 L175.053,40.5447071 C173.88,40.5447071 173.052,41.0243234 173.052,42.3261391 L173.052,48.3556013 C173.052,49.2463172 173.811,49.9314834 174.57,49.9314834 L188.508,49.9314834 L188.508,48.218568 L175.536,48.218568 L175.536,46.0945529 L188.508,46.0945529 L188.577,44.3816375 Z" id="Path" fill="#FFFFFF"></path>
                    <polygon id="Path" fill="#FFFFFF" points="85.974 40.5447071 85.974 44.8612538 75.693 44.8612538 75.693 40.5447071 73.14 40.5447071 73.14 50 75.693 50 75.693 46.5741692 85.974 46.5741692 85.974 50 88.665 50 88.665 40.5447071"></polygon>
                    <path d="M203.378253,0.688994424 L177.331993,16.1540038 L203.755998,31.8676825 L190.129554,31.8676825 L170.461188,20.2191731 L150.909203,31.8676825 L137.487917,31.8676825 L163.584251,16.151588 L137.652501,0.689049991 L151.713786,0.786111218 L170.462207,11.9753059 L189.210613,0.786119961 L203.378253,0.688994424 Z" id="Path" stroke="#FFFFFF" stroke-width="1.344"></path>
                    <path d="M0,32.3072562 L11.7774733,32.3072562 L11.7774733,21.4994331 L50.2583265,21.4994331 L58.4209317,32.5396825 L71.1312741,32.5396825 L61.9191911,20.2210884 C68.0994493,18.8265306 71.1312741,14.8752834 71.1312741,10.8078231 C71.1312741,7.20521541 69.0323185,4.41609977 66.3503196,2.78911564 C61.8025824,0 55.6223242,0 50.7247611,0 L11.8940819,0 L4.31451991,0 L0,0 L0,32.3072562 Z M57.021628,7.67006802 C57.7212798,8.01870748 59.2371922,8.7159864 59.2371922,10.5753968 C59.2371922,12.202381 58.5375404,13.015873 56.2053674,13.713152 C54.5728464,14.2942176 52.707108,14.2942176 48.3925881,14.2942176 L11.8940819,14.2942176 L11.8940819,6.97278911 L48.9756314,6.97278911 C51.8908475,6.97278911 55.1558896,6.85657596 57.021628,7.67006802" id="Shape" fill="#FFFFFF"></path>
                    <path d="M147.857143,25.218254 L88.0314503,25.218254 L87.9150579,0 L75.9266409,0 L76.0430333,26.7290249 C76.0430333,29.9829932 78.0217041,32.5396825 81.2806912,32.5396825 L135.868726,32.5396825 L147.857143,25.218254 Z" id="Path" fill="#FFFFFF"></path>
                </g>
            </g>
        </g>
    </g>
</svg>