<?xml version="1.0" encoding="utf-8"?>
<!-- Generator: Adobe Illustrator 26.0.2, SVG Export Plug-In . SVG Version: 6.00 Build 0)  -->
<svg version="1.1" id="Layer_1" xmlns="http://www.w3.org/2000/svg" xmlns:xlink="http://www.w3.org/1999/xlink" x="0px" y="0px"
	 viewBox="0 0 332 50" style="enable-background:new 0 0 332 50;" xml:space="preserve">
<style type="text/css">
	.st0{fill-rule:evenodd;clip-rule:evenodd;fill:#FFFFFF;}
</style>
<g id="Ralphs-Bar-Chengdu-Logo" transform="translate(38.000000, 262.000000)">
	<path id="Fill-1" class="st0" d="M-26.9-260.1h6.7c3.9,0,5.3,1.2,5.3,4.3c0,2.3-0.5,4.3-7.2,4.3h-4.9V-260.1z M-5.6-238.6
		c-3.1,0-4.6-2.9-7.4-8.2c-0.3-0.7-0.7-1.4-1.1-2.1l-0.2-0.4l-0.5,0c-1.1,0-2.2-0.1-3.2-0.5c7.9-0.5,9.6-3.4,9.6-5.8
		c0-5.7-6.6-6.4-11.6-6.4H-38v1.9h3.1c2,0,2.8,0.8,2.8,2.9v15.9c0,1.5-0.4,2.8-3.1,2.8H-38v1.9h17.7v-1.9h-3.3
		c-1.5,0-3.3-0.5-3.3-2.7v-8.3h3.4c2.2,0,2.6,0.1,4.1,2.8c1,1.7,1.7,3.2,2.5,4.7c0.8,1.5,1.6,3.1,2.7,5l0.2,0.4h11.6v-1.9H-5.6z"/>
	<path id="Fill-3" class="st0" d="M11.5-245.9l4.6-9.4l4.3,9.4H11.5z M32.9-238.5c-2.4,0-3.9-1.9-4.7-3.6L18.5-262h-1l-8.1,16.1
		c-2.5,4.9-5.1,7.3-7.8,7.3h-2v1.9h16.8v-1.9h-2.8c-1.1,0-3.6-0.3-3.6-2.7c0-0.8,0.3-1.8,0.8-2.8h10.7c0.8,1.6,1.6,3.6,1.6,4.1
		c0,0.3,0,1.4-2.9,1.4h-2.3v1.9h17.5v-1.9H32.9z"/>
	<path id="Fill-5" class="st0" d="M65.2-250.1l0,0.7c0,3-0.9,5.5-2.8,7.4c-2.2,2.3-5.5,3.4-7.7,3.4h-6v-18.8c0-2.3,1-2.8,2.5-2.8
		h4.3v-1.9H37.9v1.9h3.1c2,0,2.7,0.8,2.7,2.9v15.9c0,1.5-0.4,2.8-3.1,2.8h-2.7v1.9h28.8l0.4-13.4H65.2z"/>
	<path id="Fill-7" class="st0" d="M81.4-260.1h6.8c3.4,0,4.7,1.3,4.7,4.7c0,3.3-1.3,4.9-4,4.9h-7.5V-260.1z M88.4-262H70.3v1.9h3.1
		c2,0,2.8,0.8,2.8,2.9v15.9c0,1.5-0.4,2.8-3.1,2.8h-2.8v1.9h17.2v-1.9h-2.7c-1.5,0-3.3-0.5-3.3-2.7v-7.5h7.8
		c6.8,0,10.2-2.1,10.2-6.3C99.5-259.4,95.3-262,88.4-262L88.4-262z"/>
	<path id="Fill-9" class="st0" d="M143.3-262c-1.5,0-2.7,1.2-2.7,2.6c0,1,0.5,1.9,1.4,2.3c-0.5,0.2-1,0.4-1.5,0.4l-0.8,0.1l0.5,1.6
		l0.6,0c1.8-0.2,5.4-1.6,5.4-4.3C146.2-260.7,144.8-262,143.3-262"/>
	<path id="Fill-11" class="st0" d="M166-251.8c-2.5-0.7-4.2-1-6.8-1.6c-3.2-0.7-5.2-1.6-5.2-3.7c0-2.4,3.6-3,5.7-3
		c5.3,0,11.3,3.1,11.9,8.9l0.1,0.7h1.7v-11.1h-1.3l-3.4,2.3c-2.2-1.6-5.9-2.7-9.1-2.7c-4.8,0-10,2.7-10,7c0,3.1,2.4,5.6,6.5,6.7
		c3.2,0.9,5.1,1.3,8.1,2c4.4,1,5.8,2.1,5.8,4.7c0,2.8-3.2,3.8-6.1,3.8c-5.6,0-12.1-2.5-13.3-9.6l-0.1-0.6h-1.5v11.7h1.3l3.5-2.6
		c3.2,2.1,6.2,3,10.5,3c4.4,0,11.3-2.1,11.3-7.7C175.3-248.7,170.8-250.5,166-251.8"/>
	<path id="Fill-13" class="st0" d="M199.1-249h7.7c1.8,0,4.8,0.7,4.8,5c0,4.7-3.6,5.4-5.7,5.4h-6.8V-249z M206.8-250.8h-7.7v-9.3h7
		c3.1,0,4.5,1.3,4.5,4.5C210.6-252.6,209.2-250.8,206.8-250.8L206.8-250.8z M211.7-250.1c2.8-1,4.9-2.6,4.9-5.6c0-4.3-5-6.2-9.9-6.2
		h-18.4v1.9h3c2,0,2.7,0.8,2.7,2.9v15.9c0,1.5-0.4,2.8-3,2.8h-2.7v1.9h17.8c8.9,0,12-3.9,12-7.2C218.1-247,215.9-249.2,211.7-250.1
		L211.7-250.1z"/>
	<path id="Fill-15" class="st0" d="M232.6-245.9l4.6-9.4l4.3,9.4H232.6z M254-238.5c-2.4,0-3.9-1.9-4.7-3.6l-9.7-19.9h-1l-8.1,16.1
		c-2.5,4.9-5.1,7.3-7.8,7.3h-2v1.9h16.8v-1.9h-2.8c-1.1,0-3.6-0.3-3.6-2.7c0-0.8,0.3-1.8,0.8-2.8h10.7c0.8,1.6,1.6,3.6,1.6,4.1
		c0,0.3,0,1.4-2.9,1.4h-2.3v1.9h17.5v-1.9H254z"/>
	<path id="Fill-17" class="st0" d="M269.5-260.1h6.7c3.9,0,5.3,1.2,5.3,4.3c0,2.3-0.5,4.3-7.2,4.3h-4.9V-260.1z M290.8-238.6
		c-3.1,0-4.6-2.9-7.4-8.2c-0.3-0.7-0.7-1.4-1.1-2.1l-0.2-0.4l-0.5,0c-1.1,0-2.2-0.1-3.2-0.5c7.9-0.5,9.6-3.4,9.6-5.8
		c0-5.7-6.6-6.4-11.6-6.4h-18.1v1.9h3.1c2,0,2.8,0.8,2.8,2.9v15.9c0,1.5-0.4,2.8-3.1,2.8h-2.8v1.9H276v-1.9h-3.3
		c-1.5,0-3.3-0.5-3.3-2.7v-8.3h3.4c2.2,0,2.6,0.1,4.1,2.8c1,1.7,1.7,3.2,2.5,4.7c0.8,1.5,1.6,3.1,2.7,5l0.2,0.4H294v-1.9H290.8z"/>
	<path id="Fill-19" class="st0" d="M119.5-260h2.5c3.6,0,3.7,0.9,3.7,2.8v6.6h-13.1v-6.7c0-1.9,0.9-2.7,2.9-2.7h3.5v-2h-17.6v2h3.2
		c1.9,0,2.6,0.7,2.6,2.8v15.8c0,1.6-0.5,2.7-3,2.7h-2.8v2H119v-2h-3c-2.1,0-3.4-1-3.4-2.7v-7.2h13.1v7.2c0,1.2-0.3,2.7-3.3,2.7h-2.8
		v2h17.6v-2h-2.7c-2.8,0-3.4-1-3.4-2.7v-16c0-1.7,0.5-2.6,3.1-2.6h2.9v-2h-17.6V-260z"/>
	<path id="Fill-21" class="st0" d="M47.5-218.5h-2.1v-3.7h2.9c1.7,0,2.3,0.5,2.3,1.8C50.5-219.3,50.3-218.5,47.5-218.5 M51.4-216.4
		c-0.2-0.3-0.3-0.6-0.5-0.9l-0.1-0.2l-0.2,0c-0.4,0-0.8,0-1.2-0.2c3.3-0.3,4-1.5,4-2.5c0-2.5-2.9-2.8-5.1-2.8h-7.9v0.9h1.4
		c0.8,0,1.2,0.3,1.2,1.2v6.9c0,0.7-0.2,1.2-1.3,1.2h-1.2v0.9h7.8v-0.9h-1.5c-0.6,0-1.4-0.2-1.4-1.2v-3.6h1.4c1,0,1.1,0,1.8,1.2
		c0.4,0.7,0.8,1.4,1.1,2.1c0.3,0.7,0.7,1.4,1.2,2.2l0.1,0.2H56v-0.9h-1.4C53.3-212.9,52.7-214,51.4-216.4"/>
	<path id="Fill-23" class="st0" d="M62.6-216.1l2-3.9l1.8,3.9H62.6z M69.8-214.4l-4.2-8.6h-0.5l-3.5,7c-1.1,2.1-2.2,3.2-3.4,3.2
		h-0.9v0.9h7.3v-0.9h-1.3c-0.5,0-1.5-0.1-1.5-1.1c0-0.3,0.1-0.7,0.3-1.2h4.6c0.3,0.7,0.7,1.5,0.7,1.7c0,0.1,0,0.6-1.2,0.6h-1v0.9
		h7.7v-0.9h-1.1C70.8-212.9,70.1-213.7,69.8-214.4L69.8-214.4z"/>
	<path id="Fill-25" class="st0" d="M85.7-217.5c0,1.3-0.4,2.4-1.1,3.2c-0.9,1-2.3,1.5-3.2,1.5h-2.5v-8.1c0-1,0.4-1.2,1-1.2h1.8v-0.9
		h-7.5v0.9h1.3c0.8,0,1.1,0.3,1.1,1.2v6.9c0,0.7-0.2,1.2-1.3,1.2h-1.2v0.9h12.1l0.2-5.9h-0.8L85.7-217.5z"/>
	<path id="Fill-27" class="st0" d="M96.3-218.1h-3.1v-4.1H96c1.4,0,1.9,0.5,1.9,2C97.9-218.8,97.4-218.1,96.3-218.1 M96.1-223h-7.6
		v0.9h1.3c0.8,0,1.1,0.3,1.1,1.2v6.9c0,0.7-0.2,1.2-1.3,1.2h-1.2v0.9h7.3v-0.9h-1.2c-0.6,0-1.4-0.2-1.4-1.2v-3.2h3.3
		c2.9,0,4.3-0.9,4.3-2.8C100.8-221.9,99-223,96.1-223"/>
	<path id="Fill-29" class="st0" d="M109.3-222.2h1.1c1.6,0,1.6,0.4,1.6,1.2v2.9h-5.7v-2.9c0-0.8,0.4-1.2,1.2-1.2h1.5v-0.9h-7.7v0.9
		h1.4c0.8,0,1.2,0.3,1.2,1.2v6.9c0,0.7-0.2,1.2-1.3,1.2h-1.2v0.9h7.7v-0.9h-1.3c-0.9,0-1.5-0.5-1.5-1.2v-3.1h5.7v3.1
		c0,0.5-0.2,1.2-1.5,1.2h-1.2v0.9h7.7v-0.9h-1.2c-1.2,0-1.5-0.4-1.5-1.2v-7c0-0.7,0.2-1.1,1.4-1.1h1.3v-0.9h-7.7V-222.2z"/>
	<path id="Fill-31" class="st0" d="M135.6-217.5c0,1.3-0.4,2.4-1.1,3.2c-0.9,1-2.3,1.5-3.2,1.5h-2.5v-8.1c0-1,0.4-1.2,1-1.2h1.8
		v-0.9h-7.5v0.9h1.3c0.8,0,1.1,0.3,1.1,1.2v6.9c0,0.7-0.2,1.2-1.3,1.2h-1.2v0.9h12.1l0.2-5.9h-0.8L135.6-217.5z"/>
	<path id="Fill-33" class="st0" d="M147.4-216.1h-3.7l2-3.9 M150.9-214.4l-4.2-8.6h-0.5l-3.5,7c-1.1,2.1-2.2,3.2-3.4,3.2h-0.9v0.9
		h7.3v-0.9h-1.3c-0.5,0-1.5-0.1-1.5-1.1c0-0.3,0.1-0.7,0.3-1.2h4.6c0.3,0.7,0.7,1.5,0.7,1.7c0,0.1,0,0.6-1.2,0.6h-1v0.9h7.7v-0.9
		h-1.1C151.8-212.9,151.2-213.7,150.9-214.4"/>
	<path id="Fill-35" class="st0" d="M161.3-222.2h1c1.3,0,1.9,0.7,1.9,2.3v3.6c0,2.3-1.3,3.4-3.9,3.4c-2.3,0-3.3-1-3.3-3.2v-4.8
		c0-0.7,0.5-1.2,1.3-1.2h1.2v-0.9H152v0.9h1.3c0.9,0,1.3,0.3,1.3,1.2v5.8c0,1.4,0.9,3.2,5.1,3.2c3.7,0,5.3-1.4,5.3-4.5v-3.4
		c0-1.1,0.4-2.3,1.7-2.3h0.8v-0.9h-6.3V-222.2z"/>
	<path id="Fill-37" class="st0" d="M175.9-218.5h-2.1v-3.7h2.9c1.7,0,2.3,0.5,2.3,1.8C178.9-219.3,178.7-218.5,175.9-218.5
		 M179.8-216.4c-0.2-0.3-0.3-0.6-0.5-0.9l-0.1-0.2l-0.2,0c-0.4,0-0.8,0-1.2-0.2c3.3-0.3,4-1.5,4-2.5c0-2.5-2.9-2.8-5.1-2.8h-7.9v0.9
		h1.4c0.8,0,1.2,0.3,1.2,1.2v6.9c0,0.7-0.2,1.2-1.3,1.2h-1.2v0.9h7.8v-0.9h-1.5c-0.6,0-1.4-0.2-1.4-1.2v-3.6h1.4c1,0,1.1,0,1.8,1.2
		c0.4,0.7,0.8,1.4,1.1,2c0.3,0.7,0.7,1.4,1.2,2.2l0.1,0.2h5.1v-0.9H183C181.7-212.9,181.1-214,179.8-216.4"/>
	<path id="Fill-39" class="st0" d="M185.1-222.2h1.3c0.8,0,1.1,0.3,1.1,1.2v6.9c0,0.7-0.2,1.2-1.3,1.2h-1.2v0.9h12.2v-5.2h-0.8
		l0,0.4c0,0.9-0.3,1.8-1,2.5c-0.9,1-2.3,1.4-3.1,1.4h-2.5v-4.3h0.6c1.3,0,2.4,1.2,2.4,2.5c0,0.1,0,0.1,0,0.2c0,0.1,0,0.2,0,0.3
		l0,0.4h0.9v-7.4h-0.9v0.9c0,1.3-1.3,2.1-2.4,2.1h-0.6v-4.1h2.9c2.2,0,3.4,1.2,3.8,3.7l0,0.3h0.8v-4.8h-12.3V-222.2z"/>
	<path id="Fill-41" class="st0" d="M209.6-223v0.9h1.6c0.4,0,1.3,0,1.3,2.3v4l-7.5-7.3H200v0.9h1.4c0.9,0,1.3,0.4,1.3,1.2v5.7
		c0,0.9-0.4,2.3-1.5,2.3H200v0.9h6.5v-0.9h-1.6c-0.4,0-1.3,0-1.3-2.3v-5.3l9,8.6h0.7v-7.8c0-0.9,0.4-2.3,1.5-2.3h1.3v-0.9H209.6z"/>
</g>
</svg>
