<?xml version="1.0" encoding="UTF-8"?>
<svg width="244px" height="39px" viewBox="0 0 244 39" version="1.1" xmlns="http://www.w3.org/2000/svg" xmlns:xlink="http://www.w3.org/1999/xlink">
    <title>2023_polo_bar_chicago_rl_logo_white</title>
    <g id="0125-WORL-LP-NAEU-DEV" stroke="none" stroke-width="1" fill="none" fill-rule="evenodd">
        <g id="0125-WORL-LP-DSK" transform="translate(-920.000000, -6278.000000)" fill="#FFFFFF" fill-rule="nonzero">
            <g id="8" transform="translate(0.000000, 5719.000000)">
                <g id="Copy" transform="translate(55.500000, 301.000000)">
                    <g id="2023_polo_bar_chicago_rl_logo_white" transform="translate(864.500000, 258.000000)">
                        <path d="M22.4335953,36.4673507 C22.4335953,36.9843655 22.7775725,37.3938195 23.4720965,37.6984243 C24.1638067,38.003933 25.4782404,38.1557835 27.4191535,38.1557835 L27.4191535,39 L0,39 L0,38.1557835 C1.93762872,38.1557835 3.25206231,38.003933 3.9465864,37.6984243 C4.63782555,37.3938194 4.98508754,36.9843654 4.98508754,36.4673507 L4.98508754,4.53174548 C4.98508754,4.01653847 4.63782555,3.60618056 3.9465864,3.30067185 C3.25206241,2.99606696 1.93762872,2.84331265 0,2.84331265 L0,2 L69.5861468,2 C83.2959575,2 93.1267576,2.87856362 99.0823013,4.63749849 C105.035029,6.39643336 108.014444,8.94083307 108.014444,12.2697936 C108.014444,15.2236472 105.729553,17.5691951 101.159773,19.3037255 C96.5899924,21.0391597 89.1121272,22.1418835 78.7257079,22.6100892 L104.898471,36.3272505 C106.420793,37.0774643 107.631517,37.5700745 108.533929,37.8041773 C109.433056,38.039184 110.922528,38.1557835 113,38.1557835 L113,39 L83.0880673,39 L83.0880673,38.1557835 C84.8863214,38.1557835 86.0285319,38.1096861 86.5156372,38.0147795 C86.9989884,37.9216807 87.2425411,37.7580798 87.2425411,37.5230731 C87.2425411,37.241065 86.8952791,36.9843654 86.20404,36.7493587 L60.6544716,22.9616954 L22.4335935,22.9616954 L22.4335935,36.4673507 L22.4335953,36.4673507 Z M67.9244488,18.1784048 C76.3694858,18.1784048 82.3254987,17.6396971 85.7882641,16.5604739 C89.248214,15.4821546 90.9812391,14.0052278 90.9812391,12.1287896 C90.9812391,11.1914743 90.6339771,10.3942592 89.942738,9.73714424 C89.248214,9.08093315 88.0018249,8.53047517 86.20404,8.08396238 C84.402501,7.63925732 81.9453876,7.31024796 78.829884,7.09964575 C75.7139113,6.88813973 71.7316606,6.78329053 66.8859476,6.78329053 L22.4335953,6.78329053 L22.4335953,18.1784048 L67.9244488,18.1784048 L67.9244488,18.1784048 Z" id="Shape"></path>
                        <path d="M169.422084,0.857900771 C167.480996,0.857900771 166.165975,1.02617065 165.475143,1.35903251 C164.779618,1.69373336 164.43608,2.194865 164.43608,2.86242761 L164.43608,32.9174565 L234.236382,32.9174565 C239.082516,32.9174565 241.506998,32.20116 241.506998,30.770406 L244,30.770406 L244,39 L241.506998,39 C241.506998,38.0924459 239.082516,37.6400481 234.236382,37.6400481 L142,37.6400481 L142,36.7812279 C143.938272,36.7812279 145.252354,36.6267506 145.94694,36.315957 C146.638711,36.0060829 146.986004,35.5895459 146.986004,35.0635876 L146.986004,2.57554112 C146.986004,2.05142175 146.638711,1.63396523 145.94694,1.32317165 C145.252354,1.01329751 143.938271,0.857900771 142,0.857900771 L142,0 L169.422084,0 L169.422084,0.857900771 L169.422084,0.857900771 Z" id="Path"></path>
                    </g>
                </g>
            </g>
        </g>
    </g>
</svg>