<svg enable-background="new 0 0 426.4 72.6" height="72.6" viewBox="0 0 426.4 72.6" width="426.4" xmlns="http://www.w3.org/2000/svg"><path d="m0 32.2v-1h2.8v-29.8h-2.8v-1h13.4c7.7 0 10.4 3.7 10.4 7.7 0 4.5-3.5 7.5-10.1 8l10.9 15.2h2.3v1h-7.3l-11.7-16.3h-.2v15.2h3.5v1zm7.7-16.9h2.7c5.5 0 8.1-2.7 8.1-7.2 0-3.2-1.6-6.7-6.7-6.7h-4.1z"/><path d="m37.5 32.2v-1h2.7l10.7-31.2h2.9l10.1 31.2h1.8v1h-10.1v-1h3.4l-3.8-11.8h-9.7l-4 11.8h4.4v1zm8.3-13.8h9.1l-4.4-13.5h-.1z"/><path d="m86 31.2h6.8c3 0 3.9-.6 6.7-11.8h1v12.8h-22.3v-1h2.8v-29.8h-2.8v-1h12.3v1h-4.5z"/><path d="m114.1 32.2v-1h2.8v-29.8h-2.8v-1h13.2c7.3 0 11.3 3.5 11.3 8.3s-3.7 8.1-11.2 8.1h-5.5v14.4h4.2v1zm7.7-16.5h4.3c5 0 7.2-1.5 7.2-7 0-4.3-2-7.3-6.8-7.3h-4.7z"/><path d="m157.4 16.2v15h3v1h-10.8v-1h2.8v-29.8h-2.8v-1h10.8v1h-3v13.8h12.2v-13.8h-3v-1h10.8v1h-2.8v29.8h2.8v1h-10.8v-1h3v-15z"/><path d="m221.4 31.2h6.8c3 0 3.9-.6 6.7-11.8h1v12.8h-22.2v-1h2.8v-29.8h-2.8v-1h12.3v1h-4.6z"/><path d="m247.8 32.2v-1h2.7l10.7-31.2h2.9l10.1 31.2h1.8v1h-10.2v-1h3.4l-3.8-11.8h-9.7l-4 11.8h4.4v1zm8.3-13.8h9.1l-4.4-13.5h-.1z"/><path d="m296.7.4v1h-3.3v23.1c0 5.6 3.2 7.4 6.1 7.4 4.4 0 7.5-2.9 7.5-7.7v-22.8h-4.1v-1h8.2v1h-2.8v22.9c0 5.3-3.5 8.7-8.9 8.7-7.5 0-10.9-3.1-10.9-9.5v-22.1h-2.8v-1z"/><path d="m323.8 32.2v-1h2.8v-29.8h-2.8v-1h13.4c7.7 0 10.4 3.7 10.4 7.7 0 4.5-3.5 7.5-10.1 8l10.9 15.2h2.3v1h-7.3l-11.7-16.3h-.2v15.2h3.5v1zm7.7-16.9h2.7c5.5 0 8.1-2.7 8.1-7.2 0-3.2-1.6-6.7-6.7-6.7h-4.2v13.9z"/><path d="m362.6 32.2v-1h2.8v-29.8h-2.8v-1h23.4v10.2h-1c-2.5-8.6-3.2-9.2-5.5-9.2h-9.1v13.8h3.6c2.3 0 3.4-1.4 4.3-6.3h1v13.7h-1c-.9-4.9-2-6.3-4.3-6.3h-3.6v15h8.1c3.3 0 4.2-1.2 6.9-10.8h1v11.8h-23.8z"/><path d="m404.1 2.3-.1 28.9h3.9v1h-8.2v-1h3v-29.8h-3v-1h8.8l13.5 23h.1v-22h-3.7v-1h8v1h-3v30.8h-1.6z"/><path d="m76.5 66.6c-1 .9-1.6 1-4 1h-5v4.7h-2.2v-13h7.9c1.6 0 2 .1 2.7.6 1.2.7 1.8 2.2 1.8 3.6.1 1.2-.3 2.3-1.2 3.1zm-3.8-5.1h-5.3v3.8h5c2.3 0 3.1-.3 3.1-1.9.1-1.5-.8-1.9-2.8-1.9z"/><path d="m104.5 70.3c-1.1 1.7-3.5 2.3-5.5 2.3-1.8 0-3.6-.4-4.9-1.6s-1.3-2.7-1.3-4.4v-7.3h2.2v7.3c0 1.8.2 2.2.6 2.6.8.9 2.5 1.1 3.6 1.1 1.2 0 2.8-.3 3.5-1.3.3-.4.4-.8.4-2.4v-7.3h2.2v7.3c0 2.1-.2 2.7-.8 3.7z"/><path d="m132.7 72.3-3.7-5.3h-4.5v5.3h-2.2v-13h8c2.6 0 4.9.8 4.9 3.8 0 2.2-1.3 3.5-3.5 3.8l3.8 5.3h-2.8zm-2.4-10.8h-5.9v3.2h6c1.2 0 2.5-.2 2.5-1.7.1-1.1-.5-1.5-2.6-1.5z"/><path d="m161.3 66.6c-1 .9-1.6 1-4 1h-5v4.7h-2.2v-13h7.9c1.6 0 2 .1 2.7.6 1.2.7 1.8 2.2 1.8 3.6.1 1.2-.3 2.3-1.2 3.1zm-3.8-5.1h-5.3v3.8h5c2.3 0 3.1-.3 3.1-1.9.1-1.5-.8-1.9-2.8-1.9z"/><path d="m177.5 72.3v-13h2.2v10.7h7.9v2.2h-10.1z"/><path d="m201.8 72.3v-13h11.4v2.2h-9.2v3h5v2.2h-5v3.4h9.4v2.2z"/><path d="m247.5 72.3v-13h2.2v10.7h7.9v2.2h-10.1z"/><path d="m281.9 72.3-1.6-3h-7.9l-1.6 3h-2.5l7-12.9h2.2l7 12.9zm-5.5-10.5-2.8 5.3h5.6z"/><path d="m310.4 71.2c-1 1-2.3 1-3.7 1h-8.2v-12.9h8.2c2.4 0 4.3.9 4.3 3.5 0 1-.2 1.5-.8 2.3 1 .9 1.4 1.8 1.4 3.1.1 1.2-.4 2.3-1.2 3zm-2-9.3c-.3-.3-.5-.4-1.6-.4h-5.9v2.8h5.9c1 0 2.1-.1 2.1-1.4-.1-.4-.3-.8-.5-1zm.4 5c-.4-.3-.6-.4-2-.4h-6v3.6h5.9c1.4 0 1.8-.1 2.2-.5.3-.3.5-.8.5-1.3 0-.6-.2-1.1-.6-1.4z"/><path d="m326.9 72.3v-13h11.4v2.2h-9.2v3h5v2.2h-5v3.4h9.4v2.2z"/><path d="m353.6 72.3v-13h2.2v10.7h7.9v2.2h-10.1z"/></svg>