<?xml version="1.0" encoding="UTF-8"?>
<svg width="31px" height="31px" viewBox="0 0 31 31" version="1.1" xmlns="http://www.w3.org/2000/svg" xmlns:xlink="http://www.w3.org/1999/xlink">
    <title>Group</title>
    <defs>
        <linearGradient x1="100%" y1="82.9269935%" x2="-8.32435345%" y2="0%" id="linearGradient-1">
            <stop stop-color="#3023AE" offset="0%"></stop>
            <stop stop-color="#C86DD7" offset="22.0254434%"></stop>
            <stop stop-color="#BA3939" offset="37.4815245%"></stop>
            <stop stop-color="#FFC124" offset="53.8772171%"></stop>
            <stop stop-color="#5FBA39" offset="71.4078336%"></stop>
            <stop stop-color="#39BA9F" offset="88.745777%"></stop>
            <stop stop-color="#394ABA" offset="100%"></stop>
        </linearGradient>
    </defs>
    <g id="Anatomy-LP" stroke="none" stroke-width="1" fill="none" fill-rule="evenodd">
        <g id="PoloShirt-Anatomy-LP-2.2-MOB-595" transform="translate(-20.000000, -488.000000)">
            <g id="Text" transform="translate(20.500000, 286.000000)">
                <g id="Group-3" transform="translate(0.500000, 202.000000)">
                    <g id="Group" transform="translate(0.000000, 1.000000)">
                        <circle id="Oval" stroke="url(#linearGradient-1)" stroke-width="2" cx="14.5" cy="14.5" r="14.5"></circle>
                        <g id="Logo/Navy" transform="translate(11.000000, 5.000000)" fill="#FFFFFF">
                            <path d="M3.76846585,14.7509767 C3.61289112,14.7897744 3.52950804,14.6917554 3.73212823,14.6716146 C3.83775601,14.6496363 3.7771703,14.4241998 3.87457721,14.4311255 C3.88010384,14.5176252 3.88120917,14.7327439 3.76846585,14.7509767 M3.15756563,9.7376661 C3.01097168,9.69929244 3.35949499,9.3699715 3.07874202,9.04870692 C3.02582451,8.78687557 3.29179373,9.15626624 3.27203602,9.25958539 C3.25897935,9.38820429 3.28032597,9.68098898 3.15756563,9.7376661 M2.3962719,10.8817383 C2.23295989,10.8297254 2.57692373,10.6224511 2.60538589,10.5449264 C2.6332263,10.3864142 2.76531284,10.3358854 2.88088855,10.2566646 C2.98416751,10.1074808 3.14001857,10.0385071 3.28785601,9.94585912 C3.33870103,9.90359863 3.34070444,9.82692197 3.38132519,9.77483838 C3.48322249,9.68798528 3.53427477,9.5567516 3.58325455,9.44572945 C3.69330364,9.34226897 3.59769288,9.66713771 3.5620461,9.70473401 C3.38809532,9.85540187 3.3635018,10.0244439 3.19038001,10.1021099 C2.92772677,10.196242 2.85339355,10.4142581 2.62286387,10.5709329 C2.52939468,10.6468322 2.52303905,10.8638589 2.3962719,10.8817383 M2.21726946,11.3677341 C2.17136619,11.3461091 2.14740691,11.2312002 2.21398533,11.2153701 C2.30444837,11.1968547 2.27854848,11.3531761 2.21726946,11.3677341 M2.25202678,11.1228635 C2.18391102,11.1081642 2.21955781,11.051063 2.2406281,11.0094385 C2.32207685,10.8891587 2.36553001,11.1409549 2.25202678,11.1228635 M3.33932278,11.2976297 C3.1985318,11.2637789 3.48736747,11.0142441 3.53765983,10.9307125 C3.6247043,10.79644 3.53911057,10.5694488 3.66014384,10.4536211 C3.72218029,10.4598401 3.65765685,10.5440077 3.67188793,10.5791306 C3.70691297,10.7067601 3.66214724,10.8442834 3.60619008,10.9581323 C3.61572352,11.0478122 3.53627817,11.1058321 3.46519185,11.150778 C3.40819845,11.1823674 3.40315539,11.2767115 3.33932278,11.2976297 M3.18113837,11.4370574 C3.13205991,11.4209593 3.13244184,11.3904478 3.16032299,11.3517001 C3.23938324,11.2913323 3.28464237,11.4525004 3.18113837,11.4370574 M2.27592947,11.6754301 C2.20270158,11.667303 2.14916232,11.5063174 2.25458284,11.5265996 C2.31751738,11.5349386 2.36131595,11.6711192 2.27592947,11.6754301 M2.96489338,11.9447524 C2.82209899,11.9034813 3.00212907,11.4380504 3.11556322,11.5872342 C3.1322122,11.6558546 3.04454598,11.695783 3.02996948,11.7600217 C3.0141495,11.813236 3.0307294,11.9366961 2.96489338,11.9447524 M3.24226128,12.9977314 C3.06043505,12.842046 2.89194182,12.665089 2.78424156,12.4449527 C2.77519169,12.3008572 2.77021772,12.1617085 2.70749044,12.0295561 C2.63460796,11.8670157 2.76752349,11.9301238 2.79308417,12.035987 C2.74058115,12.1586697 3.18561329,13.058578 3.24730434,12.7570303 C3.06437278,12.420713 3.68301028,12.5490493 3.6639434,12.2577486 C3.67955614,12.2012129 3.67900347,12.1754184 3.72542719,12.1330166 C3.85668473,12.0475062 3.74297425,11.8774748 3.80176381,11.7577603 C3.8204162,11.6878679 4.00203518,11.4771308 3.976889,11.6612255 C3.91001674,11.842564 3.82601192,11.9935852 3.8147514,12.1890577 C3.79886233,12.2917408 3.75865607,12.4016322 3.64757075,12.4014909 C3.56577657,12.4400059 3.53634725,12.5629005 3.4318248,12.5521587 C3.16557925,12.5679887 3.47368905,13.1373747 3.24226128,12.9977314 M3.95533513,12.5205694 C3.80072757,12.4388045 4.14655664,12.1824854 4.10814654,12.0263759 C4.20569162,11.8281474 4.25992171,12.1401542 4.18710831,12.2212831 C4.14358608,12.3236835 4.09826769,12.3263689 4.04203419,12.4011375 C4.01661168,12.4405712 4.00548933,12.5267883 3.95533513,12.5205694 M4.16272204,13.7279617 C4.11698916,13.7086688 4.18095993,13.6452781 4.19014796,13.6153141 C4.22917981,13.5221008 4.20983659,13.5646439 4.21715938,13.4252126 C4.30109512,13.2234505 4.39967644,12.9714422 4.3165697,12.7599277 C4.40920989,12.6071398 4.16686702,12.4988737 4.27781418,12.4032576 C4.37819166,12.3262276 4.53480263,12.2110359 4.58426599,12.1022752 C4.60333288,11.9894157 4.76035834,11.9365547 4.67586994,12.0912508 C4.61894562,12.1805066 4.51124535,12.218951 4.53231564,12.3412803 C4.4977051,12.41301 4.34993675,12.351598 4.39732762,12.4939975 C4.46668687,12.666149 4.57908477,12.8812677 4.48188511,13.0628182 C4.49314563,13.236595 4.39180099,13.3780758 4.27594894,13.4934795 C4.29204526,13.5562342 4.21004384,13.6873266 4.16272204,13.7279617 M1.99199868,10.1127104 C2.00070313,10.0048683 1.87324515,9.93949885 1.86378079,9.83674506 C1.84056893,9.73144717 1.92422834,9.69095341 1.98087633,9.81172798 C2.1435666,9.98310207 1.99324218,10.3626692 1.99199868,10.1127104 M3.04739878,4.45065167 C3.03999338,4.40294961 3.16037859,4.33136117 3.14585262,4.4221011 C3.14737167,4.46492696 3.04407584,4.53354727 3.04739878,4.45065167 M3.00675763,4.72845438 C2.97905538,4.67495739 3.00150732,4.56859945 3.07252456,4.62266179 C3.15418057,4.65410982 3.02679167,4.85339846 3.00675763,4.72845438 M4.10165275,6.77582709 C3.90483552,6.65010565 3.65489354,6.68374444 3.46028696,6.79957212 C3.37110092,6.78720492 3.50491453,6.70699478 3.54215022,6.70324928 C3.58926477,6.68501649 3.62359897,6.658162 3.65095581,6.61936431 C3.74553032,6.49088675 3.94276204,6.63074214 4.08610909,6.57243961 C4.12963133,6.56904747 4.3404033,6.43095882 4.2963284,6.55576156 C4.24541429,6.62544191 4.18662473,6.76197583 4.10165275,6.77582709 M1.0425231,5.19107923 C0.958518273,5.1773273 1.0615209,5.08034843 1.09820393,5.09338494 C1.15257218,5.12065031 1.07671914,5.2026054 1.0425231,5.19107923 M1.99116969,5.92800236 C1.83055191,5.79047906 1.59518642,5.78016128 1.44548374,5.64899827 C1.41094228,5.5090722 2.11137396,5.89478758 1.99116969,5.92800236 M2.18168633,5.93935378 C2.13254963,5.92909134 2.12016639,5.89327146 2.15701891,5.85281375 C2.22715758,5.79656766 2.27986065,5.95790512 2.18168633,5.93935378 M2.21340943,6.52883639 C2.13569115,6.50798882 2.17575924,6.41102995 2.22494627,6.35392881 C2.31530673,6.22326048 2.28843347,6.55010798 2.21340943,6.52883639 M2.22715693,6.16983417 C2.13769455,6.16955149 2.14377385,6.04375937 2.22549894,6.04354736 C2.30294089,6.04587946 2.30591145,6.17831454 2.22715693,6.16983417 M2.02108259,6.33506 C2.0327576,6.29272883 2.13493124,6.20248358 2.12567412,6.30184522 C2.1245688,6.3574623 1.9927586,6.44820223 2.02108259,6.33506 M1.82910117,6.71688854 C1.78806592,6.71505113 1.8217093,6.65590056 1.83752929,6.63067147 C1.97555695,6.42389184 1.98730105,6.72409685 1.82910117,6.71688854 M1.66461475,6.47590477 C1.3364709,6.350466 1.5629247,6.06291087 1.79925735,6.25442583 C1.788135,6.34573112 1.78834225,6.4797916 1.66461475,6.47590477 M1.3154697,6.79702801 C1.33640182,6.68063497 1.44375667,6.5498253 1.54199257,6.67724282 C1.57411613,6.71971533 1.49508528,6.71823127 1.46351438,6.72812503 C1.40002718,6.72854905 1.26704257,6.9714409 1.3154697,6.79702801 M1.45695151,7.07829353 C1.47242608,7.0144081 1.79504329,6.74974996 1.72430239,6.91101829 C1.69708372,6.97525707 1.4444475,7.24775954 1.45695151,7.07829353 M1.49840126,7.36401125 C1.37501917,7.33235121 1.59788065,7.17998727 1.64050481,7.13581869 C1.80879079,7.09362887 1.57957368,7.38160801 1.49840126,7.36401125 M1.65556489,7.55121536 C1.58461673,7.53072114 1.70026153,7.42697798 1.73804989,7.41807359 C1.91580023,7.39687267 1.77369667,7.60697378 1.65556489,7.55121536 M1.94889094,7.38690824 C1.87248524,7.27016185 2.32007345,6.87116056 2.32891606,6.64657216 C2.54417843,6.48996804 2.07876683,7.42775534 1.94889094,7.38690824 M4.66357318,9.18495815 C4.61231366,9.17442836 4.70826983,9.0844658 4.71130947,9.06644502 C4.73652474,9.02835403 4.75628245,8.93881549 4.80781831,8.94383304 C4.82336196,9.0121 4.74626543,9.17308564 4.66357318,9.18495815 M2.5940538,7.60711512 C2.56828823,7.57425369 2.5375802,7.35334012 2.62719254,7.42422186 C2.68293693,7.4521364 2.6882845,7.70930354 2.5940538,7.60711512 M2.98409843,8.83012544 C2.91888416,8.72553425 2.87708899,8.5615098 2.84040597,8.43974586 C2.82506956,8.39585996 2.77456995,8.31769924 2.80724617,8.27020918 C2.91259761,8.28483782 2.86631206,8.46476295 2.92365088,8.53352459 C2.90810722,8.62094305 3.09062428,8.7938012 2.98409843,8.83012544 M2.16974902,4.16238985 C2.13949071,4.14910394 2.07855958,4.18168269 2.06840439,4.14076491 C2.10073519,4.06500696 2.13044085,4.00684578 2.13576023,4.00797649 C2.21071519,3.96013309 2.23648312,4.16118847 2.16974902,4.16238985 M2.03800791,5.71804259 C1.88623274,5.64376871 1.74233303,5.51055627 1.61501322,5.3974847 C1.56458269,5.24052723 1.42683135,5.16448661 1.34503718,5.03254622 C1.16390178,4.77615645 1.3288027,4.31835794 1.67497719,4.3621025 C1.78647701,4.28549652 1.65328515,4.49969647 1.85825416,4.38521151 C1.92167228,4.37128957 1.92208677,4.47757684 1.968096,4.50160455 C2.04298188,4.55347613 2.10564008,4.54718652 2.14674441,4.63693708 C2.17444666,4.68895 2.18045688,4.76817077 2.24352958,4.78400079 C2.41596053,4.86936982 2.62935766,4.40245492 2.63246639,4.60308628 C2.54701082,4.73841881 2.54010253,4.84385805 2.64227616,4.99671667 C2.68158434,5.0536058 2.73367286,5.10321595 2.76165144,5.16710139 C2.77519169,5.23374294 2.79937071,5.44257199 2.87632908,5.29049073 C2.86748647,5.2142381 2.97546306,5.15247275 2.93795104,5.09296884 C2.9227528,5.05720996 2.92413446,5.04844691 2.98361485,5.06222751 C3.43327554,5.10378131 3.21062131,4.51962533 3.36688686,4.62442854 C3.44792112,4.77156291 3.39921767,5.12173142 3.23528391,5.173603 C3.18271181,5.15084735 3.10084856,5.09508893 3.054563,5.15084735 C2.96206098,5.25699328 3.03252555,5.51338306 2.86258158,5.54256966 C2.63792394,5.50787082 2.60434964,5.15367414 2.47972407,5.60306294 C2.3772741,5.2688658 2.21085336,5.6911881 2.03800791,5.71804259 M2.33734418,3.61363941 C2.20864271,3.59399322 2.43993231,3.48480849 2.47281577,3.50162789 C2.52918743,3.56720939 2.3910216,3.62247312 2.33734418,3.61363941 M3.57731342,6.17004618 C3.17310928,5.88192569 3.51949102,5.72850171 3.80473438,5.58369944 C3.8887392,5.50490269 4.17439706,5.50023849 4.17709129,5.40497569 C4.16444912,5.35444684 4.09564253,5.34801589 4.13004583,5.28844131 C4.2397495,5.15607691 4.48036529,5.09756237 4.63531827,5.09141411 C4.77362226,5.24321268 4.83241182,5.5251849 4.74115329,5.71436777 C4.6635041,5.80496636 4.52222954,5.78327075 4.41977957,5.83570769 C4.17716037,6.0236185 3.86656359,6.12086005 3.57731342,6.17004618 M1.81328118,5.51564449 C1.57225089,5.46730639 1.96084229,5.04371204 2.03786974,5.20611108 C2.05009742,5.33847548 1.96595442,5.53302924 1.81328118,5.51564449 M0.962110584,4.96053377 C0.813996814,4.95608158 0.876724101,4.77997261 0.996513876,4.85410516 C1.04487192,4.88470515 1.02898285,4.97643446 0.962110584,4.96053377 M0.999346276,4.788877 C0.956238537,4.77919524 0.922111577,4.74230565 0.912578134,4.69714769 C0.900074127,4.63799713 0.91651586,4.62555925 0.97551267,4.63552369 C1.04321393,4.63418096 1.0910193,4.81403542 0.999346276,4.788877 M2.53533581,5.26462561 C2.42936262,5.23911384 2.47129595,5.05494853 2.49602763,4.97636379 C2.58562817,4.9074608 2.61250143,5.15692495 2.68718006,5.19699468 C2.71550405,5.27600344 2.58127595,5.25586257 2.53533581,5.26462561 M0.468029575,7.77149291 C0.501811121,7.60358163 0.714310168,7.5037253 0.617870418,7.41015858 C0.500705794,7.42994611 0.494281083,7.63241488 0.39777225,7.68598253 C0.21933108,7.79608597 0.0283168199,7.35206806 0.311418606,7.53036779 C0.389413218,7.5298731 0.502778281,7.33842881 0.433695366,7.27864222 C0.395078017,7.2721406 0.379119863,7.30938355 0.344854737,7.33058447 C0.25463245,7.35312811 0.169176884,7.32761634 0.125861896,7.44026389 C-0.0297128288,7.55100335 -0.027916673,7.32740433 0.0598877122,7.24578079 C0.10106113,7.17157758 0.085310225,7.11009491 0.118470024,7.03730509 C0.252767211,6.91009958 0.412417828,6.78791162 0.550030995,6.65363913 C0.750993196,6.31901797 0.975581753,7.07129723 0.941247544,7.21991567 C1.00425116,7.31051426 0.512726221,7.93806146 0.468029575,7.77149291 M1.33591824,14.1350193 C1.16569794,14.1552309 1.23830408,13.8890887 1.33426025,14.0403219 C1.35919918,14.0904974 1.3979547,14.066399 1.41785058,14.097847 C1.41004421,14.1303551 1.36507123,14.1364327 1.33591824,14.1350193 M1.20120655,14.9648939 C1.04887873,14.904966 1.17046466,14.9060261 1.22697448,14.8564866 C1.28970177,14.7524607 1.28306981,14.6677277 1.28887277,14.5580483 C1.38683235,14.3246969 1.37757524,14.9924551 1.20120655,14.9648939 M2.03268852,13.3211867 C2.0614961,13.2490329 2.10225502,13.1794939 2.12235814,13.104584 C2.11544985,13.0369531 2.07738517,12.9006312 2.19468796,12.9469905 C2.3857713,12.988191 1.94764745,13.5999788 2.03268852,13.3211867 M1.96787952,12.0275067 C1.93373696,11.9779672 1.94984752,11.820727 2.03239564,11.9012905 C2.07873196,11.9387455 2.03187833,12.1628392 1.96787952,12.0275067 M5.57940539,17.2530384 C5.43322594,17.2177742 5.58907699,17.0443507 5.58700451,16.9363674 C5.64158001,16.8522704 5.73781251,16.973257 5.80503019,16.9779212 C5.95369662,16.9403955 6.01255526,17.0886606 5.8911075,17.1712735 C5.79722382,17.2225091 5.68330609,17.2524731 5.57940539,17.2530384 M3.83119313,16.93453 C3.71561742,16.8555919 3.94676885,16.7733323 3.96224343,16.8738247 C3.9574767,16.9386995 3.88279807,16.9860482 3.83119313,16.93453 M3.33690488,17.9376161 C3.29856386,17.8303394 3.3380102,17.5078735 3.50429278,17.5691441 C3.56853989,17.6099206 3.58560337,17.6757847 3.66580864,17.6400965 C3.68971132,17.6294254 3.73661862,17.5885783 3.70117909,17.567448 C3.49579558,17.5260356 3.3857465,17.4060384 3.60867707,17.2695751 C3.72218029,17.1686588 3.58525796,17.0102172 3.64238953,16.8953789 C3.68750067,16.836723 3.66200908,16.7491633 3.71513384,16.6981397 C3.83222938,16.5558109 3.89778907,16.3694548 3.97212228,16.2020382 C4.02711228,16.1117223 4.21653764,16.3457098 4.252668,16.3931292 C4.19988865,16.6079651 4.00977247,16.7956639 4.08106604,17.0418773 C4.06759487,17.1791179 3.83160763,17.1981987 3.84169374,17.3605271 C3.93233052,17.520382 3.98504079,17.721084 3.75872516,17.7764891 C3.63181984,17.8128133 3.45248059,18.0363417 3.33690488,17.9376161 M2.12747028,17.2053364 C2.00595343,17.174595 1.80920529,17.0685904 1.94750929,16.9311378 C2.09562306,16.6693065 2.35198976,16.6266926 2.32933056,16.9855535 C2.31475406,17.1109216 2.29057504,17.2825784 2.12747028,17.2053364 M1.74150403,16.9466145 C1.31325904,16.7649933 1.55235501,16.6021702 1.38082213,16.5353167 C1.30683433,16.5358113 1.20970375,16.5878243 1.15512825,16.5114303 C1.14096625,16.0687551 1.06601129,15.6009922 0.982213713,15.1694828 C1.04922414,15.0906154 1.16790859,15.2392338 1.25474581,15.2386685 C1.4711135,15.3959793 1.2928105,15.7837441 1.43567397,16.0076258 C1.49384178,16.1256442 1.62185242,16.1912257 1.59801882,16.3430243 C1.60865759,16.3890303 1.64354446,16.3997721 1.67967482,16.442598 C1.70261035,16.4848585 1.75283363,16.5876829 1.82177838,16.5845735 C2.12007841,16.3893837 2.24387499,16.5476839 1.98370873,16.8061937 C1.93189655,16.9159438 1.86806393,17.0114186 1.74150403,16.9466145 M4.36216442,16.3900904 C4.21999178,16.3532008 4.35822669,16.2399879 4.38378737,16.1669154 C4.38316563,16.0767408 4.44126436,16.0050817 4.42385546,15.9155431 C4.41825975,15.8804909 4.40844997,15.8572406 4.43960637,15.8448027 C4.60637253,15.796182 4.53791136,15.9858595 4.59386852,16.0624655 C4.81161787,16.128259 4.50233366,16.405567 4.36216442,16.3900904 M4.6954204,16.0161768 C4.61797846,15.9959653 4.63676901,15.949818 4.62212343,15.874272 C4.56015606,15.782048 4.49176397,15.6402139 4.63096604,15.5798619 C4.80595307,15.5737137 4.93486179,16.0180142 4.6954204,16.0161768 M4.33487667,15.7269256 C4.13398355,15.6479169 4.26897157,15.2597987 4.28175191,15.0811456 C4.32769205,14.7439097 3.86621817,14.3589717 4.2498356,14.0848438 C4.41183504,13.9724083 4.34309754,14.2179149 4.3683128,14.3010225 C4.42489171,14.3875223 4.5037844,14.5451157 4.44319868,14.681791 C4.52665084,14.8523171 4.61507697,14.8631295 4.54592498,15.1099789 C4.42281922,15.4568966 4.67987675,15.073372 4.67379745,14.9538695 C4.69251892,14.8248265 4.52948324,14.7725309 4.54281624,14.6475162 C4.62157077,14.4189703 4.49694519,14.1970673 4.46240373,13.980818 C4.44347501,13.9096535 4.40361417,13.9921958 4.36610215,14.0032203 C4.30033521,14.0316295 4.28900561,13.9602531 4.29522308,13.911279 C4.28755487,13.7779958 4.45107413,13.7581376 4.48471751,13.6536171 C4.47525315,13.574043 4.51338692,13.3881109 4.59967148,13.5154578 C4.6072706,13.9975667 4.78287937,14.5376954 4.81134154,15.0272953 C4.80636757,15.0865165 4.74543643,15.1262329 4.7152472,15.1762671 C4.68540338,15.2483502 4.7071645,15.3352033 4.66730366,15.4074985 C4.59331586,15.5184499 4.48098704,15.7200707 4.33487667,15.7269256 M6.80617979,9.89674366 C6.71167437,9.87299863 6.58138399,9.78678156 6.62352457,9.67936358 C6.73226108,9.49131143 7.08548202,9.90960555 6.80617979,9.89674366 M5.13665298,10.1376568 C5.08325189,10.1349006 5.08815678,10.0686831 5.05181916,10.0387191 C5.01907386,9.97059353 4.94432615,9.94430439 4.96663993,9.86119679 C5.03841708,9.74155294 5.0051882,9.6106726 5.03917699,9.48007494 C5.18894875,9.30014981 5.03261411,9.29082141 5.07005705,9.12397018 C5.15613437,9.08927134 5.16394073,9.29802972 5.22818785,9.34728652 C5.29485286,9.57922457 5.48289655,10.0576586 5.13665298,10.1376568 M5.36918608,10.2688905 C5.27198641,10.2141214 5.37388371,10.1366674 5.39412501,10.0643723 C5.39122353,9.80466101 5.44828601,9.48473914 5.30728778,9.23513366 C5.23944836,9.03973186 5.48275839,9.28071564 5.47999507,9.36205649 C5.55356838,9.65201439 5.78299274,10.1697408 5.36918608,10.2688905 M5.32283144,10.9784852 C5.25416302,10.9591217 5.24262618,10.7801859 5.30832403,10.7515647 C5.40980683,10.7379254 5.4333641,10.9920538 5.32283144,10.9784852 M5.29720168,10.7040746 C5.20262717,10.6599061 5.24310976,10.3556729 5.340793,10.5033019 C5.35267526,10.5639366 5.39301968,10.7073255 5.29720168,10.7040746 M5.13437325,10.9886616 C5.06466859,10.7534021 5.0067771,10.480829 4.83158283,10.281611 C4.83441523,9.5037493 5.48952851,10.9331152 5.13437325,10.9886616 M4.45777518,11.2254759 C4.22344593,11.1207434 4.13750678,10.8431527 4.02559246,10.6456308 C4.01177588,10.6133347 4.04044529,10.5705795 4.0436231,10.5496613 C4.00569658,10.4666244 3.97516193,10.2500216 4.12147954,10.3658493 C4.24016399,10.5088849 4.18296334,10.7196927 4.3024077,10.8683111 C4.36886546,10.9613831 4.72250091,11.1668907 4.45777518,11.2254759 M3.95692404,9.91377507 C3.84715129,9.86169148 3.77730846,9.67017651 3.84100291,9.56077977 C3.95367714,9.51385507 4.11975247,9.89893442 3.95692404,9.91377507 M7.03159735,9.84451904 C6.94697078,9.81837093 6.84742229,9.67554741 6.84631697,9.58530217 C6.87574629,9.51194699 6.97888708,9.49915577 7.01391212,9.57159224 C7.02054408,9.64770354 7.18095461,9.84480141 7.03159735,9.84451904 M7.7434277,9.97582309 C7.62771382,9.95532887 7.55635117,9.85681527 7.46599072,9.78897233 C7.42081049,9.74247164 7.22717108,9.75158804 7.2982574,9.65879868 C7.32803214,9.63399361 7.31186673,9.59434789 7.30993241,9.56784674 C7.35559622,9.54240564 7.44533493,9.58325274 7.46384915,9.6298241 C7.46744146,9.72727765 7.60450196,9.6914481 7.59925166,9.79929011 C7.60035699,9.83102081 7.87496158,9.92381017 7.7434277,9.97582309 M7.75247757,10.1521441 C7.54909746,10.0200623 7.30951791,9.89342218 7.12161239,9.74091691 C6.84445173,9.34170361 7.49714711,9.39110175 7.66757466,9.55986106 C7.72228833,9.67272062 7.81126713,9.72805502 7.92193796,9.76911413 C8.09098385,9.89130209 7.96297321,10.2120013 7.75247757,10.1521441 M4.82025323,12.6719439 C4.5357007,12.5864335 5.00311571,12.3708202 4.9881938,12.6042423 C4.98128551,12.6812016 4.87731572,12.6745587 4.82025323,12.6719439 M4.85348211,12.4674257 C4.74916691,12.4627615 4.80781831,12.3648133 4.85147871,12.320998 C4.98197634,11.967084 5.22335204,12.5217707 4.85348211,12.4674257 M5.42935729,12.5094742 C4.9881938,12.6113093 5.21209153,11.9928078 4.70709542,11.3935285 C4.69548949,11.2285147 4.94266816,11.2929655 4.98646673,11.4044117 C5.10432218,11.5380481 5.02840006,11.903976 5.22010514,11.9273677 C5.33008515,11.6602361 4.87365433,11.4011609 5.05921104,11.1522621 C5.26383463,10.9680968 5.26038048,11.3093609 5.31081101,11.4387571 C5.35025736,11.6801649 5.85698054,12.47315 5.42935729,12.5094742 M5.75694848,12.3385948 C5.55121956,12.3140017 6.0071668,12.0257399 6.00371265,11.7001645 C6.05455768,11.5637719 5.83342327,11.0322649 6.08122368,11.1063267 C6.12882181,11.3250496 6.20426035,11.572747 6.10526454,11.7921058 C5.98899799,11.9674374 6.01497317,12.3074295 5.75694848,12.3385948 M5.41567888,13.3295652 C5.27246999,13.2957549 5.50389776,13.1520404 5.47591918,13.2850007 C5.45775037,13.3030872 5.43937432,13.3304614 5.41567888,13.3295652 M5.48172214,13.1218274 C5.33319388,13.1265623 5.27564781,12.8622575 5.38804571,12.7907397 C5.51930325,12.8002095 5.70575804,13.1002025 5.48172214,13.1218274 M5.36331403,13.7763704 C5.13713656,13.7463358 5.26155489,13.4051424 5.18929416,13.2444394 C5.19171207,13.0162468 5.00698435,12.7195753 5.31074193,12.6299661 C5.46617849,12.5255162 5.50258518,12.7509527 5.59812686,12.819997 C5.68475683,12.8681938 5.66568995,12.7420483 5.61836815,12.7074201 C5.48662703,12.5701088 5.58679726,12.4925135 5.71411707,12.4409246 C5.78195649,12.4708885 5.75881372,12.5846668 5.77207764,12.613076 C5.79252618,12.7740617 5.87390585,12.9169559 5.85615154,13.0829591 C5.76233695,13.3300911 5.64019835,13.7081035 5.36331403,13.7763704 M5.85249015,16.9177812 C5.54182428,16.8767221 5.65000813,16.7091642 5.68917814,16.5025966 C5.55094323,16.1795652 5.78775946,15.9202073 5.87238603,15.6317335 C5.94519942,15.4588047 5.8361175,15.219305 5.96737504,15.0906154 C6.03797778,15.0752094 6.14719787,15.0571179 6.18201566,14.9786745 C6.21959676,14.8657443 6.04986004,14.9127397 6.00847937,14.8798076 C5.94485401,14.7677254 6.01953264,14.6230645 5.9869255,14.5035619 C5.96910211,14.3076655 6.04875471,14.1320512 6.0969055,13.9531861 C6.10181039,13.888806 6.0314149,13.8237192 6.09068804,13.7711409 C6.24501927,13.6716379 6.20122071,13.3944712 6.13179238,13.2449341 C6.12163719,13.157445 5.9962517,13.0590727 6.07922028,12.9854348 C6.09766542,12.9118676 5.97055285,12.8462861 5.93041568,12.8021176 C5.75211267,12.5838894 5.90996714,12.2884193 6.06650902,12.1116743 C6.0953166,12.0533011 6.05814999,11.9886383 6.08709573,11.9314665 C6.12460775,11.8782522 6.17876876,11.835709 6.18692054,11.7658167 C6.25441455,11.5199567 6.26505332,11.2212357 6.07286465,11.0302154 C6.01069003,10.9514894 6.08612857,10.6025222 5.94623567,10.7187033 C5.9299321,10.8853425 5.95390387,11.0582713 5.87245511,11.2099992 C5.88295572,11.3013752 5.97476691,11.4177682 5.96005225,11.5217941 C5.85262832,11.9257422 5.72385776,12.5122303 5.55971676,11.7106943 C5.08145573,10.8408912 5.45367448,11.3875216 5.48738694,10.8890173 C5.49788755,10.7448511 5.4673529,10.6150308 5.43198245,10.4872599 C5.36614643,10.3476872 5.67909203,10.3557436 5.73104239,9.89603696 C5.67612147,9.68501715 5.69587918,9.47025185 5.53685031,9.29739369 C5.44614444,9.12057803 5.6080748,9.19880942 5.69470477,9.24820756 C5.79964172,9.28198769 5.91646093,9.29145743 6.01663116,9.32509622 C6.6917094,9.68805595 7.25722215,10.4484622 7.32934471,11.2454754 C7.36692582,11.8936582 6.88797397,12.4547052 6.78172444,13.0708039 C6.74504141,13.3576523 6.63934455,13.6063391 6.57468295,13.8809616 C6.53247328,13.9664013 6.53599651,14.3543075 6.38422135,14.2095052 C6.36978302,14.1495066 6.38422135,14.0832891 6.3451895,14.0324775 C6.33054392,13.9680974 6.41026561,13.6628042 6.30539774,13.6845705 C6.24156513,13.9146711 6.21517545,14.1551602 6.31900708,14.3725403 C6.36536171,14.4767781 6.35002531,14.482149 6.43686253,14.4045537 C6.54870777,14.3069588 6.53986516,14.5643379 6.51354457,14.6172695 C6.27831724,14.9621378 6.21648803,15.4125867 6.12854548,15.8213404 C6.11258733,16.0673417 6.06450562,16.0661403 6.02043072,16.2254299 C5.98685642,16.3539781 6.04371166,16.3044387 5.95556186,16.4315735 C5.9072729,16.5011832 5.89062392,16.5642912 5.93690947,16.6605434 C6.06077514,16.8005401 6.09414219,16.9415263 5.85249015,16.9177812 M1.22897789,15.1448897 C1.15063786,15.0937249 0.896965395,15.0712519 0.974545509,14.934506 C1.04197043,14.7682201 0.978483235,14.572889 0.988431175,14.3937412 C0.998931778,13.997284 1.25882171,13.6675391 1.34662609,13.289668 C1.42144289,12.9720783 1.55408208,12.6604247 1.57598137,12.3373934 C1.63104045,12.2531551 1.68485604,12.4303948 1.74309294,12.4612775 C1.86923834,12.5257989 1.78544077,12.3350613 1.7420567,12.28955 C1.54883178,11.8715386 1.1852484,11.2766408 1.4658632,10.8326936 C1.56672426,10.766264 1.51263234,10.6630862 1.48506825,10.5752437 C1.41598534,10.4366604 1.49501619,10.3378641 1.5426834,10.2155348 C1.58724188,10.096739 1.64844935,10.2550392 1.66496016,10.3103029 C1.87766646,10.6346063 1.87545581,11.0193323 1.93486711,11.3894297 C1.9474402,11.4373438 1.98730105,11.5144444 1.9207742,11.5306278 C1.80126076,11.497625 1.74806691,11.2984071 1.70337026,11.189717 C1.73501024,11.1354427 1.70938048,10.9248469 1.63905407,11.0147388 C1.733974,11.527801 1.18683731,10.742519 1.75518245,11.6135234 C1.84049985,11.8962023 1.90861561,11.5791779 2.02564206,11.7415063 C2.13582931,11.8997358 2.1079889,12.0875759 2.19779669,12.2425546 C2.26314913,12.420713 2.48221105,12.6096132 2.5511558,12.796252 C2.56179457,12.9294644 2.32256043,12.744027 2.27019558,12.7084095 C2.23365072,12.6739227 2.22694968,12.6168922 2.1985566,12.5751264 C2.14501734,12.4684858 2.06045985,12.5612045 2.10322218,12.643676 C2.09610664,12.8099619 2.81719411,12.9112316 2.44069222,12.9898164 C2.41499337,12.9978727 2.39786081,13.0096745 2.40697976,13.0373771 C2.41761852,13.0701678 2.43295493,13.0799203 2.46473307,13.0686131 C3.06112588,12.8089019 2.02032268,13.6870439 1.88851248,13.7742503 C1.44237501,14.0073898 1.53273546,14.4807356 1.44921422,14.8886413 C1.35823202,14.974293 1.40465574,15.1555609 1.22897789,15.1448897 M2.71909637,6.05845868 C2.6218967,6.05026099 2.68241334,5.89174879 2.7549504,5.89952246 C2.82734929,5.9328079 2.79253151,6.04828224 2.71909637,6.05845868 M1.80519848,7.00910787 C1.92056695,6.96649402 2.0719967,6.44134727 2.17403217,6.59639665 C2.19883293,6.62862205 1.73735906,7.22761867 1.80519848,7.00910787 M6.26505332,13.0325009 C6.06146597,13.0066358 6.24681543,12.905154 6.35437753,12.9322205 C6.38560301,12.919924 6.46698268,12.8272053 6.46725901,12.9107369 C6.4604198,13.0110173 6.3532722,13.035469 6.26505332,13.0325009 M4.19263495,16.2295287 C4.07160168,16.1869149 4.0213784,16.0520064 3.92880729,15.9701002 C3.87761685,15.9233168 3.77613405,15.8966036 3.7961681,15.8072771 C3.81482048,15.6769621 3.61441095,15.6939229 3.5976238,15.5759751 C3.59085367,15.5397215 3.58422171,15.5115243 3.61240754,15.4862952 C3.63700106,15.4643169 3.66940095,15.4711012 3.65966026,15.4383105 C3.53310036,15.2240398 3.31168961,14.9333046 3.49634825,14.6876566 C3.78276601,14.2465361 3.61876317,13.7700808 3.68245762,13.2874773 C3.56563841,13.0604154 3.76514987,12.9026806 3.73516788,12.6675624 C3.69986651,12.4945629 3.60798624,12.7037453 3.605292,12.773143 C3.60777899,12.9427503 3.62663862,13.1109443 3.58249464,13.274474 C3.38167061,13.3605498 3.05960606,13.0187909 2.83432667,12.9613365 C2.6198933,12.8000681 2.5620709,12.5204987 2.37748135,12.3236128 C2.25693166,12.1581043 2.30867477,11.8632702 2.12505238,11.7487146 C1.98357057,11.5167765 2.06398308,11.2322602 2.00622976,10.9855522 C1.92740616,10.4880373 1.50738203,10.0272 1.58067901,9.5252329 C1.61335523,9.1622025 1.67608251,9.2091272 1.8107942,9.46360889 C1.84160518,9.53067447 1.9971799,9.63208553 1.926439,9.47272529 C1.43892087,8.91061827 1.7028176,8.05622124 1.40769539,7.4229498 C0.535730832,7.47976826 1.54316698,9.35816966 1.50931636,9.92812102 C1.3154697,10.436307 1.03105533,8.20010481 0.90940032,8.03480831 C0.921697079,7.84852291 0.737660193,7.98307807 0.660010996,7.88668456 C0.457736221,7.68110632 1.20175922,7.66393358 1.0206929,7.24161128 C0.966255559,7.15610091 1.02559778,7.0291074 0.977516075,6.93985154 C0.926601966,6.78777028 0.835274352,6.6359717 0.714793748,6.53625671 C0.69020023,6.51583316 0.666090293,6.48933201 0.687851411,6.45223041 C0.897863473,6.36028909 1.05468169,6.76586266 1.09357537,6.91165431 C1.12210662,6.97462104 1.07492298,7.46400891 1.24963368,7.35312811 C1.28928727,7.32796969 1.44251318,7.21857295 1.32548672,7.23037479 C1.07084709,7.33065514 1.27913208,6.82967743 1.07962062,6.67787885 C0.937724315,6.36707338 0.547751259,6.41315005 0.824980998,6.03761111 C0.867950571,5.93238388 1.12486993,5.73401395 1.17744203,5.71401442 C1.26925323,5.68758394 1.56658609,5.52864772 1.4222028,5.43402095 C1.25709463,5.62546525 1.11305675,5.42956876 0.991747155,5.29812306 C0.858417129,5.23338959 0.753134766,4.93480999 0.998793612,5.04201597 C1.11644182,5.0419453 1.06594221,4.90576473 1.14138075,4.84929962 C1.13986093,4.76654536 1.03810179,4.68421513 1.08196944,4.58591354 C1.16832309,4.39241982 1.41943948,4.09313352 1.63532359,4.24874826 C1.67394094,4.25645126 1.692317,4.23192886 1.71380178,4.19857275 C1.77597641,4.09482959 1.90295081,4.34916994 1.89466086,4.12719633 C1.92795882,3.98889567 2.07897407,3.97172292 2.17935155,3.88501116 C2.27959086,3.82056037 2.15779768,3.80911188 2.11945666,3.85264443 C2.04678144,3.84713219 2.03745524,3.94472709 1.9611877,3.95532754 C1.85500726,3.9458578 1.61584221,4.30768681 1.61294073,4.07058987 C1.67622068,3.98006195 1.68761936,3.87073588 1.6458242,3.76897147 C1.61003925,3.3619845 2.21264952,3.11089495 2.53505948,3.27908891 C2.65719807,3.32820437 2.63681861,3.37717849 2.5701536,3.46452628 C2.58003246,3.56728006 2.69415743,3.51703389 2.75598664,3.50855352 C2.79114985,3.50926022 2.82451689,3.5281997 2.80641717,3.57674981 C2.6894598,3.65321445 2.52594054,3.63978721 2.38908728,3.72254146 C2.22190663,3.91864996 2.6619648,3.71059827 2.72862981,3.704238 C2.83018169,3.63356827 2.93159541,3.72678164 2.83163244,3.82176176 C2.73021872,3.8727853 2.62452186,3.93709475 2.67301806,4.07348733 C2.8920109,4.56238052 3.25379813,3.96324255 3.28046414,4.46026276 C3.51707312,4.66993984 3.17559627,4.065855 3.71672274,4.35567156 C3.83036414,4.41100596 4.8697166,4.96032176 4.4047195,5.00675177 C4.26047437,4.99219381 4.16838684,5.17671247 4.09888943,5.24250599 C3.96590482,5.29155078 3.80722136,5.14858592 3.75236953,5.02964876 C3.66200908,4.92413886 3.71575558,5.10335729 3.7460139,5.13282657 C3.75831066,5.18907967 3.75858699,5.27769951 3.7896743,5.32285747 C3.87754777,5.30928888 3.9999627,5.41748424 3.88797929,5.48723526 C3.702768,5.5758551 3.55258174,5.68723059 3.34706007,5.67147124 C3.29897836,5.90821483 3.43217022,6.15393348 3.53151145,6.35944105 C3.551131,6.37838054 3.57081963,6.36021842 3.5858797,6.34000688 C3.95885836,5.88637789 4.21840287,6.3721616 4.27477453,6.18382678 C4.25259892,5.95203007 4.59041437,5.86164348 4.49611619,6.10001248 C4.38959034,6.18997504 4.39449523,6.30968956 4.4977051,6.40000548 C4.50102108,6.57491306 4.42876035,6.68600587 4.54723755,6.86444693 C4.60478362,7.12225011 3.73378622,6.91186632 3.56087169,7.1406949 C3.38685182,7.18875032 2.95232029,7.63107215 3.01180068,7.20422699 C3.03591062,7.02260579 3.24799516,7.06451294 3.3355923,6.9604871 C3.3530012,6.82847604 3.15459506,6.88077164 3.07742945,6.85080768 C2.97138717,6.85229174 2.7549504,6.57851721 2.88040497,6.51498513 C3.03991742,6.55929505 3.04337157,6.33788678 3.1762871,6.34113759 C3.54007773,6.46756574 3.14091665,6.20743047 3.17034597,6.07845821 C3.16944789,5.93549335 3.30899538,5.59698535 3.05373401,5.79620331 C2.99038497,5.8242592 2.85346264,5.75825367 2.82562222,5.8191003 C2.95784692,5.87174925 3.05553016,5.86659036 3.10043406,6.01860095 C3.22298715,6.33993621 2.76641816,6.40827383 2.64441773,6.36276253 C2.48228013,6.33979487 2.55005047,6.12149607 2.48248738,6.01012058 C2.46998337,5.96948549 2.3700204,5.89514093 2.39198876,5.81867629 C2.43247135,5.67924491 2.29444369,5.72977377 2.33091947,5.84086658 C2.46418041,6.12926975 2.48221105,6.44297267 2.54369484,6.75095135 C2.5592385,6.76565065 2.56828836,7.04500809 2.59592153,6.92345616 C2.61319226,6.50565672 2.72227418,7.07638545 2.75771372,7.19200113 C2.8188521,7.44358536 2.85380805,8.42172508 3.12406042,7.68365043 C3.15804921,7.57729249 3.19321241,7.49015671 3.3024325,7.46097012 C3.49144336,7.19101175 3.44709213,7.24995031 3.75913965,7.20302561 C3.93371218,7.1829554 4.37404668,7.02133373 4.50516606,7.16599467 C4.67124138,7.40775581 4.22462034,7.4691678 4.62799548,7.5520634 C4.85583093,7.73099915 4.35511796,7.76937281 4.24465438,7.8013862 C4.046041,7.91127763 4.18510491,8.09099075 4.335982,7.8459788 C4.86128848,7.57043753 4.49197122,8.25020965 4.63739076,8.27967893 C4.69548949,8.21056393 4.67586994,8.08936535 4.68194924,8.00272426 C4.69396966,7.85226841 4.85590002,7.90272659 4.86536438,8.03049746 C4.90978469,8.08385311 4.80035735,8.327593 4.86087399,8.28434313 C4.9024619,8.25331912 4.94688222,8.25430849 4.97154482,8.30292927 C4.98515415,8.46391491 4.97182115,8.40964056 4.90018216,8.61620817 C4.82446729,8.7653213 4.94080292,8.82270512 4.96601818,8.64256798 C4.95924806,8.52172275 5.09057468,8.54893059 5.10224969,8.64702018 C5.11447737,8.79238781 5.11385562,8.91909863 5.06149077,9.06241684 C4.97023224,9.2322362 5.02777831,9.43315024 4.89741885,9.59215713 C4.84291243,9.86543697 4.76664489,10.0867039 4.63594001,10.3298078 C4.61569872,10.4563066 4.93721061,10.2778655 4.6990818,10.5748904 C4.7043321,10.6122747 4.7593221,10.5581417 4.78191221,10.573053 C4.82557262,10.6283874 4.76471057,10.9627965 4.88850715,10.8482409 C4.81458843,10.4569426 5.12580697,10.8418099 5.04981576,11.028802 C5.0326832,11.1780565 4.86764411,11.2271013 4.74605818,11.2415179 C4.64049949,11.2217304 4.64353913,11.1072454 4.56941317,11.0541725 C4.45052147,10.8979217 4.32043834,10.7014599 4.29929897,10.4951043 C4.2712513,10.4188516 4.16900859,10.3679694 4.14061551,10.2858512 C4.08638542,9.80628641 4.03712931,9.31626251 3.63154351,8.99768337 C3.40868203,8.74793655 3.64922874,8.63592503 3.55175274,8.61889362 C3.4516516,8.64815089 3.38567741,8.74214163 3.47983743,8.81938365 C3.66546322,9.06043809 3.29165557,8.98510416 3.24233037,8.81641552 C3.18098474,8.69931578 3.22181274,8.55486685 3.12627107,8.44320868 C3.08364691,8.33918284 3.11549413,8.21127063 3.00896828,8.14477041 C2.82486231,8.04703418 2.99950392,8.3514087 3.0169819,8.42243178 C3.04489139,8.55486685 3.08164351,8.67486405 3.13345569,8.80510836 C3.19183075,8.97337298 3.3554191,8.99768337 3.48356791,9.0713919 C3.80556337,9.38940568 3.78318051,9.37421169 3.77281807,9.81243468 C3.9243169,10.0686124 3.96894447,10.3560969 3.94973942,10.6502243 C4.07194709,10.9750931 4.34938408,11.2169249 4.54633947,11.4959996 C4.5935231,11.595856 4.61680405,11.7079381 4.56664985,11.804897 C4.55013903,11.834861 4.48644459,11.8816443 4.50931103,11.9094882 C4.66170794,11.9698402 4.64830586,11.7063834 4.63973957,11.6111206 C4.78329387,11.2997498 4.96767617,12.0711806 4.85686718,12.1615671 C4.71510903,12.2942849 4.73072177,12.4776022 4.66523117,12.6461495 C4.69466049,12.789609 4.76996087,12.9437397 4.68630146,13.0867046 C4.43801746,13.5998375 3.76452812,14.4373444 4.02586879,14.988851 C4.03422782,15.005741 4.04410668,15.0074371 4.03788922,15.1774685 C4.04687,15.2607174 3.8450788,15.3727289 3.96493766,15.4296181 C4.14600398,15.4033289 4.07450316,15.5902504 3.96024002,15.6388005 C3.936061,15.650885 3.91671778,15.7110956 3.95568055,15.7105302 C4.00424584,15.6758314 4.04051437,15.6223344 4.10842287,15.6556905 C4.19961232,15.7536388 4.37798441,15.8385131 4.36796739,15.9917251 C4.32444515,16.0805569 4.32389249,16.2535564 4.19263495,16.2295287 M2.85670953,3.40883853 C2.58155228,3.30834618 2.99971117,3.11068295 3.09932873,3.02983678 C4.1446914,2.28314042 5.30259015,1.63467499 6.21047782,0.715049806 C6.276452,0.551449383 6.05055087,0.301561222 6.04391891,0.147642552 C6.03431638,0.0202250312 6.22042576,-0.0672640932 6.27534667,0.0680684377 C6.33033667,0.215202813 7.11808916,1.5825914 6.58960486,1.37355034 C6.47997027,1.28683858 6.45351151,0.823951858 6.23714382,1.00960124 C5.13340609,1.8288754 4.03478049,2.72362484 2.85670953,3.40883853" id="Fill-1-Copy"></path>
                        </g>
                    </g>
                </g>
            </g>
        </g>
    </g>
</svg>