<?xml version="1.0" encoding="UTF-8"?>
<svg id="Layer_1" data-name="Layer 1" xmlns="http://www.w3.org/2000/svg" viewBox="0 0 630.26 89.94">
  <defs>
    <style>
      .cls-1 {
        fill: #231f20;
      }
    </style>
  </defs>
  <g>
    <path class="cls-1" d="m11.27,1.81h6.12c7.39,0,9.73,4.6,9.73,8.9,0,6.08-3.89,9.64-11.88,9.64h-3.97V1.81Zm5.11,41.13v-1.35h-5.11v-20.24h.27l17.05,21.59h10.64v-1.35h-3.28l-15.95-20.24c9.66-.55,14.75-4.68,14.75-10.63,0-5.34-3.95-10.26-15.21-10.26H0v1.35h4.02v39.78H0v1.35h16.38Z"/>
    <path class="cls-1" d="m71.1,6.56h.13l6.38,17.96h-13.21l6.7-17.96Zm-6.56,36.37v-1.35h-6.43l5.83-15.71h14.13l5.49,15.71h-4.95v1.35h14.89v-1.35h-2.68L76.06,0h-4.3l-15.54,41.58h-3.89v1.35h12.2Z"/>
    <path class="cls-1" d="m122.31,41.58h9.9c4.42,0,5.69-.74,9.7-15.71h1.51v17.06h-32.39v-1.35h4.03V1.81h-4.03V.45h17.98v1.35h-6.7v39.78Z"/>
    <path class="cls-1" d="m175.84,1.81h6.92c6.98,0,9.87,3.97,9.87,9.73,0,7.35-3.23,9.37-10.48,9.37h-6.31V1.81Zm6.18,41.13v-1.35h-6.18v-19.33h8.06c11,0,16.35-4.29,16.35-10.72S194.49.45,183.83.45h-19.26v1.35h4.02v39.78h-4.02v1.35h17.44Z"/>
    <polygon class="cls-1" points="229.52 21.58 229.52 41.58 233.93 41.58 233.93 42.93 218.24 42.93 218.24 41.58 222.26 41.58 222.26 1.81 218.24 1.81 218.24 .45 233.93 .45 233.93 1.81 229.52 1.81 229.52 20.23 247.24 20.23 247.24 1.81 242.83 1.81 242.83 .45 258.52 .45 258.52 1.81 254.5 1.81 254.5 41.58 258.52 41.58 258.52 42.93 242.83 42.93 242.83 41.58 247.24 41.58 247.24 21.58 229.52 21.58"/>
    <path class="cls-1" d="m330.72,41.58h9.91c4.41,0,5.68-.74,9.7-15.71h1.5v17.06h-32.39v-1.35h4.03V1.81h-4.03V.45h17.96v1.35h-6.69v39.78Z"/>
    <path class="cls-1" d="m386.74,6.56h.13l6.37,17.96h-13.2l6.7-17.96Zm-6.57,36.37v-1.35h-6.44l5.83-15.71h14.15l5.49,15.71h-4.96v1.35h14.87v-1.35h-2.68L391.69,0h-4.28l-15.56,41.58h-3.87v1.35h12.19Z"/>
    <path class="cls-1" d="m441.94.45v1.35h-4.83v30.82c0,7.47,4.64,9.86,8.85,9.86,6.38,0,10.87-3.91,10.87-10.29V1.81h-6.04V.45h11.93v1.35h-4.02v30.45c0,7.11-5.16,11.58-13.01,11.58-10.86,0-15.84-4.17-15.84-12.62V1.81h-4.02V.45h16.1Z"/>
    <path class="cls-1" d="m492.79,1.81h6.11c7.39,0,9.73,4.6,9.73,8.9,0,6.08-3.9,9.64-11.89,9.64h-3.96V1.81Zm5.1,41.13v-1.35h-5.1v-20.24h.27l17.05,21.59h10.64v-1.35h-3.28l-15.94-20.24c9.64-.55,14.74-4.68,14.74-10.63,0-5.34-3.95-10.26-15.22-10.26h-19.53v1.35h4.01v39.78h-4.01v1.35h16.37Z"/>
    <path class="cls-1" d="m536.36,42.93v-1.35h4.02V1.81h-4.02V.45h34.03v13.63h-1.49c-3.61-11.48-4.67-12.28-7.98-12.28h-13.29v18.43h5.23c3.35,0,4.95-1.91,6.31-8.48h1.48v18.29h-1.48c-1.36-6.56-2.96-8.46-6.31-8.46h-5.23v20h11.81c4.78,0,6.19-1.65,10.14-14.36h1.53v15.71h-34.75Z"/>
    <polygon class="cls-1" points="597.68 3.04 597.56 3.04 597.56 41.58 603.19 41.58 603.19 42.93 591.26 42.93 591.26 41.58 595.69 41.58 595.69 1.81 591.26 1.81 591.26 .45 604.13 .45 623.83 31.14 623.96 31.14 623.96 1.81 618.6 1.81 618.6 .45 630.26 .45 630.26 1.81 625.82 1.81 625.82 42.93 623.56 42.93 597.68 3.04"/>
  </g>
  <g>
    <path class="cls-1" d="m119.82,72.24l-5.31,17.54h-1.23l-3.53-12.09-3.71,12.09h-1.35l-5.13-17.54h-1.35v-.65h6.48v.65h-2l3.81,13.23,2.79-9.2-1.17-4.02h-1.84v-.65h7.28v.65h-2.3l3.65,13.23,4.02-13.23h-2.06v-.65h4.27v.65h-1.32Z"/>
    <path class="cls-1" d="m133.75,89.59v-.62h2.3l-2.36-6.56h-6.11l-2.52,6.56h2.64v.62h-5.4v-.62h1.96l6.69-17.54h1.6l6.69,17.54h1.2v.62h-6.69Zm-3.04-15.47l-2.92,7.67h5.68l-2.76-7.67Z"/>
    <path class="cls-1" d="m156.62,77.31l-.12-.49c-1.07-4.26-1.17-4.59-2.92-4.59h-1.6v16.74h2.06v.62h-7.15v-.62h2.03v-16.74h-1.57c-1.75,0-2.12.27-2.95,4.59l-.09.49h-.8v-5.72h13.91v5.72h-.8Z"/>
    <path class="cls-1" d="m171.6,89.94c-5.59,0-9.27-3.64-9.27-9.23s3.65-9.47,9.21-9.47c1.87,0,3.44.35,5.25,1.13v5.05h-.74c-.09-.27-.15-.46-.21-.57-.68-2.02-.98-2.75-1.57-3.64-.58-.92-1.54-1.35-3.01-1.35-3.65,0-5.28,2.78-5.28,9.1,0,3.46.46,5.43,1.6,6.8.8.97,2.15,1.57,3.59,1.57,1.17,0,2.27-.41,2.82-1.03.71-.81,1.29-2.35,1.87-4.59l.18-.7h.83v5.88c-1.93.73-3.59,1.05-5.28,1.05Z"/>
    <path class="cls-1" d="m193.49,89.59v-.62h2.06v-8.5h-7.98v8.5h2.06v.62h-6.97v-.62h1.84v-16.74h-1.84v-.65h6.97v.65h-2.06v7.61h7.98v-7.61h-2.06v-.65h6.97v.65h-1.84v16.74h1.84v.62h-6.97Z"/>
    <path class="cls-1" d="m205.98,89.59v-.62h1.84v-16.74h-1.84v-.65h14.61v5.83h-.74l-.12-.43c-.92-3.24-1.35-4.02-2-4.4-.52-.3-1.01-.35-2.82-.35h-4.02v7.77h1.78c1.87,0,2.15-.27,3.01-3.1,0-.08.06-.19.09-.35h.74v7.56h-.74c-.95-3.21-1.17-3.46-3.01-3.46h-1.87v8.31h4.85c1.63,0,2.33-.46,2.95-1.86.55-1.24.98-2.56,1.35-4.13h.8v6.61h-14.86Z"/>
    <path class="cls-1" d="m232.97,89.94c-1.9,0-3.47-.32-5.92-1.24v-5.83h.83c.4,2.05,1.04,3.81,1.87,4.97.68.97,1.93,1.49,3.53,1.49,2.79,0,4.91-1.59,4.91-3.73,0-1.54-1.2-2.73-3.41-3.43l-2.61-.84c-3.19-1.03-4.24-1.62-4.97-3.02-.31-.59-.46-1.21-.46-1.89,0-3.1,2.92-5.18,7.21-5.18,1.78,0,3.78.41,5.53,1.11v5.1h-.77c-.09-.24-.12-.41-.18-.54-.74-2.19-1.11-3.27-1.69-3.97-.61-.7-1.75-1.08-3.29-1.08-2.82,0-4.73,1.35-4.73,3.35,0,1.51.89,2.21,4.11,3.24l2.98.95c3.13,1,4.73,2.65,4.73,4.94,0,3.21-3.32,5.61-7.68,5.61Z"/>
    <path class="cls-1" d="m270.05,89.59l-1.04-1.54c-1.29,1.21-3.29,1.89-5.43,1.89-3.62,0-6.72-2.4-6.72-5.21,0-2.24,1.96-4.32,5.22-5.56-1.17-1.3-1.75-2.56-1.75-3.86,0-2.43,2-4.08,4.91-4.08,2.46,0,4.24,1.3,4.24,3.08,0,.81-.4,1.65-1.11,2.24-.64.57-1.32.84-2.95,1.7l-.46.24,5.43,6.91c.77-1.43,1.07-2.51,1.29-4.64h-2.82v-.62h5.25v.62h-1.57c-.31,2.51-.68,3.64-1.72,5.16l2.3,3.05h1.6v.62h-4.67Zm-7.58-9.85c-1.9,1.05-2.7,2.16-2.7,3.73,0,2.89,2.52,5.51,5.31,5.51,1.32,0,2.15-.35,3.5-1.46l-6.11-7.77Zm2.27-7.8c-1.26,0-2.15.78-2.15,1.92,0,.94.58,2.19,1.96,4.13l.28-.19.77-.54c.83-.59,1.32-1.65,1.32-2.89,0-1.54-.8-2.43-2.18-2.43Z"/>
    <path class="cls-1" d="m304.31,77.37c-.71-2.32-1.23-3.59-1.81-4.32-.49-.57-1.44-.81-3.29-.81h-3.81v7.67h2.06c1.69,0,2.24-.67,2.82-3.46h.71v7.67h-.71c-.68-2.86-1.29-3.59-3.01-3.59h-1.87v8.45h2.67v.62h-7.58v-.62h1.84v-16.74h-1.84v-.65h14.61v5.78h-.8Z"/>
    <path class="cls-1" d="m310.18,89.59v-.62h1.84v-16.74h-1.84v-.65h6.75v.65h-1.84v16.74h1.84v.62h-6.75Z"/>
    <path class="cls-1" d="m337.47,72.24v17.36h-1.04l-11.42-16.98v16.36h2.46v.62h-5.1v-.62h1.84v-16.74h-1.84v-.65h5.5l8.78,13.01v-12.36h-2.46v-.65h5.13v.65h-1.84Z"/>
    <path class="cls-1" d="m344.62,89.59v-.62h1.84v-16.74h-1.84v-.65h14.61v5.83h-.74l-.12-.43c-.92-3.24-1.35-4.02-2-4.4-.52-.3-1.01-.35-2.82-.35h-4.02v7.77h1.78c1.87,0,2.15-.27,3.01-3.1,0-.08.06-.19.09-.35h.74v7.56h-.74c-.95-3.21-1.17-3.46-3.01-3.46h-1.87v8.31h4.85c1.63,0,2.33-.46,2.95-1.86.55-1.24.98-2.56,1.35-4.13h.8v6.61h-14.86Z"/>
    <path class="cls-1" d="m385.05,72.24v12.39c0,2.48-.31,3.35-1.44,4.26-.92.7-2.15,1.05-3.87,1.05-1.23,0-2.76-.27-4.24-.73v-6.4h.77l.12.49.4,1.62c.83,3.37,1.54,4.4,2.98,4.4,1.6,0,2.21-.89,2.21-3.19v-13.9h-2.55v-.65h7.46v.65h-1.84Z"/>
    <path class="cls-1" d="m392.02,89.59v-.62h1.84v-16.74h-1.84v-.65h14.61v5.83h-.74l-.12-.43c-.92-3.24-1.35-4.02-2-4.4-.52-.3-1.01-.35-2.82-.35h-4.02v7.77h1.78c1.87,0,2.15-.27,3.01-3.1,0-.08.06-.19.09-.35h.74v7.56h-.74c-.95-3.21-1.17-3.46-3.01-3.46h-1.87v8.31h4.85c1.63,0,2.33-.46,2.95-1.86.55-1.24.98-2.56,1.35-4.13h.8v6.61h-14.86Z"/>
    <path class="cls-1" d="m433.56,72.24l-5.31,17.54h-1.23l-3.53-12.09-3.71,12.09h-1.35l-5.13-17.54h-1.35v-.65h6.48v.65h-2l3.81,13.23,2.79-9.2-1.17-4.02h-1.84v-.65h7.28v.65h-2.3l3.65,13.23,4.02-13.23h-2.06v-.65h4.27v.65h-1.32Z"/>
    <path class="cls-1" d="m439.63,89.59v-.62h1.84v-16.74h-1.84v-.65h14.61v5.83h-.74l-.12-.43c-.92-3.24-1.35-4.02-2-4.4-.52-.3-1.01-.35-2.82-.35h-4.02v7.77h1.78c1.87,0,2.15-.27,3.01-3.1,0-.08.06-.19.09-.35h.74v7.56h-.74c-.95-3.21-1.17-3.46-3.01-3.46h-1.87v8.31h4.85c1.63,0,2.33-.46,2.95-1.86.55-1.24.98-2.56,1.35-4.13h.8v6.61h-14.86Z"/>
    <path class="cls-1" d="m460.33,89.59v-.62h1.84v-16.74h-1.84v-.65h7.46v.65h-2.55v16.74h3.75c1.84,0,2.49-.46,3.07-2.16.49-1.38.77-2.38,1.2-4.43h.86v7.21h-13.78Z"/>
    <path class="cls-1" d="m491.49,89.59l-7.4-9.37v8.75h2.18v.62h-7.09v-.62h1.84v-16.74h-1.84v-.65h7.74c2.67,0,3.99.32,5.28,1.21,1.17.84,1.84,1.94,1.84,3.18,0,2.46-2.64,4.4-6.05,4.4-.09,0-.18,0-.34-.03l6.94,8.61h1.57v.62h-4.67Zm-1.5-15.95c-.74-1.08-1.63-1.4-3.71-1.4h-2.18v7.77h1.44c3.44,0,5.16-1.35,5.16-3.97,0-.92-.21-1.73-.71-2.4Z"/>
    <path class="cls-1" d="m512.69,72.24l-4.76,8.53v8.21h2.15v.62h-7.37v-.62h2.15v-7.61l-4.79-9.12h-1.66v-.65h7.18v.65h-2.21l3.99,7.91,4.45-7.91h-2.06v-.65h4.54v.65h-1.63Z"/>
  </g>
</svg>