<?xml version="1.0" encoding="utf-8"?>
<!-- Generator: Adobe Illustrator 27.2.0, SVG Export Plug-In . SVG Version: 6.00 Build 0)  -->
<svg version="1.1" id="Layer_1" xmlns="http://www.w3.org/2000/svg" xmlns:xlink="http://www.w3.org/1999/xlink" x="0px" y="0px"
	 viewBox="0 0 360 67" style="enable-background:new 0 0 360 67;" xml:space="preserve">
<style type="text/css">
	.st0{fill:#FFFFFF;}
	.st1{fill:#CCD95E;}
</style>
<g id="NA">
	<g id="PRL-M-Outerwear-LP" transform="translate(-541.000000, -21611.000000)">
		<g id="_x30_7-RLX" transform="translate(1.000000, 21046.000000)">
			<g id="img" transform="translate(168.000000, 120.000000)">
				<g id="rlx-logo" transform="translate(372.000000, 445.000000)">
					<path id="Path" class="st0" d="M264.1,50.5h-4.4V64h-18.1V50.5h-4.4V64c0,1.7,1.1,3,3,3H261c1.9,0,3.2-1,3.2-3V50.5H264.1z"/>
					<path id="Path_1_" class="st0" d="M333,67h4.4V53.5h18.1V67h4.4V53.4c0-1.7-1.1-3-3-3h-24V67H333z"/>
					<path id="Shape" class="st0" d="M23.3,60.4c2.4-0.6,3.2-3.1,3.4-4.9c0-1.8-1-3.5-2-4.3c-1.1-0.7-2.8-0.7-3.2-0.7H0V67h4.4v-6
						H19l3.1,6h4.8L23.3,60.4z M21.4,57.7c-0.6,0.4-1.2,0.2-1.6,0.2H4.4v-4.6h15.5c0.5,0,1,0,1.4,0.4c0.4,0.2,0.8,1.1,0.8,1.8
						C22.3,56.4,22,57.4,21.4,57.7"/>
					<path id="Shape_1_" class="st0" d="M292.9,60.4c2.4-0.6,3.2-3.1,3.4-4.9c0-1.8-1-3.5-2-4.3c-1.1-0.7-2.8-0.7-3.2-0.7h-21.4V67
						h4.4v-6h14.5l3.1,6h4.8L292.9,60.4z M290.9,57.7c-0.6,0.4-1.2,0.2-1.6,0.2H274v-4.6h15.5c0.5,0,1,0,1.4,0.4
						c0.4,0.2,0.8,1.1,0.8,1.8C291.8,56.4,291.5,57.4,290.9,57.7"/>
					<path id="Shape_2_" class="st0" d="M118,61c3.4,0,4.6-3.5,4.6-5.2c0-1.8-1-3.9-2.2-4.7c-1.2-0.7-2.6-0.6-3.1-0.6H95.9V67h4.4
						v-5.9L118,61z M117.1,57.7c-0.6,0.4-1.2,0.2-1.6,0.2h-15.4v-4.6h15.5c0.5,0,1,0,1.4,0.4c0.4,0.2,0.8,1.1,0.8,1.8
						C118.2,56.4,117.8,57.4,117.1,57.7"/>
					<path id="Shape_3_" class="st0" d="M58.8,54.9c0-1.4-0.6-2.7-1.6-3.5c-1.2-1-1.8-1.1-3.2-1.1H32v16.5h4.4V61h17.9v5.9h4.4
						L58.8,54.9L58.8,54.9z M54.4,58H36.5v-4.5h15.8c0.2,0,0.5,0,0.8,0.1c0.5,0.2,1.2,1,1.2,1.8C54.4,56.2,54.4,58,54.4,58"/>
					<path id="Shape_4_" class="st0" d="M232.3,54.9c0-1.2-0.6-2.7-1.6-3.5c-1.2-1-1.7-1.1-3.2-1.1h-22v16.5h4.4V61h17.9v5.9h4.4
						v-12H232.3z M227.8,58h-17.9v-4.5h15.8c0.2,0,0.5,0,0.8,0.1c0.5,0.2,1.2,1,1.2,1.8C227.9,56.2,227.8,58,227.8,58"/>
					<path id="Path_2_" class="st0" d="M68.5,64V50.5h-4.4V64c0,1.9,1.1,2.9,2.8,2.9h24.2v-3L68.5,64L68.5,64z"/>
					<path id="Path_3_" class="st0" d="M178,64V50.5h-4.4V64c0,1.9,1.1,2.9,2.8,2.9h24.1v-3L178,64L178,64z"/>
					<path id="Path_4_" class="st0" d="M328,57.1h-22.6v-3.7H328v-3h-23.5c-2,0-3.5,0.8-3.5,3.1v10.6c0,1.6,1.3,2.8,2.6,2.8h24.2v-3
						h-22.6v-3.7h22.6L328,57.1z"/>
					<polygon id="Path_5_" class="st0" points="149.5,50.4 149.5,58 131.6,58 131.6,50.4 127.2,50.4 127.2,67 131.6,67 131.6,61 
						149.5,61 149.5,67 154.2,67 154.2,50.4 					"/>
					<polygon id="Path_6_" class="st1" points="342.1,0.1 322.8,11.7 303.5,0.1 286.1,0 314.3,16.9 286,34 302.6,34 322.8,21.9 
						343.1,34 360,34 331.3,16.9 359.6,0 					"/>
					<path id="Shape_5_" class="st0" d="M146.4,33.9h12.1V22.7h39.6l8.4,11.4h13.1l-9.5-12.8c6.4-1.4,9.5-5.5,9.5-9.8
						c0-3.7-2.2-6.6-4.9-8.3c-4.7-2.9-11-2.9-16.1-2.9h-40h-7.8h-4.4L146.4,33.9L146.4,33.9z M205.1,8.3c0.7,0.4,2.3,1.1,2.3,3
						c0,1.7-0.7,2.5-3.1,3.3c-1.7,0.6-3.6,0.6-8,0.6h-37.6V7.6h38.2C199.8,7.6,203.2,7.5,205.1,8.3"/>
					<path id="Path_7_" class="st0" d="M298.6,26.4h-61.7l-0.1-26.1h-12.4l0.1,27.7c0,3.4,2,6,5.4,6h56.3L298.6,26.4z"/>
				</g>
			</g>
		</g>
	</g>
</g>
</svg>
