<?xml version="1.0" encoding="utf-8"?>
<!-- Generator: Adobe Illustrator 25.2.0, SVG Export Plug-In . SVG Version: 6.00 Build 0)  -->
<svg version="1.1" id="Layer_1" xmlns="http://www.w3.org/2000/svg" xmlns:xlink="http://www.w3.org/1999/xlink" x="0px" y="0px"
	 viewBox="0 0 136 26.5" style="enable-background:new 0 0 136 26.5;" xml:space="preserve">
<style type="text/css">
	.st0{fill:#FFFFFF;}
</style>
<g>
	<g>
		<path class="st0" d="M17.3,10.1c1.2,0.4,2,2.1,2,3.3c0,1.3-0.8,2.8-0.9,4.7c0,0.6,0.1,0.9,0.6,0.9c0.7,0,1.6-0.9,2.4-1.7
			c1-1,2-2.2,2.1-2.2s0.2,0.1,0.2,0.1c0,0.1-1,1.3-1.8,2c-1.2,1.2-2.1,2.1-3.1,2.1c-1.4,0-2-1.8-2-2.8c0-1.6,0.8-3.4,0.9-4.9
			c0-1-0.3-1.5-1.1-1.5c-0.3,0-0.6,0.1-0.9,0.1c-0.4,0-0.6-0.2-0.6-0.4c0-0.3,0.2-0.4,0.7-0.4c0.4,0,1.1,0.2,1.4,0.3
			c1.3,0,4.3-2,4.3-5.4c0-1.2-0.4-2.3-1.4-2.9c-3.5,2.9-4.1,6.2-6.5,10c-2.7,4.3-6.3,7.8-10.4,7.8C2,19.3,0,18.8,0,17.1
			c0-0.8,0.4-1.2,1.1-1.2c0.6,0,1,0.4,1,0.9s-0.3,1-0.3,1.1c0,0.5,0.5,1,1.6,1c7.9,0,7.4-11.3,16.4-17.7c-1.4-0.6-2.7-0.9-4.5-0.9
			C6.8,0.3,1.4,6,1.4,9.2c0,1.9,0.8,2.7,2.1,2.7c3.8,0,8-5.1,9.1-9.5c0.1-0.4,0.1-0.6,0.2-0.6c0.1,0,0.1,0,0.1,0.2
			c0,2-2.5,10.3-9.4,10.3c-1.5,0-2.6-1.2-2.6-3c0-3.7,5.5-9.4,14.2-9.4c1.7,0,3.4,0.4,4.9,1C20.8,0.6,21.6,0,21.9,0
			C22,0,22,0.1,22,0.2c0,0.2-0.5,0.2-1.4,0.9c1.4,0.7,2.5,2.2,2.5,3.8C23.2,7.6,19.8,9.7,17.3,10.1L17.3,10.1z"/>
		<path class="st0" d="M25.2,18.9c1.6,0,5.1-3.9,5.1-6c0-0.6-0.3-1-0.9-1c-2.2,0-4.8,4.1-4.9,6.1C24.6,18.6,24.8,18.9,25.2,18.9
			 M33.5,11.8c-0.8,0.9-4,5.8-4,6.8c0,0.2,0.1,0.4,0.5,0.4c0.8,0,2.3-1.4,3.9-3.3c0.3-0.4,0.4-0.4,0.4-0.4c0.1,0,0.2,0.1,0.2,0.2
			c0,0.1-0.9,1-1.5,1.7c-1.3,1.3-2.3,2.2-3.1,2.2c-0.7,0-1.2-0.4-1.2-1.9c0-0.2,0-0.4,0-0.5c-0.8,0.8-2.4,2.4-3.4,2.4
			c-1.4,0-1.7-1.3-1.7-2.5c0-0.4,0.1-0.9,0.1-1.3c0,0-0.1,0.1-0.2,0.1s-0.1-0.1-0.1-0.1c0-0.1,0.1-0.1,0.5-0.6
			c1.5-1.8,3.7-3.2,5.6-3.2c0.8,0,1.2,0.6,1.2,1.4c0,0.3,0,0.6-0.1,0.7V14c1-1.6,1-1.9,1.5-1.9L33.5,11.8z"/>
		<path class="st0" d="M44.7,2.8c-7.2,11.2-9.5,14.6-9.5,15.8c0,0.2,0.2,0.4,0.4,0.4c0.8,0,1.8-0.7,3.2-2.1c1.2-1.3,1.4-1.7,1.6-1.7
			c0.1,0,0.1,0.1,0.1,0.1c0,0.1-0.7,0.8-1,1.2c-1.6,1.7-2.9,2.7-3.9,2.7c-0.9,0-1.2-0.7-1.2-1.4c0-1.6,0.9-2.4,2.8-5.5v-0.1
			c-0.5,0.5-0.9,1.1-1.8,2.1c-1,1.1-1.2,1.3-1.3,1.3S34,15.5,34,15.5c0-0.2,3-3,5.7-7.3L43,3L44.7,2.8z"/>
		<path class="st0" d="M48,6.9l-5.9,9.9v0.1c1-1.2,4.2-5.1,5.9-5.1c0.7,0,1,0.7,1,1.4c0,1.7-3,4.1-3,5.5c0,0.2,0.2,0.4,0.4,0.4
			c0.6,0,1.5-0.4,3.2-2.4c1.1-1.2,1.2-1.4,1.3-1.4s0.1,0.1,0.1,0.1c0,0.1-0.1,0.1-0.9,1c-1.9,2.2-3,2.9-3.8,2.9
			c-0.9,0-1.2-0.7-1.2-1.8c0-2.2,3-4.1,3-5.2c0-0.2-0.2-0.4-0.3-0.4c-1,0-5.1,3.3-9.2,10.3l-2.3,4l-1.8,0.1L44,11v-0.1
			c-1.4,1.7-3.7,4.5-3.8,4.5S40,15.3,40,15.3c0-0.1,0.1-0.1,1.6-2c2.6-3.2,2.8-3.4,4.8-6.4H48z"/>
		<path class="st0" d="M49.8,19.4c1.5-2.7,3.1-5.1,4.6-7.4v-0.1c-0.8,0.8-1.2,1.4-2.2,2.5c-1.2,1.3-1.2,1.4-1.3,1.4
			s-0.1-0.1-0.1-0.2c0-0.3,3.3-3.2,5.7-7.4l3-5.1l1.7-0.2c-1,1.8-6.2,10.1-8.1,13.6l0,0c2.7-3,4.7-4.7,5.6-4.7
			c0.8,0,1.1,0.7,1.1,1.4c0,1.5-3,4.3-3,5.5c0,0.2,0.1,0.4,0.4,0.4c0.8,0,1.7-0.8,3.2-2.4c0.6-0.6,1.3-1.5,1.4-1.5
			c0.1,0,0.1,0.1,0.1,0.1c0,0.1-0.7,0.8-1.4,1.6c-2,2.1-2.9,2.4-3.5,2.4c-0.5,0-1.1-0.3-1.1-1.5c0-2.4,3-4.3,3-5.4
			c0-0.2-0.2-0.4-0.3-0.4c-1.5,0-6.5,5.6-7.3,7.1L49.8,19.4z"/>
		<path class="st0" d="M68.7,19.3c1.5,0,3.2-0.4,4.3-1.4c-1.8-0.6-3.5-1.1-5-1.2c-1.2,0-1.9,0.5-1.9,1.1
			C66.1,18.7,67.3,19.3,68.7,19.3 M88.4,0.7c-2.5,0-5,3.3-7.7,8.5c4.5-1.5,8.6-5.6,8.7-7.7C89.4,1.1,88.9,0.7,88.4,0.7 M83.2,17.7
			c1.5-1.2,2.2-2.2,2.3-2.2c0.1,0,0.2,0.1,0.2,0.1c0,0.2-0.6,0.7-1.6,1.9c-1.1,1.2-3.1,2.3-5.2,2.3c-2,0-3.6-0.8-5.4-1.6
			c-1.5,0.9-3,1.5-4.8,1.5c-1.3,0-3-0.5-3-1.8c0-0.5,0.7-1.4,2.5-1.4c1.2,0,2.7,0.3,5.3,1.1c2.3-1.9,3.5-4.8,4.8-7.3
			c-2.6,0.5-4.4,1.1-4.6,1.1c-0.1,0-0.1-0.1-0.1-0.1c0-0.2,0.7-0.2,5-1.3c2.7-4.9,7.3-9.4,9.8-9.4c0.7,0,1.3,0.4,1.3,1.2
			c0,1.8-3.1,5.8-9.1,8.1c-1.5,2.8-3.8,6.4-6.5,8.1c1.8,0.5,3.7,1.1,5.3,1.1C81.1,18.9,82.2,18.6,83.2,17.7"/>
		<path class="st0" d="M87.1,19.2c1.6,0,5.1-3.9,5.1-6c0-0.6-0.3-1-0.8-1c-2.2,0-4.8,4.1-4.8,6.1C86.5,18.9,86.7,19.2,87.1,19.2
			 M95.3,12.1c-0.8,0.9-4,5.8-4,6.8c0,0.2,0.1,0.4,0.5,0.4c0.8,0,2.3-1.4,3.9-3.3c0.3-0.4,0.4-0.4,0.4-0.4c0.1,0,0.2,0.1,0.2,0.2
			c0,0.1-0.9,1-1.5,1.7c-1.3,1.3-2.3,2.2-3.1,2.2s-1.2-0.4-1.2-1.9c0-0.2,0-0.4,0-0.5c-0.8,0.8-2.4,2.4-3.4,2.4
			c-1.4,0-1.7-1.3-1.7-2.5c0-0.4,0.1-0.9,0.1-1.3c-0.1,0-0.1,0.1-0.2,0.1s-0.1-0.1-0.1-0.1c0-0.1,0.1-0.1,0.4-0.6
			c1.5-1.8,3.7-3.2,5.6-3.2c0.8,0,1.2,0.6,1.2,1.4c0,0.3,0,0.6-0.1,0.7l0.1,0.1c1-1.6,0.9-1.9,1.5-1.9L95.3,12.1z"/>
		<path class="st0" d="M101.2,12c-3.4,5.4-4,5.8-4,6.8c0,0.3,0.2,0.5,0.5,0.5c1.4,0,5.1-4.2,6.9-7.2l1.8-0.1
			c-0.8,1.3-4.2,5.6-4.2,6.8c0,0.3,0.1,0.5,0.5,0.5s1.3-0.5,2.6-1.9c1.7-1.7,1.6-1.8,1.8-1.8c0.1,0,0.1,0.1,0.1,0.1
			c0,0.1-1,1.2-1.6,1.8c-1.4,1.4-2.3,2.1-3,2.1c-1,0-1.2-1.1-1.2-1.8c0-0.4,0.1-0.7,0.2-1l-0.1-0.1c-0.8,0.9-2.5,2.9-3.8,2.8
			c-0.9,0-1.3-0.7-1.3-1.5c0-2.1,1.8-3.6,2.9-5.1l-0.1-0.1c-0.8,0.6-1.7,1.6-2.5,2.5c-0.4,0.4-0.4,0.5-0.5,0.5s-0.1-0.1-0.1-0.2
			c0-0.1,0.1-0.2,1.4-1.6c0.6-0.6,1.3-1.3,2.2-2.1L101.2,12z"/>
		<path class="st0" d="M107.2,19.7c2.8-4.5,4.3-6.2,4.3-6.9c0-0.2-0.2-0.4-0.5-0.4c-0.4,0-1.1,0.3-2.2,1.4c-1.7,1.7-1.9,2.2-2.1,2.2
			c-0.1,0-0.1-0.1-0.1-0.1c0-0.1,0.9-1.1,1.6-1.9c1.2-1.3,2-1.9,2.8-1.9c0.7,0,1.1,0.6,1.1,1.3c0,1.1-1.2,3-1.8,3.7h0.1
			c1.5-1.7,2.8-2.6,3.1-3.3c0.3-0.8,0.9-1.7,1.8-1.7c0.5,0,0.7,0.1,0.7,0.4c0,1.1-3.1,1.9-3.1,3.8c0,0.5,0.4,0.9,0.9,0.9
			c0.4,0,0.9-0.2,1.2-0.5c0.6-0.6,0.8-1,0.9-1s0.2,0.1,0.2,0.1c0,0.1-0.4,0.6-0.7,0.9c-0.6,0.6-1.2,0.9-1.7,0.8
			c-0.6,0-1.2-0.4-1.2-1.1c0-0.6,0.2-1.1,0.6-1.5l-0.1-0.1c-1.4,1.3-2.8,2.9-4.2,4.7L107.2,19.7z"/>
		<path class="st0" d="M117.4,16.7c1.8-0.2,4.7-1.8,4.8-3.7c0-0.4-0.2-0.5-0.6-0.5C120.2,12.4,117.8,15.2,117.4,16.7 M117.3,17
			c-0.1,0.3-0.1,0.6-0.1,0.9c0,1.1,0.3,1.4,1.2,1.5c0.7,0,2.2-0.5,3.9-2.2c1.1-1.1,1.4-1.6,1.5-1.6s0.1,0.1,0.1,0.2
			s-1.1,1.4-1.9,2.1c-1.4,1.3-2.5,1.8-3.8,1.8c-1.5,0-2.2-1.5-2.2-2.9c0-0.4,0.1-0.7,0.1-0.8c0-0.1,0-0.1,0-0.1L116,16
			c0,0-0.1-0.1-0.1-0.2c0-0.1,0.8-0.9,1-1.2c1.5-1.5,3.3-2.6,4.8-2.6c0.8,0,1.4,0.6,1.4,1.3C123,15.5,118.9,16.7,117.3,17"/>
		<path class="st0" d="M123.8,19.8c0.5-1,4.4-6,4.4-6.9c0-0.3-0.2-0.4-0.4-0.4c-0.8,0-1.5,0.6-2.9,2.1c-1.3,1.4-1.3,1.5-1.4,1.5
			s-0.1-0.1-0.1-0.2c0-0.1,0.7-0.9,1.1-1.3c1.3-1.5,2.4-2.5,3.5-2.5c0.7,0,1,0.5,1,1.4c0,1.1-1.2,2.7-1.8,3.5h0.1
			c1.1-1,4.3-4.8,5.7-4.8c0.7,0,1,0.7,1,1.3c0,0.9-0.6,1.7-1,2.4c-1.2,1.7-1.9,2.6-1.9,3.1c0,0.3,0.2,0.5,0.4,0.5
			c0.6,0,1.8-1,2.9-2.2c1.4-1.5,1.3-1.6,1.5-1.6c0.1,0,0.1,0.1,0.1,0.1c0,0.1-1.4,1.7-1.7,2c-1.2,1.2-2.2,1.9-2.8,1.9
			c-0.8,0-1.2-0.8-1.2-1.8c0-2.2,3-4.5,3-5.2c0-0.2-0.1-0.3-0.4-0.3c-1.3,0-6.3,5.8-7.2,7.1L123.8,19.8z"/>
	</g>
</g>
</svg>
