<?xml version="1.0" encoding="utf-8"?>
<!-- Generator: Adobe Illustrator 26.0.2, SVG Export Plug-In . SVG Version: 6.00 Build 0)  -->
<svg version="1.1" id="Layer_1" xmlns="http://www.w3.org/2000/svg" xmlns:xlink="http://www.w3.org/1999/xlink" x="0px" y="0px"
	 viewBox="0 0 305.3 45.4" style="enable-background:new 0 0 305.3 45.4;" xml:space="preserve">
<style type="text/css">
	.st0{fill:#FFFFFF;}
</style>
<g id="Group" transform="translate(0.000000, 20.000000)">
	<g id="text" transform="translate(555.000000, 163.000000)">
		<g id="K226PL001" transform="translate(15.000000, 30.000000)">
			<path id="Shape" class="st0" d="M-570-211.7h31.7c2.8,0,5.1,1,7,2.9c1.9,1.9,2.9,4.3,2.9,7v7.4c0,2.7-1,5.1-2.9,7
				c-1.9,1.9-4.3,2.9-7,2.9h-25.7v16.8h-6.1V-211.7z M-563.9-206.3v16.4h24.2c1.5,0,2.8-0.5,3.8-1.5c1-1,1.5-2.3,1.5-3.8v-5.8
				c0-1.5-0.5-2.8-1.5-3.8c-1-1-2.3-1.5-3.8-1.5L-563.9-206.3L-563.9-206.3z"/>
			<path id="Path" class="st0" d="M-485.4-167.6c-2.7,0-5.1-1-7-2.9c-1.9-2-2.9-4.3-2.9-7v-34.2h6.1v33.4c0,1.5,0.5,2.8,1.5,3.8
				c1,1,2.3,1.5,3.8,1.5h27.4v5.5H-485.4z"/>
			<path id="Shape_00000176759692341326675780000013493954997681728147_" class="st0" d="M-430.5-211.7h7.3l20.9,44.1h-6.8
				l-6.3-13.5h-22.9l-6.3,13.5h-6.8L-430.5-211.7z M-426.9-205.7l-8.9,19h17.7L-426.9-205.7z"/>
			<polygon id="Path_00000080196487707830723860000006007128969656988559_" class="st0" points="-408.1,-211.7 -400.3,-211.7 
				-385.6,-191.8 -371,-211.7 -363.1,-211.7 -382.6,-186.6 -382.6,-167.6 -388.7,-167.6 -388.7,-186.6 			"/>
			<path id="Path_00000116933541062017621420000013677492479193252268_" class="st0" d="M-347.4-211.7h32.2v5.6H-346
				c-1.5,0-2.8,0.5-3.8,1.5c-1,1-1.5,2.2-1.5,3.8v7.7h30v5.6h-30v9.2c0,1.5,0.5,2.8,1.5,3.8c1,1,2.3,1.5,3.8,1.5h30.8v5.6h-32.2
				c-2.7,0-5.1-1-7-2.9c-1.9-2-2.9-4.3-2.9-7v-24.2c0-2.8,1-5.1,2.9-7C-352.5-210.8-350.1-211.7-347.4-211.7z"/>
			<path id="Shape_00000133525229879388232020000004880273131835554712_" class="st0" d="M-282-185.9h-18.3v18.3h-6.1v-44.1h31.7
				c2.8,0,5.1,1,7,2.9c1.9,1.9,2.9,4.3,2.9,7v5.9c0,2.7-1,5.1-2.9,7c-1.9,1.9-4.3,2.9-7,2.9h-1l10.9,18.3h-6.8L-282-185.9z
				 M-300.3-206.3v14.9h24.2c1.5,0,2.8-0.5,3.8-1.5c1-1,1.5-2.3,1.5-3.8v-4.3c0-1.5-0.5-2.8-1.5-3.8c-1-1-2.3-1.5-3.8-1.5
				L-300.3-206.3L-300.3-206.3z"/>
			<path id="Shape_00000129167248879262314420000005747464783983242686_" class="st0" d="M-503.4-191.1c0,0-0.1,0-0.1-0.1
				c-0.2-0.1-0.3-0.2-0.4-0.3c-0.1-0.1-0.3-0.3-0.4-0.4c-0.2-0.2-0.5-0.2-0.8-0.2c-0.2,0-0.4,0.1-0.5,0.3c-0.2-0.1-0.2-0.1-0.3,0
				c-0.1,0.1-0.1,0.2-0.1,0.3c-0.2-0.1-0.4-0.1-0.5,0.1c-0.1-0.1-0.3-0.2-0.4-0.3c-0.3-0.2-0.6-0.4-0.9-0.6
				c-0.4-0.2-0.8-0.2-1.2-0.3c-0.1,0-0.2-0.1-0.2-0.2c0-0.1-0.1-0.2-0.1-0.2c-0.2-0.3-0.4-0.3-0.7-0.4c-0.1,0-0.1,0-0.2-0.2
				c0,0,0-0.1,0-0.1c-0.1-0.1-0.1-0.2-0.2-0.3c-0.1-0.3-0.2-0.6-0.4-0.9c-0.1-0.3-0.2-0.6-0.5-0.8c0,0,0-0.1,0-0.1
				c0-0.2,0-0.4-0.2-0.6c0,0,0,0,0-0.1c0-0.1,0-0.3,0-0.4c0-0.2,0-0.3-0.1-0.4c0-0.1-0.1-0.1-0.1-0.2c0-0.2,0-0.4-0.1-0.6
				c-0.1-0.1-0.2-0.2-0.2-0.4c-0.1-0.2-0.1-0.3-0.1-0.5c0-0.2-0.1-0.4-0.1-0.7c0-0.1,0-0.3,0-0.4c0,0,0-0.1,0-0.1
				c0.1-0.1,0.3-0.2,0.4-0.2c0.3-0.1,0.4-0.4,0.5-0.7c0,0,0-0.1,0-0.1c0-0.1-0.1-0.2-0.1-0.3c-0.2-0.3-0.3-0.6-0.5-0.9
				c-0.1-0.1-0.2-0.2-0.3-0.4c0-0.1-0.1-0.1-0.1-0.1c-0.1,0-0.2-0.1-0.2-0.1c-0.2-0.1-0.4-0.2-0.6-0.3c-0.2-0.1-0.4-0.3-0.6-0.5
				c-0.2-0.1-0.3-0.2-0.5-0.3s-0.4,0-0.6,0.1c-0.2,0.1-0.3,0.1-0.4-0.1c-0.1-0.1-0.3-0.1-0.4,0c-0.1,0.1-0.2,0.1-0.3,0.2
				c0,0,0-0.1,0-0.1c0-0.1,0-0.3,0-0.4c0-0.1-0.1-0.2-0.1-0.3c0-0.1,0-0.2,0-0.2c0.1-0.2,0.1-0.3,0-0.5c0-0.1-0.1-0.2-0.1-0.3
				c0,0,0-0.1,0-0.1c0,0,0,0-0.1-0.1c2.6-2.3,3.3-3.2,5.9-5.4c0,0,0,0,0,0c0.2,0.3,0.3,0.6,0.5,0.9c0,0.1,0.1,0.1,0.2,0.2
				c0.3,0,0.5-0.1,0.6-0.3c0.1-0.1,0.1-0.2,0-0.3c-0.4-0.9-0.8-1.7-1.3-2.6c0,0-0.1-0.1-0.1-0.1c-0.3-0.1-0.6,0.1-0.7,0.3
				c0,0.1,0,0.1,0,0.2c0,0.1,0.1,0.2,0.1,0.3c0.1,0.3,0.2,0.5,0.3,0.8c-2.7,2.4-3.4,3.3-6.1,5.7c-0.1-0.2-0.3-0.2-0.5-0.3
				c-0.3-0.1-0.6-0.1-0.9,0c-0.4,0.1-0.6,0.3-0.9,0.6c-0.3,0.3-0.4,0.7-0.2,1.1c0.1,0.2,0.1,0.4,0,0.6c0,0.1,0,0.2,0.1,0.3
				c-0.3,0.3-0.7,0.6-1,0.9c-0.1,0.1-0.2,0.1-0.3,0.1c-0.1,0-0.1,0-0.2,0c-0.1,0-0.2,0.1-0.2,0.2c0,0,0,0,0,0
				c-0.1,0.1-0.1,0.2,0,0.2c0,0,0,0.1,0,0.1c-0.1,0.1-0.1,0.3,0,0.4c0,0,0,0.1,0,0.1c0,0.1,0,0.2,0,0.3c0,0.3,0.3,0.5,0.5,0.7
				c0.2,0.1,0.3,0.2,0.5,0.4c0.1,0,0.1,0.1,0,0.2c-0.3,0.2-0.5,0.3-0.7,0.6c-0.3,0.3-0.5,0.6-0.5,1.1c0,0.1,0,0.2-0.1,0.3
				c-0.1,0.2-0.2,0.3-0.3,0.5c-0.1,0.2-0.3,0.3-0.4,0.5c-0.2,0.5-0.4,0.9-0.7,1.4c-0.1,0.1,0,0.3,0.1,0.4c0.1,0,0.1,0.1,0.2,0.2
				c0.2,0.2,0.5,0.3,0.8,0.4c0.1,0,0.2,0,0.2,0.1c0,0,0,0,0,0c0.2,0.2,0.5,0.1,0.7,0c0,0.1,0,0.1,0.1,0.2c0,0.2,0,0.5,0.1,0.7
				c0.1,0.4,0.2,0.9,0.3,1.3c0.2,0.7,0.5,1.4,0.8,2.2c0.1,0.3,0.3,0.6,0.4,0.8c0,0,0,0.1,0,0.1c-0.1,0.2-0.2,0.5-0.1,0.7
				c0,0.1,0.1,0.3,0.1,0.4c0,0.1,0,0.2,0,0.3c-0.1,0.2-0.1,0.3-0.2,0.5c0,0.1,0,0.2,0,0.3c0,0.3,0,0.6,0.1,0.9
				c0.1,0.3,0.2,0.6,0.4,0.9c0.1,0.3,0.2,0.6,0.2,0.9c0,0.3-0.1,0.6-0.1,0.9c-0.1,0.6-0.3,1.2-0.4,1.8c-0.1,0.4-0.2,0.8-0.3,1.2
				c-0.1,0.2-0.1,0.4-0.2,0.6c-0.1,0.3,0,0.6,0,0.9c0,0.2,0,0.4,0,0.6c0,0.2,0,0.4,0,0.6c0,0.2,0,0.3,0,0.5c0,0.1,0.1,0.3,0.1,0.4
				c0.1,0.5,0.2,0.9,0.3,1.4c0.1,0.5,0.1,0.9,0.2,1.4c0,0.1,0.1,0.2,0.1,0.3c0.1,0.1,0.2,0.2,0.3,0.2c0.4,0.3,0.8,0.5,1.2,0.8
				c0,0,0.1,0.1,0.1,0.1c0.2,0.1,0.4,0.2,0.5,0.3c0.2,0.1,0.4,0.1,0.6,0c0.1,0,0.1-0.1,0.1-0.2c0.1-0.4,0-0.8-0.2-1.1
				c-0.1-0.2-0.3-0.3-0.5-0.4c-0.1,0-0.2,0-0.2,0c0,0-0.1,0.1-0.1,0.1c-0.1,0.1-0.3,0.2-0.4,0.1c-0.2-0.1-0.3-0.3-0.3-0.5
				c0-0.2-0.1-0.3-0.2-0.4c-0.1-0.2-0.2-0.4-0.3-0.6c-0.1-0.3-0.1-0.5-0.2-0.8c-0.1-0.4-0.1-0.8,0-1.2c0-0.3,0.1-0.5,0.1-0.8
				c0-0.2,0-0.4,0-0.7c0-0.4,0.1-0.8,0.4-1.1c0.2-0.3,0.4-0.5,0.6-0.8c0.3-0.3,0.6-0.6,0.9-1c0.2-0.2,0.4-0.4,0.6-0.6
				c0.1-0.1,0.3-0.2,0.4-0.3c0,0,0.1,0,0.1,0c0.3,0.2,0.7,0.4,1.1,0.5c0.2,0,0.4,0.1,0.6,0.1c0.1,0.1,0.1,0.3,0.2,0.5
				c0,0,0,0.1,0,0.2c0,0.2,0,0.4,0,0.6c0,0.3,0,0.5,0,0.8c0,0.3-0.1,0.7-0.2,1c0,0.1-0.1,0.3-0.1,0.4c0,0.2,0,0.5,0,0.7
				c0,0.4,0.2,0.8,0.4,1.1c0.3,0.4,0.5,0.8,0.7,1.2c0.1,0.1,0.1,0.2,0.2,0.3c0,0,0,0.1,0,0.1c-0.1,0.3-0.2,0.5-0.3,0.8
				c-0.1,0.2-0.2,0.3-0.2,0.5c-0.1,0.1-0.1,0.3-0.2,0.4c0,0.3,0,0.6,0,0.9c0,0.1,0,0.3-0.2,0.4c-0.2,0.1-0.3,0.3-0.3,0.5
				c0,0.1,0,0.2-0.1,0.3c0,0.2-0.1,0.4-0.1,0.6c0,0.2,0.2,0.5,0.4,0.4c0,0,0.1,0,0.1-0.1c0.1,0,0.1-0.1,0.2-0.1
				c0.3-0.2,0.5-0.4,0.8-0.6c0,0,0-0.1,0.1-0.1c0-0.2,0-0.3-0.1-0.5c0-0.1-0.1-0.2-0.1-0.3c0-0.2,0.1-0.3,0.2-0.4
				c0.1-0.1,0.2-0.2,0.2-0.4c0-0.2,0-0.3,0-0.5c0.1-0.4,0.2-0.8,0.4-1.1c0-0.1,0.1-0.1,0.1-0.1c0.2,0,0.4,0,0.5-0.3
				c0,0,0-0.1,0.1-0.2c0.1-0.2,0.3-0.4,0.4-0.5c0,0,0.1-0.1,0.1-0.1c0.1-0.2,0.1-0.7-0.1-0.9c-0.1-0.1-0.2-0.2-0.3-0.1
				c0,0-0.1,0-0.1,0c0,0,0-0.1,0-0.1c0.1-0.3,0.2-0.5,0.3-0.7c0.1-0.2,0.2-0.5,0.1-0.7c0-0.2-0.1-0.4-0.1-0.6
				c-0.1-0.7-0.2-1.3-0.3-2c-0.1-0.5-0.2-1-0.3-1.5c0,0,0-0.1,0-0.1c0.1-0.2,0.1-0.4,0.2-0.6c0.1-0.1,0.1-0.3,0-0.4
				c0-0.1-0.1-0.1-0.1-0.2c0.3-0.1,0.5-0.2,0.7-0.5c0-0.1,0.3-0.1,0.3,0c0,0,0,0,0,0c0,0.2,0.1,0.3,0.1,0.5c0,0.3,0,0.6,0.1,0.9
				c0,0.3,0.1,0.6,0.2,0.9c0,0,0,0.1,0.1,0.1c0.1,0.1,0.3,0.1,0.4,0c0.1-0.1,0.2-0.2,0.3-0.4c0.2-0.4,0.4-0.8,0.5-1.2
				c0,0,0-0.1,0-0.2c0-0.1,0.1-0.1,0.1,0c0,0,0.1,0,0.1,0.1c0.3,0.3,0.4,0.7,0.5,1.1c0,0.3,0,0.6,0,0.9c0,0.3,0,0.5-0.1,0.7
				c0,0.2,0,0.4-0.1,0.6c-0.1,0.3-0.1,0.7,0,1c0,0.1,0,0.1,0.1,0.2c0,0.2,0,0.4,0,0.6c0,0.8-0.2,1.6-0.5,2.4
				c-0.1,0.1-0.1,0.3-0.1,0.4c0,0.3,0,0.5,0.1,0.7c0.1,0.1,0.1,0.2,0,0.4c-0.1,0.1-0.1,0.2-0.1,0.4c0,0.1,0,0.2,0,0.3
				c0,0.3-0.1,0.5-0.1,0.8c0,0.1,0,0.3,0.2,0.3c0.1,0,0.2,0,0.2,0c0.3-0.1,0.5-0.2,0.7-0.4c0.2-0.3,0.3-0.6,0.2-0.9
				c-0.1-0.1-0.1-0.3-0.2-0.4c0-0.1-0.1-0.2-0.1-0.3c0-0.1,0-0.3,0.2-0.3c0.2-0.1,0.2-0.2,0.2-0.4c0-0.2,0-0.3,0-0.5
				c0-0.4,0.1-0.8,0.2-1.1c0.1-0.5,0.2-1,0.2-1.5c0-0.2,0.1-0.5,0.2-0.7c0.1-0.2,0.1-0.3,0.1-0.5c0-0.4,0-0.9,0-1.3
				c0.1-0.8,0.2-1.5,0.3-2.3c0-0.3,0.1-0.7,0.3-1c0.2-0.5,0.4-1,0.6-1.6c0.2-0.5,0.2-1.1,0.2-1.6c0-0.3-0.1-0.7-0.1-1
				c0-0.3-0.1-0.5-0.3-0.8c-0.2-0.3-0.3-0.5-0.5-0.8c-0.1-0.2-0.3-0.4-0.5-0.6c0,0-0.1-0.1-0.1-0.1c0.1,0,0.2,0,0.2-0.1
				c0,0,0.1-0.1,0.1-0.2c0.2,0.1,0.3,0.1,0.4-0.1c0.1,0,0.3,0.1,0.4,0.2c0.1,0.1,0.2,0.1,0.3,0.2c0.2,0.1,0.5,0.3,0.7,0.4
				c0.2,0.1,0.4,0,0.6-0.1c0.1-0.1,0.2-0.2,0.2-0.4C-503.2-191-503.3-191-503.4-191.1z M-518.6-191c0,0.1-0.1,0.3-0.1,0.4
				c0,0,0-0.1-0.1-0.1c-0.4-0.6-0.6-1.2-0.8-1.9c-0.2-0.7-0.3-1.4-0.3-2.1c0-0.2,0-0.4,0.2-0.5c0.1,0,0.1-0.1,0.2-0.2
				c0.1,0,0.1-0.1,0.2-0.1c0.1,0,0.1,0,0.1,0.1c0,0.3,0.1,0.6,0.2,0.8c0,0.2,0,0.4,0.1,0.6c0,0.3,0.1,0.5,0.1,0.7
				c0.1,0.4,0.2,0.8,0.3,1.3c0,0.1,0,0.1,0,0.2C-518.5-191.4-518.5-191.2-518.6-191z M-517-202c-0.2,0.4-0.2,0.8-0.1,1.2
				c0,0.1,0,0.1-0.1,0.2c-0.1,0-0.3,0.1-0.4,0.2c-0.1,0.1-0.2,0.2-0.2,0.2c0,0-0.1,0.1-0.1,0.1c-0.1,0.1-0.2,0-0.3-0.1
				c0,0,0,0,0-0.1c0.1-0.3,0.2-0.6,0.2-0.9c0-0.1-0.1-0.1-0.2-0.1c0,0-0.1,0-0.1,0c-0.2,0.2-0.4,0.4-0.6,0.5c-0.1,0.1-0.3,0.1-0.4,0
				c0,0-0.1-0.1-0.1-0.2c0-0.2-0.2-0.4-0.3-0.6c-0.1-0.1-0.2-0.2-0.2-0.3c-0.1-0.1-0.1-0.1-0.2-0.2c0-0.1,0-0.1,0-0.2
				c0.3-0.3,0.7-0.6,1-0.9c0,0,0.1,0,0.1-0.1c0.1,0,0.2-0.1,0.2,0c0,0.1,0.1,0.1,0.1,0.2c0,0.1,0.1,0.1,0.2,0.1
				c0.2,0,0.2,0.1,0.3,0.2c0.1,0.1,0.1,0.2,0.2,0.3c0.1,0.2,0.3,0.2,0.5,0.1c0.1-0.1,0.2-0.2,0.3-0.2c0,0,0,0,0.1,0c0,0,0,0,0,0.1
				C-517-202.2-517-202.1-517-202z M-515.4-195.3c0,0.1-0.1,0.2-0.1,0.3c0,0.1,0,0.1,0,0.2c0,0,0,0.1,0,0.2c-0.1,0-0.1-0.1-0.1-0.1
				c-0.1-0.3-0.2-0.6-0.2-0.8c-0.1-0.3-0.1-0.6-0.2-0.9c-0.1-0.3-0.2-0.5-0.2-0.8c-0.1-0.3-0.2-0.6-0.3-0.9
				c-0.1-0.2-0.2-0.5-0.2-0.7c0,0,0,0,0,0c0.1,0.1,0.2,0.2,0.2,0.3c0,0.1,0.1,0.1,0.1,0.2c0,0,0.1,0.1,0.2,0.1
				c0.2,0,0.3,0.1,0.4,0.3c0,0.1,0.1,0.3,0.2,0.4c0.1,0.2,0.2,0.4,0.3,0.6c0,0.1,0.1,0.2,0,0.3c-0.1,0.2,0,0.4,0,0.6
				c0,0,0,0.1,0.1,0.1C-515.3-195.7-515.4-195.5-515.4-195.3z M-511.7-176.5c0,0,0,0.1,0,0.1c-0.2-0.1-0.3-0.3-0.3-0.5
				c0-0.1,0-0.1,0-0.2c0.1-0.3,0.1-0.6,0.1-0.9c0-0.1,0-0.2-0.1-0.3c-0.1-0.2-0.1-0.4,0-0.6c0,0,0,0,0,0c0.1,0.3,0.3,0.6,0.4,0.8
				c0.1,0.1,0.1,0.3,0.1,0.4C-511.7-177.2-511.7-176.9-511.7-176.5z"/>
		</g>
	</g>
</g>
</svg>
