<?xml version="1.0" encoding="utf-8"?>
<!-- Generator: Adobe Illustrator 27.2.0, SVG Export Plug-In . SVG Version: 6.00 Build 0)  -->
<svg version="1.1" id="Layer_1" xmlns="http://www.w3.org/2000/svg" xmlns:xlink="http://www.w3.org/1999/xlink" x="0px" y="0px"
	 viewBox="0 0 540.4 120.9" style="enable-background:new 0 0 540.4 120.9;" xml:space="preserve">
<style type="text/css">
	.st0{fill:#FFFFFF;}
</style>
<g>
	<path class="st0" d="M3.6,77.9L3.6,77.9C3.6,77.9,3.6,77.9,3.6,77.9C3.6,77.9,3.6,77.9,3.6,77.9 M27.5,47.1c0.2-1,2.4-4.9,3-5.8
		c1-1.6,1.3-2.7,3-5.6c1.3-2.1,1.9-4.2,4-5.6c0.7-0.8,1.1-1.4,1.7-2.3c0.3-0.4,1-0.8,1.2-1.3c0.4-0.6,0.7-0.6,1.1-1.2
		c0.2-0.3,0.6-1,0.9-1.3c0.2-0.1,0.4-0.1,0.6-0.1c0.2-0.3,0.5-0.6,0.7-0.9c1.3-0.3,0.2,0.3,1.5-1.3c0.3-1.5,1.6-1,1.6-1.6
		c0.9-0.1,1.6-0.6,2.1-1.2c0.2-0.2,0.3-0.4,0.5-0.6c1-0.9,2.5-2,4-2.1c0.2-0.3,1.1-0.3,1.2-0.7c0.4-0.1,0.9-0.2,1.3-0.3
		c0.3,0,1-0.1,1.5-0.3c0.2-0.1,0.7,0,0.9,0c0.1,0,4.1,0,4.1,0c0.3,0.1,1.1,0.3,1.5,0.4c1.8,0.5,0.9-0.6,1.5,0.6H66
		c0.6,0.2,1.3,0.5,1.8,0.9c0.4,0.3,0.6,1,1.2,1.2c0.8,0.9,1.8,1.7,3.1,3c0.1,1.6,2.8,2.8,1.9,6.4c-0.3,1.2-0.5,2.1-1.8,4.1
		c0.3-0.5-0.2,0.8-1.1,2.6c-0.3,0.7-2.1-0.3-1.1,2.1c-0.9,1.5-2,3.1-3,4.1c-4.4,6.4-13.2,11-21,13.6c-4.5,1.5-7.6,0.6-7.6,0.6
		S25.1,55.3,27.5,47.1 M30.3,108.1C30.4,108.2,30.4,108.2,30.3,108.1C30.3,108.2,30.3,108.1,30.3,108.1 M1.1,89.7
		C1,90,0.9,90.3,0.9,90.5c0,0.3,0.1,0.5,0.1,0.6c0.1,0.2,0.3,0.4,0.6,0.5c0.1,0.3,0.2,0.6,0.4,0.8l0.3,0.5L2.7,93
		c2.2,0.7,3.7,0.4,4.2-0.2l0.1-0.1l0-0.1l1.9-3.9l3.9-7.9l1-1.7c0.5-0.9,1.1-1.8,1.4-2.5l0-0.1c0,0,0.2-1,0.3-1.2
		c0.1-0.1,0.3-0.3,0.3-0.3l0.6-0.8l1-2.4c0.4-0.9,0.7-1.7,1.2-2.6l0.1-0.2c0.3-0.5,0.7-1.2,1-2c0,0.4-0.1,0.8-0.1,1.1
		c-0.1,0.8-0.2,1.5-0.2,2c0,0.3,0,0.6,0.1,0.9c0.2,0.8,0.5,2.7,0.5,3.5c0,0,0,1.6,0.1,2.3c0,0.5-0.1,0.9-0.1,1.3c-0.3,0-0.7,0-0.7,0
		s0.8,1.6,0.8,1.6h0c0,0-0.2,0.5-0.2,0.6l-0.2,0.2l0,0.3c0.1,0.7,0.2,1,0.7,1.3c0,0.1,0,0.3,0,0.3s0,0.2,0,0.3
		c-0.1,0.1-0.3,0.4-0.3,0.4l-0.4,0.5c-0.1,0.3-0.2,0.6-0.2,1c0,0.6,0.2,1.2,0.3,1.7c0.1,0.3,0.2,0.8,0.2,1c0,0,0,0.1,0,0.1l0.1-0.1
		l-0.1,0.1l-0.1,0.2L19.8,88c0.1,0.6,0.4,1.4,0.9,2c-0.1,0.1-0.2,0.1-0.2,0.1l0,0.5c0.1,1.1,1.1,3.4,2.2,4.4
		c-0.1,0.6-0.1,1.1-0.1,1.5c0,0.9,0.2,1.3,0.4,1.5c0,0,0,0.1,0,0.1c0,1,0.5,1.6,0.9,2c0,0,0,0.1,0,0.1c0.1,0.6,0.5,1.1,0.8,1.6
		c0.2,0.2,0.4,0.5,0.4,0.7l0,0.1l0,0.2c0.6,2.9,3.3,4.8,4.4,5.6c0,0.2,0,0.3,0,0.3l0.6,0.1c0,0,0,0,0.1,0c0,0,0,0,0,0
		c0.5,0.6,1.5,1.7,3.3,2.3c0,0.1,0.1,0.2,0.1,0.2c0.5,0.8,1.5,1.4,2.6,1.2c1.1,1,5.2,2.8,8.1,2.3c0.7,0,1.2,0.2,1.7,0.4l0.8,0.2
		c0.6,0.1,1.1,0.1,1.5,0c0,0,0.4,0,0.5,0c2.5,0.9,4.4,1,5.5,0.3c0.3,0.2,1,0.4,1.7,0.1c0.4,0,0.6-0.1,0.8-0.2c0.2,0,0.8,0.1,0.8,0.1
		l0,0l0.8-0.2l0.6-0.1c0,0,1.4-0.2,1.4-0.2c0.4,0,0.6-0.1,1.7-0.5l0.3-0.1l1.2-0.4c0,0,0.2,0,0.2,0c0.5-0.1,1.4-0.2,2.4-0.9
		c0,0,0.2-0.1,0.7-0.6h1.1c0,0,0.5-0.5,0.7-0.7c0.1,0,0.3-0.1,0.3-0.1l1.1-0.3l0-0.1c0,0,0.4-0.5,0.5-0.6c0.1,0,0.2-0.1,0.2-0.1
		l0.6-0.4l0.1-0.1c0.5-0.3,2.1-1.4,2.1-2.3c0-0.1,0-0.2-0.1-0.3c0-0.1-0.4-0.6-1.2-0.2c-2.5,1.2-4.7,1.9-6.6,2.6
		c-0.4,0-0.6,0.1-2.3,0.5l-3.6,0.9c0,0-1.4,0.3-1.6,0.4c-0.1,0-3.7-0.1-3.7-0.1c-3.1,0.2-6.5-0.4-9.5-1.4c-2.2-0.8-3-1.2-4.7-2.3
		c-4.8-3.2-8.1-8.3-10.7-16.8l-0.4-2l-0.4-1.9c-0.1-0.4-0.1-1.1-0.2-1.7c0-0.7-0.1-1.4-0.2-2c-0.1-0.5-0.2-1-0.2-1.5
		c0-0.3,0-0.5,0-0.8c0-0.3,0-0.5,0-0.8c0-0.5-0.1-0.9-0.2-1.3c0.1-0.4,0.2-0.8,0.2-1.3c0-0.9-0.3-1.7-0.5-2.2c0-0.3,0.1-0.6,0.2-1
		c0.1-0.6,0.3-1.2,0.3-1.8c0-0.3,0-0.5-0.1-0.8l-0.1-0.2c0,0-0.2-0.2-0.3-0.3c0.1-0.5,0.3-2,0.3-2l0-0.1c-0.2-1.1-0.3-2.5-0.3-3.4
		c0-0.3,0-0.5,0-0.7l0.1-0.5c0.1-0.3,0.2-0.6,0.2-1.1c0-0.2,0-0.3,0-0.5c0-0.1,0-0.1,0-0.2c0-0.4,0.1-1,0.1-1.6
		c0.1-0.8,0.2-1.5,0.2-2.1c0-0.4-0.1-0.7-0.1-1v-0.3c0.2,0.1,0.4,0.2,0.4,0.2c0,0,0.2,0.2,0.2,0.2c0.7,0.6,1.6,1.3,2.7,1.3
		c0,0-0.1,0-0.1,0c6.6,1.1,7.1,1.1,8.5,1.1l0.8,0c0,0-0.1,0-0.1,0c1.2,0.2,4.1-0.3,4.9-0.6c0.6-0.2,1.3-0.4,2-0.5
		c0.7-0.1,1.5-0.3,2.1-0.5c1.1-0.4,2.4-1,3.4-1.6c0,0,0.2-0.1,0.4-0.2c0.2,0,1.1-0.1,1.1-0.1c0.2,0,0.6,0,0.8-0.5c0,0,0-0.1,0.1-0.3
		c0.1-0.1,0.2-0.1,0.3-0.2c0.2-0.2,0.5-0.2,0.9-0.3c0.4-0.1,0.9-0.3,1.3-0.5L59,55c0.3-0.3,0.6-0.6,0.8-0.7c1.2-0.6,2.3-1.4,3.1-2.1
		c0.1,0,0.1,0.1,0.2,0.1c0.5,0.1,1-0.2,2.5-1.9l-0.1,0.1l0.6-0.6c0,0,0.1-0.1,0.2-0.2c0.7,0.1,0.9-0.3,1.3-0.8c0,0,0.3-0.5,0.5-0.7
		c0.1-0.1,0.4-0.2,0.4-0.2c0.4,0,0.6-0.4,0.8-0.6c0,0,0.5-0.9,0.5-1c0.7-0.5,1.9-1.5,3.3-3.8l0-0.1c0,0,0,0,0,0c0,0,0,0,0,0
		c0.1-0.1,0.3-0.3,0.4-0.6l-0.1,0.1l0.1-0.4c0,0.1,0,0.2-0.1,0.3l0.8-1l1.3-1.7l0.3-0.5l0.7-1.2l0-0.1l0.3-0.8c0,0,0.2-0.6,0.3-0.9
		c0.4-0.7,1.5-3.1,1.6-6.3l0,0c0,0-0.1-1.1-0.1-1.3c0.1-0.5,0.2-1,0.2-1.6c0-1.5-0.3-3.2-0.8-4.4c-2.9-6.6-8-11.4-14.1-13.3
		c-3.7-1.1-7.9-0.3-10.6,0.9h0c-1.6,0.7-2.3,1.1-2.7,1.3c-0.1,0.1-0.7,0.3-0.7,0.3c-0.1,0-1.5,0.7-1.5,0.7c-0.7,0.3-1.4,0.6-2.1,1
		c-1,0.7-1.7,1.3-2.4,1.9c-0.6,0.6-1.2,1.1-2.1,1.7L41.6,17l-1.9,1.4l0,0c0.1-0.1,0.2-0.1,0.4-0.1l-0.4,0.1
		c-0.2,0.1-0.4,0.3-0.6,0.6c0,0-0.1,0.1-0.1,0.2l0,0c-0.5,0.3-0.8,0.7-1.1,1l-0.6,0.7c-0.8,0.6-1.2,1.5-1.4,2c-0.4,0.4-1,1-1.3,1.2
		c-0.1,0-0.3,0-0.4,0.1c0-0.1,0-0.3,0-0.4l0-0.3L34,23.1c-1-1-2-2.2-4.2-2l-0.2,0l-0.2,0.1c-0.9,0.7-1.3,1.3-1.4,1.5l0,0.1
		c0,0-0.1,0.4-0.1,0.4c-1.7,2.6-2.3,4.1-2.3,5.1c0,0.3,0.1,0.5,0.1,0.7c0,0-0.2,0.1-0.2,0.1l0,0.1c-0.1,0.2-0.2,0.5-0.2,0.7
		c0,0.2,0,0.4,0.1,0.5c0,0,0,0,0,0.1c0,0.1-0.1,0.2-0.1,0.2c-0.6,1.8-0.9,2.6-0.9,3c0,0-0.2,0.3-0.2,0.3l-0.4,0.6l0.1,0.1
		c0,0,0.1,0.7,0.1,0.7c-0.1,0.1-0.4,0.4-0.4,0.4l0,0.2c0,0-0.1,0.9-0.1,1.1c-0.5,1.3-1,2-1.4,2.5c-0.3,0.4-0.5,0.7-0.6,1.1
		c0,0-0.2,0.4-0.2,0.4S21.1,41.8,21,42c0,0.1-3.8,7.7-3.8,7.7l0,0.1c-0.1,0.3-0.7,1.1-0.9,1.3c0,0-0.1,0.4-0.1,0.4l0,0c0,0,0,0,0,0
		l-0.4,0.8l-0.9,1.6l0.1,0.2c0,0.1,0,0.2,0,0.4c0,0.2,0,0.4-0.1,0.7c0,0-0.1,1.3-0.1,1.6c-0.1,0-0.1,0.1-0.1,0.1
		c-0.7,0.7-2.3,2.2-2.3,4c-1.2,0.5-1.6,1.7-1.9,2.7l-0.4,1l0,0.1c-0.7,2.5-1.3,3.6-1.5,4c0,0,0,0,0,0l-0.7,0.6
		c-0.4,0.3-0.7,0.5-1.1,1c-0.2,0.4-0.3,0.7-0.3,1l-0.1,0.4c0,0-0.7,1.2-0.7,1.2c-0.4,0.6-0.8,1.3-1.1,2l0,0.1v0.8
		c-0.1,0-0.1,0.1-0.1,0.1c-0.3,0.2-0.7,0.4-0.8,0.8c-0.1,0.2-0.1,0.5-0.1,0.6c0,0.2,0,0.4,0.1,0.5c0,0,0,0,0,0.1
		C3.4,77.9,3,78,2.7,78.5C2.5,79,2.4,79.6,2.3,80l-0.2,1c-0.3,0.8-0.4,1.2-0.4,1.5c0,0.1-0.8,0.8-0.8,0.8l0,0.3l0,0.1
		c0,0.3,0.1,0.5,0.2,0.7c0,0.1-0.1,0.2-0.1,0.2l-0.9,1.4l-0.1,0.1C0,86.4,0,86.6,0,86.9c0,0.7,0.4,1.4,0.8,2.2
		C0.8,89.1,1,89.6,1.1,89.7"/>
	<path class="st0" d="M73.4,42.1L73.4,42.1c0.1-0.2,0.1-0.3,0.1-0.4L73.4,42.1z"/>
	<path class="st0" d="M39.7,18.4l0.4-0.1C39.9,18.2,39.8,18.3,39.7,18.4"/>
	<path class="st0" d="M465.1,56.5l-0.1-0.3C465,56.3,465,56.4,465.1,56.5 M477.5,66.2C477.4,66.2,477.4,66.2,477.5,66.2
		C477.4,66.2,477.4,66.2,477.5,66.2 M403.1,66l0.3,0.9l-0.1-0.2c0,0,0.2,0.6,0.2,0.8c0,0,0,0,0,0c-0.1,0.4-0.2,0.9-0.2,1.5
		c0,0.4,0.1,0.9,0.4,1.4c-0.1,0.2-0.1,0.5-0.1,0.7c0,0.6,0.2,1.1,0.6,1.5c0.2,0.2,0.9,0.6,2,0.2c2.6,0.4,4.5-0.9,4.9-1.2
		c0,0,0.6-0.3,1-0.5c-0.7,0.7-1.3,1.4-1.6,1.8c-1.4,2.2-2.8,5.4-3.8,8.2l-0.6,2l-0.3,1.2c-0.1,0.3-0.1,0.6-0.1,0.9
		c0,0.6,0.2,1.2,0.3,1.7c0.1,0.3,0.2,0.7,0.2,0.9c0,0,0,0,0,0.1l-0.1,0.2l0,0.2c0.1,0.8,0.2,1.1,0.7,1.5l0.1,0.1l0,0l0.7,0.3
		l0.3,0.1L408,90l0.2,0c0.6,0,0.9-0.1,1.2-0.3c0,0.1,0.1,0.2,0.1,0.2l0.5,0c1-0.1,2.4-0.8,3.3-1.6c0.2,0,0.4-0.1,0.4-0.1
		c1,0,1.5-0.5,1.7-1c1.7,0,2.7-0.7,3.8-1.4l0.7-0.4c0,0,0-0.1,0-0.2c0.1,0,1.1-0.1,1.1-0.1l0.1-0.6c0.1-0.6,0.1-0.6,0.6-0.8
		c0.3-0.1,0.6-0.3,1-0.7l0.1-0.1c0,0,0.5-0.8,0.5-0.9c0.1,0,0.2-0.1,0.2-0.1c0.2,0,0.5-0.1,0.9-0.4l0.1-0.1l0-0.1
		c0.2-0.3,0.3-0.6,0.3-0.9c0-0.2,0-0.3-0.1-0.5c0.3-0.2,0.5-0.3,0.5-0.3c0.3-0.3,0.5-0.3,1-0.3l0.5,0l0.2-0.5
		c0.2-0.4,0.3-0.6,0.5-0.9l0.8,0l0.2-0.2l0.5-0.5l-0.1-0.3c0,0-0.1-0.2-0.1-0.4c0.3-0.3,0.6-0.6,0.9-0.9c0.3-0.4,2.3-3.6,2.6-3.9
		c-0.7,2-2.8,5.7-2.8,9.2v0c0,0,0,0,0,0.1c0,0.1-0.1,0.6-0.1,1.1c0,0.9,0.2,2.1,1,2.5c1.3,0.7,3.5-0.8,4.5-1.7c0,0,0.1,0,0.1,0.1
		c0,0,0,0.1,0,0.1c0.1,0.3,0.3,0.7,0.8,0.9c0.4,0.2,0.9,0,1.2-0.2c0.4,0,0.7-0.1,1.1-0.4c1.7-0.3,2.5-2.2,3.2-3.7
		c0.3-0.6,0.5-1.1,0.7-1.5l1.2-1.9l1-1.7l1.5-2c0.4-0.5,1.3-1.8,1.8-2.5c0.1-0.1,0.2-0.2,0.2-0.2c0.5-0.3,0.6-0.6,0.6-1
		c0-0.1,0-0.1,0-0.2c0,0,0-0.1,0-0.2c0.8-0.7,1.1-1.1,1.1-1.5c0.2-0.4,0.5-0.8,0.7-1.2l0.1-0.3c0.2-0.3,0.5-0.6,0.8-1
		c0.5-0.5,1-1.1,1.3-1.9c0.1-0.2,0.2-0.4,0.2-0.7c0.4-0.3,0.7-0.7,0.9-1.1c0.5-0.3,0.9-0.9,1.4-1.7c0.6-1,1.5-2.4,3-4.1
		c0.2-0.1,0.4-0.4,0.6-0.7c-0.1,0.2-0.6,1.6-0.6,1.6c-0.4,1.1-1.1,3.1-2.8,7.5c0,0-0.6,1.3-0.6,1.3l-0.8,1.8l-1.2,2.9l-1.8,4.6
		l0,0.1c0,0-0.1,1.3-0.1,1.4c0,0.1-0.1,0.5-0.1,0.5l-1,3.4c-0.1,0.3-0.2,0.7-0.2,1c0,0.1,0,0.3,0,0.4c0,0.1,0,0.2,0,0.3
		c0,0.1,0,0.2,0,0.2l-0.2,0.2l0,0.4l0.1,1.7c0,1.4,0.1,2.8,2,3.5l0.2,0.1l1.8-0.2l0.1-0.1l0.9-0.6c0.4-0.3,0.8-0.5,1.1-0.7
		c0.6,0,1.1-0.2,1.7-0.6l1.7-1c0,0,0.7-0.2,0.7-0.2l1-0.4c0.8-0.5,1.4-1.3,1.9-2l0.3-0.4c0.6-0.8,1-1.2,1.6-1.8l0.9-0.9l0.1-0.1
		l0.6-0.9c0,0,0.5-0.7,0.6-0.9c0.1-0.1,1.3-1,1.3-1c1.3-1,2.7-2.1,3.8-3.5c0.3-0.4,0.9-1.1,1.2-1.4h1v-0.6c0.3-0.2,0.8-0.5,0.8-0.5
		l-0.1,0l0.5-0.7c0,0,0,0,0-0.1c0.1,0,0.8-0.2,0.8-0.2l0.1-0.2l0.4-0.8c0,0,0.1-0.2,0.1-0.2c0,0,0.4-0.2,0.4-0.2l0.9-0.4
		c0.4-0.3,0.5-0.7,0.6-1c0,0,0-0.1,0.1-0.2c0.3,0,0.6-0.1,0.6-0.1l0.4-0.1l-0.1-0.3c0,0,0.1-0.2,0.1-0.2c0.1,0,0.2-0.1,0.2-0.1
		l1-0.5l0-0.1c0,0,0.2-0.3,0.3-0.5c0.2-0.1,1.4-0.4,1.4-0.4l0,0l0.6-0.6c0.1-0.1,0.2-0.2,0.2-0.3h0.7l0.2-0.1
		c0.3-0.2,0.5-0.5,0.7-0.7l0.3-0.3c0.3-0.2,0.6-0.3,1-0.4c0.4-0.1,0.9-0.3,1.3-0.6l0.1,0c0,0,0.5-0.5,0.7-0.7c0.1,0,0.2-0.1,0.4-0.1
		l0.9-0.2c2.3-0.9,4.8-1.8,7.2-2.5c0.2-0.1,0.4,0,0.7,0c0.3,0.1,0.8,0.1,1.3,0l0.2-0.1c0,0,0.2-0.2,0.4-0.4c0.4,0,1.8-0.2,1.8-0.2
		s0.2-0.4,0.2-0.4c1.3-0.4,2.8-0.3,2.8-0.3l0.1,0l0.1,0c1.5-0.3,2.4-0.3,3.1-0.4c0.6,0,1-0.1,1.5-0.2c0.6,0.8,1.1,1.1,1.7,1
		c0.2,0,0.4-0.1,0.5-0.3c0,0,0,0,0.1,0c0.2,0,0.7,0.1,1.1-0.4c0,0.1,0,0.2,0.1,0.3c0.2,0.4,0.6,0.6,1.3,0.7c1.9,0.1,4.1-0.1,5.1-0.3
		l0.6-0.1l0,0c0,0,0.8-0.3,0.8-0.3c0.1,0,0.1,0.1,0.3,0.2c0.6,0.6,1.4,0.7,2.1,0.3c0,0,0.2-0.1,0.3-0.2c0.7,0.4,2,1,3.7,0.8
		c0,0,0.3,0,0.5,0c0.4,0.6,1.1,0.7,2.1,0.7c0,0,0.2,0,0.3,0c0,0.4,0.2,0.7,0.3,0.8c0.5,0.7,1.2,1,1.8,1.2c0.3,0.1,0.5,0.2,0.7,0.3
		c-0.2,0.2-0.6,0.6-0.6,1.3c0,0.3-0.1,0.5-0.2,0.7c-0.1,0.3-0.3,0.7-0.3,1.4c0,0.2,0,0.4,0.1,0.6c0.1,0.7,0.4,1.1,0.6,1.3
		c0,0,0,0,0,0c0,0.1-0.1,0.3-0.4,0.7c-0.6,1-0.9,1.6-0.9,2.2c0,0.5,0.2,0.9,0.5,1.4c-0.1,0.4-0.3,0.7-0.6,1l-0.6,0.9
		c-0.2,0.4-0.3,0.8-0.3,1.1c0,0.2,0,0.4,0.1,0.6c0,0.1,0,0.2,0,0.3c0,0.1,0,0.1-0.1,0.2l0,0c0,0-0.1,0.1-0.1,0.1c0,0-0.2,0-0.2,0
		l-1,0.3l0.1,0.6c0,0.2,0,0.3,0,0.5c0,0.4,0,0.7-0.1,1c0,0,0,0.1,0,0.2c-0.3,0.1-0.6,0.3-0.8,0.6c-0.4,0.5-0.6,1.2-0.6,1.8
		c0,0,0,0,0,0c-0.4,0.4-0.8,0.7-0.9,1c-0.1,0.2-0.2,0.5-0.2,0.7c0,0.1,0,0.2,0,0.2v0c0,0-0.5,0.2-0.5,0.2v0.9c0,0-0.1,0-0.1,0
		l-0.1,0.1c-0.5,0.4-1.2,1.4-1.4,2.1l0.1-0.2c-0.1,0.2-0.2,0.5-0.2,0.7h-0.5c0,0-0.1,0.8-0.1,0.9h-0.5l-0.2,0.6l-0.1,0.4
		c0,0,0,0.2-0.1,0.3h-0.4l-0.3,0.9c-0.1,0.2-0.1,0.4-0.2,0.8c-0.3,0.1-0.5,0.3-0.7,0.5l-0.4,0.4l-0.1,0.4v1.2l0.8,0
		c1.2,0,1.6-0.7,1.8-1.3h0.7v-0.6h0.5c0,0,0.2-1.4,0.2-1.5h0.3v-0.4c0.1,0,0.3-0.1,0.4-0.2c0.3-0.2,0.4-0.5,0.4-0.9
		c0.2,0,0.3,0,0.5-0.1l1.1-0.3l0-0.7l0-0.1c0,0,0-0.1-0.1-0.2c0.3-0.3,0.7-0.7,0.7-0.7c0.3-0.3,0.5-0.6,0.8-0.8c0,0,0.1,0,0.1,0
		c1.4-0.1,1.7-1.1,1.8-1.6c0-0.2,0.1-0.3,0.1-0.4c0.2,0,0.5,0,0.8-0.2c0,0,1-0.3,1-0.3l0-0.7c0-0.2,0-0.4-0.1-0.5
		c0,0,0.4-0.3,0.4-0.3l-0.2-0.2v-0.5c0.1-0.1,0.2-0.3,0.2-0.3c0.2-0.2,0.3-0.6,0.5-0.9c0.2,0,0.4-0.1,0.6-0.2
		c0.2,0.1,0.3,0.1,0.5,0.1c0,0.1,0.1,0.1,0.1,0.1l0.5,0l0.3,0l0.2,0.1l0.3,0c1.3-0.1,1.7-1,1.9-1.7c0.2,0,1.1-0.2,1.1-0.2
		s-0.1-0.7-0.1-0.8c0.3-0.1,0.5-0.2,0.7-0.4l0.1-0.2c0,0,0.1-1,0.2-1.1c0-0.1,0.2-0.3,0.2-0.3c0.2-0.3,0.6-0.8,0.7-1.4h0.6l0.2-0.8
		c0.1-0.2,0.1-0.5,0.1-0.8c0-0.2,0-0.3-0.1-0.5l-0.1-0.2c0,0-0.1-0.1-0.1-0.1c0.4-1.5,0.6-2.9,0.6-4.3c0-1.5-0.2-2.9-0.6-4.3v-1.2
		l-0.1,0l-0.5-0.7c0,0-0.1-0.1-0.1-0.2c0-0.2,0.1-0.6,0.1-0.6l-0.1-0.2c-0.2-0.6-1.7-2.9-2.3-3.4c0,0,0,0,0,0l-0.1-0.1
		c0,0,0,0,0.1,0.1c-1.6-2-4.6-3.8-8.3-5.2c-10.5-2.9-15.5-2.4-21.3-1.8l-0.5,0.1c-11.9,1.6-20.6,6.4-20.6,6.5c0,0,0.1,0,0.2,0
		c-2.3,0.7-10.1,5.9-11.1,6.6l-2.1,1.6c-1.4,1.2-3.2,2.6-3.9,3c-0.9,0.5-1.5,1.2-2.2,1.9l-0.7,0.8l-1.7,1.7l-1.2,1.2
		c-1.7,1.7-3.3,2.8-4,2.9c0-0.1,0-0.2,0.1-0.3l0,0l0,0c0.2-1.3,1.6-5.7,2-6.5l0-0.1c0.1-0.4,0.9-3.2,1.6-5.3
		c0.5-0.5,1.3-1.4,1.3-2.8c0,0,0-0.2,0-0.2s0,0,0-0.1c0-0.1,0.1-0.5,0.5-1.5c0.1-0.2,0.1-0.3,0.1-0.5c0,0,0-0.1-0.1-0.2c0,0,0,0,0,0
		v0c0,0,0,0,0,0c0,0.1,0.1,0.1,0.1,0.2c0,0,0-0.3,0-0.3c0.1-0.1,0.2-0.3,0.2-0.6c1.6-1.8,2.9-4.3,2.9-6.6c0-0.4,0-0.8-0.1-1.2
		c-0.4-1.4-1.3-2.4-2.8-3l-0.1,0l-0.1,0c-0.6-0.1-7.2,0.3-10,4.5c-2.2,1.7-7.2,8.6-9,10.8c0-0.1,1.6-3.8,1.6-3.8s1.4-1.7,1.4-1.9
		c0.4-0.1,0.5-0.6,0.8-1.1c0.3-0.4,0.8-0.8,0.8-1.5c0-0.1,0-0.2-0.1-0.4c0.1-0.2,0.3-0.8,0.3-0.8c0.4-0.9,0.7-1.8,1.2-2.5l0.1-0.2
		l0-0.3c-0.1-0.8-0.5-1.1-0.9-1.4l-0.5-0.5l-0.4-0.1c-0.8,0.1-1.2,0.3-1.5,0.5c0,0-0.1,0-0.1,0.1c-1.4-0.3-2.2,0.3-2.9,0.8
		c0,0-0.4,0.3-0.5,0.3c-0.2,0-1,0.2-1,0.2s-0.9,1-0.9,1.1c-1.1,0.8-2,1.8-2.9,3.2l-0.1,0.1c0,0-0.1,0.4-0.1,0.6
		c-0.1,0-0.1,0.1-0.1,0.1l-0.7,0.4c-0.4,0.4-0.6,0.9-0.8,1.3l-0.4,0.8c0,0-0.7,0.7-0.7,0.7c-0.4,0.3-0.7,0.7-1,1.1l0,0.1
		c0,0-0.4,1.2-0.4,1.4c-0.2,0.3-0.5,0.5-0.8,0.8c-0.4,0.4-0.8,0.7-1.1,1.2c-2.5,3.8-4.4,6.5-6.3,9.1c-0.2,0.3-0.6,0.5-0.9,0.8
		c-0.4,0.3-0.8,0.6-1.1,1l-0.4,0.7l-0.2,0.3c0,0-0.4,0.2-0.4,0.2c-0.3,0.1-0.7,0.3-1,0.6c0,0-0.3,0.8-0.3,0.8s0,0,0,0.1
		c-1.2,1.1-2.3,2-3.6,3l-0.1,0c0,0-1.3,1.4-1.3,1.5c-0.1,0.1-0.9,0.6-0.9,0.6c-0.3,0.2-0.6,0.4-0.9,0.6c0.1-0.1,0.1-0.1,0.1-0.1
		l-0.1-0.4c-0.2-1-0.3-1.3-0.5-1.7c0.1-0.1,0.3-0.5,0.3-0.5c0-0.2,0.1-0.4,0.1-0.6c0-0.2,0-0.4,0-0.6c0-0.2,0-0.4,0-0.6
		c0-0.2,0-0.5,0.1-0.7c0.2-0.4,0.7-1.2,1.1-1.8l0.3-0.5c0,0,0,0,0,0c0.2-0.2,0.3-0.4,0.5-0.8l1-1.5l0.4-0.5l0.9-1.2
		c0.3-0.5,0.9-1.3,1-1.4l0.1-0.1l0.1,0c0.1-0.1,0.1-0.1,0.3-0.2c0.3-0.2,0.7-0.4,0.9-0.9c0.2,0,0.5-0.1,0.6-0.2
		c0.2-0.1,0.2-0.3,0.3-0.4c0.2,0,0.4-0.1,0.4-0.1c0.6-0.3,0.8-0.9,1-1.4c0,0,0.1-0.4,0.2-0.5c0.1,0,0.1-0.1,0.1-0.1
		c0.3-0.1,0.6-0.3,0.8-0.7c0.2-0.3,0.2-0.7,0.2-1c0,0,0-0.1,0-0.2c0.7-0.1,1.1-0.4,1.4-1c0,0,0.7-0.1,0.7-0.1l0.1-0.6
		c0.1-0.6,0.3-1.2,0.4-1.4l0.1-0.2l0-0.2c-0.1-1.3-0.9-1.8-1.5-2.2l-0.8-0.6l-0.3-0.1c-2.1,0.1-3.9,1.8-4.4,2.3l-0.7,0.7
		c-0.6,0.6-1.6,1.7-2,2c-1.6,1.1-4.6,3-6.4,3.9c0-0.2-0.1-0.5-0.1-0.8c0-2,0.8-5.2,1.4-5.9l0.8-1.1l0.4-0.7l0.8-0.9l1-1.2
		c0.9-1.2,1.9-2,3-2.8c1-0.8,2.1-1.6,3-2.7c0.7-0.8,1.5-0.9,2.5-0.9c0.6,0,1.2-0.1,1.8-0.3c0,0.1,0.1,0.3,0.1,0.3l0.2,0.7
		c0,0,1.1-0.2,1.2-0.2c0,0,0.1,0.1,0.1,0.1l0.4,0c1.7-0.1,2.3-1.4,2.8-2.5c0.2-0.5,0.4-0.9,0.7-1.2l0.2-0.2l0-0.3
		c0-0.9-0.5-1.7-1.2-2.2c-0.5-0.6-1.2-0.6-1.6-0.6c-0.3,0-0.5,0-0.9-0.1c-1-0.3-2.4-0.5-3.5,0.2l-0.1,0.1c0,0-0.2,0.2-0.2,0.3
		c-0.4,0.1-0.7,0.2-1,0.3c-0.3,0.2-0.7,0.3-0.9,0.3l-0.1,0l-0.1,0c-0.8,0.3-1.4,0.6-2,0.9l-1,0.5c0.1,0,0.2,0,0.2,0l-0.3,0.1l0.1,0
		c-0.3,0.1-0.5,0.2-1,0.5l-0.6,0.3c0,0,0,0,0,0l-0.2,0c-1.6,0.7-2.6,1.5-3.6,2.5l-1.6,1.3c-3.1,2.3-7.6,7.1-9.4,10.6l-0.6,1.6
		c0,0.1-0.1,0.3-0.1,0.4c0,0.2,0.1,0.3,0.1,0.5c-0.3,0.3-0.7,0.7-0.7,0.7l-0.1,0.1c-0.1,0.2-0.1,0.4-0.1,0.6c0,0.4,0.1,0.7,0.1,1
		l0,0.2c0,0,0,0,0,0c-0.3,0.2-0.6,0.5-0.7,1.3c0,0,0,0.2,0,0.4c-0.1,0.1-0.3,0.2-0.3,0.2L403.1,66L403.1,66z"/>
	<path class="st0" d="M79.5,55.9c0.9,0,1,0.1,1.5,0.4c0,1.4-0.9,2.8-1.8,3.4v0.7c0.8-0.1,3.1-0.8,3.7-1.2c0.6,0.1,0.5,0.3,0.9,0.6
		c-0.3,1.4-1.6,2.1-2.4,3.1c-1.3,1.8-2.7,3.5-4,5.3c-0.8,1.1-1.2,2.2-1.9,3.4c-0.5,0.8-1.5,1.8-1.9,2.7c-0.5,0.9-0.5,2-1,2.8
		c-0.5,0.5-1.1,1.6-1.6,2.1c-3,3-5.3,4.2-9.7,5.9c-1.8,0.7-3.8,1.6-6.2,1.6c-0.6-0.3-3.4-3.2,3.6-13c0.5-0.7,0.5-1.7,1-2.4
		c0,0,0,0,0-0.1c0,0,0,0.1,0,0.1c0.1-0.1,1.5-2,2.4-3c0.2-0.2,0.7-0.3,0.9-0.6c0.1-0.4,0.2-0.9,0.3-1.3c0.2-0.2,0.5-0.1,0.7-0.3
		c0.8-0.6,1.2-1.4,1.8-2.2c0.2-0.1,0.5-0.3,0.7-0.4c0.3-0.4,0.5-1.2,1-1.5h0.9c0.2-0.3,0.5-0.6,0.7-0.9c0.6-0.5,1.5-0.9,1.8-1.2
		c0.3-0.3,3-1.9,3.4-2.1C75.3,57.3,79,56.5,79.5,55.9 M101,70c0.2-0.6,0.3-1.7-0.1-2.1v-0.1c0.2,0.1,0.2,0.1,0.6,0.1
		c0.2-1.3,1.4-3.6,0.7-4.6c0.2-0.1,0.2-0.1,0.6-0.1c-0.1-3,2.4-6,3.6-8.4c0.1,0,1.4-2.6,1.6-3c0,0-0.1,0,0,0l0,0
		c0.1,0,0.3-0.1,0.3-1c1.2-1,0.8-0.4,1-1.6c0.3-0.2,0.6-0.5,0.9-0.7c0.1-0.3,0.2-0.6,0.3-0.9c1.5-2.4,0.9,0,1.2-2.2
		c0.8-1.1,2.1-1.5,2.2-3.3c0.6,0,0.2,0.3,1-1c0.1-0.2,0.1-0.2,0.1-0.6c1-0.2,0.4-0.8,1-1.2c0.5-0.3,1.2-0.3,1.5-0.9v-0.9
		c0.2-0.4,0.9-0.3,1.2-0.6l0.1-0.7c0.2-0.3,0.8-0.2,1-0.4c0.4-0.3,1.5-1.6,1.9-1.9c0.3-0.2,2.2-1.4,2.7,0.4
		c-0.1,1.5-1.1,7.3-1.6,6.8c-0.5-0.5-1.8,6.2-4.5,8.5c-0.8,1.7-2.6,2.9-2.7,5.2c-1.2,0.3-1,1.3-1.6,2.2c-0.8,1.2-1.3,2.1-2.1,3.6
		c-0.3,0.6-1.1,1.5-1.5,2.1c-0.8,1.2-1.2,2.1-1.9,3.2c-0.7,1-1.1,2.2-1.9,3.2c-2.7,3.5-4.7,6.5-5.8,7.6C98.3,79.3,99.4,74.6,101,70
		 M120.4,79.9c0.3-0.1,0.6-0.7,1-0.7c0.7-0.5,1.3-1.1,2-1.7c0.8-0.7,1.4-0.9,2.1-1.6c0.1,0,1.5-1.5,1.5-1.5
		c-0.4,1.4-1.9,3.9-2.6,5.1c-1,1.9-2.2,3.9-3.1,5.7c-3.8-1.8-3.9-1.8-4.1-3.1C118.6,81.9,119.3,80.4,120.4,79.9 M128.7,81.8
		c0.3-0.8-0.1-1.5,0.3-2.1c0.2-0.3,1.1-0.8,1.2-1V78c0.3-0.8,1.2-1.7,1.5-2.5c0.2-0.6-0.2-0.8,0.1-1.3c0.1-0.1,0.3-0.1,0.4-0.1
		c0.2-0.2,1.4-1.5,1.5-1.6c0.7-1.1,0.8-2.2,1.5-3.3c0.4-0.4,0.9-0.9,1.3-1.3v-1c0.7-1.5,2.6-1.4,2.7-4.1c0.3-0.1,0.3,0,0.4-0.1
		c0.6-0.3,0.1-0.6,0.3-0.9c0.1-0.1,0.3-0.1,0.4-0.1c0.2-0.2,0.1-0.5,0.3-0.7c0.4-0.5,1.2-0.8,1.6-1.3c0.1-0.3,0.2-0.6,0.3-0.9
		c0.2-0.3,0.7-0.3,0.9-0.6c0.2-0.3,0.1-0.8,0.3-1c0.4-0.5,1.6-0.6,2.1-1c0.6-0.5,0.9-1.5,1.6-1.9c0.2,0,0.5-0.1,0.7-0.1
		c0.1-0.2,0.2-0.4,0.3-0.6c0.7-0.1,1.4-0.1,2.1-0.1c0.3-0.1,0.4-0.6,0.6-0.7c0.2-0.1,1.8,0,1.8,0c0.3,0.1,0.6,0.7,0.9,0.9
		c0.6,0.2,1.2,0.4,1.8,0.6c0.5,0.3,0.4,0.8,1.2,1c-0.1,0.5-0.1,1-0.1,1.5c0.2,0.2,0.4,0.4,0.6,0.6c-0.1,0.3-0.1,0.7-0.1,1
		c0,0.1,0.3,0.5,0.3,0.6c-0.2,1.2-0.6,1.1-0.9,1.6V62c0,0.1-0.1,0.8-0.1,1c-0.1,0-0.3,0.1-0.4,0.1c-0.2,0.5,0.2,1.3,0,2.1
		c-0.8,2.5-2.1,4.6-3.1,6.8h-0.6c-0.1,0.3,0,0.3-0.1,0.4c0,0.8-0.2,1-0.4,1.5h-0.7c0.1,0.3,0,0.3,0.1,0.4c-0.3,1.5-2,2.5-2.8,3.6
		c-2.9,3.8-7.2,6.4-12.2,8.2c-0.4-0.1-0.8-0.1-1.2-0.1c-0.5,0.1-2.3,0.2-2.8,0.4c-0.3,0.1-0.1,0.6-0.7,0.4c-0.1-0.1-0.2-0.3-0.3-0.4
		c-1.5-0.6-3.2,1-4.7-0.1c-0.2-0.1-0.1-0.1,0-0.3C127.1,84.8,128.2,83.3,128.7,81.8 M108.6,112.7c0,0,0.1-0.1,0.1-0.1
		C108.7,112.5,108.7,112.6,108.6,112.7 M111.8,88.1C111.8,88.1,111.8,88.1,111.8,88.1C111.8,88.1,111.8,88.1,111.8,88.1 M75.5,52.5
		c-2.8,1.1-10.2,4-16.6,10.6l-1,1.1c0,0-0.2,0.2-0.4,0.4h-0.2l-1.7,2.1l-1.7,2.2c0,0-0.2,0.3-0.2,0.3l-1,1.4L52,71.4
		c-1.1,1.7-2.4,3.6-3.3,5.5l-0.1,0.2v0.8c-0.1,0.2-0.3,0.8-0.3,0.8c-0.3,0.9-0.5,1.4-0.6,1.8c0,0,0-0.1,0-0.1l0,0.2c0,0,0-0.1,0-0.2
		c-0.1,0.3-0.3,1.5-0.3,2.9c0,0.8,0.1,1.7,0.5,2.4v0c0,2,0.5,3.4,3.1,4.4c0.6,0.3,4.5,1.9,5.5,1c0.1-0.1,0.2-0.2,0.2-0.4
		c0.3,0,0.9-0.1,0.9-0.1c2.1-0.2,2.7-0.3,3.1-0.6c0.3-0.1,0.5-0.2,0.5-0.2c0.1-0.1,0.1-0.1,0.4-0.1l0,0l0.5-0.1
		c0.1,0,0.3-0.1,0.4-0.2l0,0l0.3-0.3c-0.1,0.2-0.2,0.3-0.3,0.3l0.9-0.4L64,89c1-0.3,2.2-0.8,2.9-1.5c0.4,0.1,0.7,0,0.9-0.1
		c0.3-0.2,0.4-0.4,0.5-0.7c2.2-0.4,4-1.8,5.4-2.9c0,0,0.1-0.1,0.1-0.1c0,0.2,0,0.3,0.1,0.5c0.5,1.3,1.7,2.6,2.9,3.1l1,0.6
		c0.2,0.2,0.5,0.3,1,0.4l0.2,0l0,0c0,0,0.1-0.1,0.2-0.1c0.2,0.2,0.5,0.4,0.9,0.5c0.7,0.2,1.5,0.2,2-0.2c0.6,0.2,1.8,0.6,2.1,0.7
		l0.1,0.1l0.2,0l0.2,0c0.5,0,1.3,0.1,1.7-0.5c1.5,0.2,4.1-0.2,5.5-0.9c0.6-0.3,1-0.6,1.2-1c0.1-0.1,0.3-0.2,0.4-0.3c0,0,0,0,0,0
		c1.2,0.4,5.5,1.8,8.8,1.2c0,0,0.1,0,0.1,0c0,0,0,0.1,0,0.1l0.9,0.1c2.3,0.3,4.7-0.1,6.7-1.3c0.6-0.2,1.2-0.6,1.6-0.9
		c0.2-0.1,0.3-0.2,0.5-0.3c0,0,0,0.1,0.1,0.1c0.1,0.1,0.3,0.2,0.4,0.3c-0.1,0.1-0.2,0.2-0.3,0.3c-0.4,0.3-0.6,0.7-0.6,1.2
		c0,0.1,0,0.3,0,0.5c-0.5,0.3-0.9,0.7-1,2c0,0.1,0,0.1,0,0.2c0,1.8,2.7,2.5,3.8,2.8c0.4,0.4,0.9,0.7,1.4,0.8
		c-1.8,2.6-2.3,3.6-2.4,4.1c-0.9,1.6-2.9,4.3-4.6,6.7c-1.3,1.8-2.4,3.4-3,4.3l-1,1.5l-0.8,1.2l-0.9,1.1c-0.9,1.1-1.9,2.2-2.1,3.8
		l-0.1,0.9l0.9-0.1c1-0.1,1.5-0.7,1.7-1.1c0.2-0.2,0.3-0.4,0.4-0.4c0.6-0.3,0.9-0.3,0.9-0.3l-0.3-0.2l0.3,0.2h0l0.7,0.4l0.4-1
		c0,0,0,0,0,0c1.5-0.3,2.6-1.2,3-1.6l0,0l0.1-0.1c0.5-0.5,1.1-1.2,1.4-1.5c0.8-0.6,2.8-3.6,4.9-6.7l1.1-1.7l1-1.5l0.6-0.6l0.8-0.9
		c0,0,0.3-0.5,0.3-0.5c0.4-0.6,0.9-1.3,1.2-2.1l0.2-1c0-0.3,0.1-0.5,0.2-0.7c0,0,1.3-1.7,1.5-2c0.4,0,0.6,0.1,0.8,0.1
		c0.7,0.3,1.1,0.3,2.6-0.4c2,0.1,3.4-0.2,5.3-1c1.1,0.2,2.3-0.5,3.2-1c0,0,0.8-0.4,0.9-0.5c0.2,0,0.8,0,0.8,0c0.7,0,1-0.2,1.7-0.9
		c0.2-0.1,0.4-0.1,0.7-0.1c0.4,0,0.9-0.1,1.3-0.6c0.8-0.5,2.6-1.6,3.3-1.9c0.1-0.1,0.4-0.2,2.4-1.7l0.5-0.4c1.1-0.8,2.5-1.9,3.9-3.1
		c0,0-1.5,2.5-1.5,2.5l-1,1.5c-0.5,0.8-0.8,1.3-0.8,1.7c0,0.1,0,0.2,0.1,0.4c0.1,0.2,0.3,0.5,0.8,0.6l0.1,0l0.1,0
		c0.9,0,1.7-0.8,2.3-1.4c0,0,0.1-0.1,0.1-0.1c0.3,0.4,0.8,0.6,1.2,0.5l0.7-0.1c0.9-0.2,1.5-0.3,2.7-1.8l1.7-2
		c0.9-1.1,1.9-2.2,2.7-3.4c0.3-0.5,1-1.1,1.6-1.6c0.9-0.8,1.8-1.6,2.2-2.5l0.1-0.2v-0.6c0.1,0,1.4-0.6,1.4-0.6l0.1-0.1
		c0.4-0.3,0.5-0.8,0.6-1.1c0,0,0.1-0.3,0.1-0.3c0,0,2.4-2.2,2.4-2.2l0.4-0.4c0.6-0.6,1-1.2,1.3-1.8l0.7-1.1c0,0,0.2-0.1,0.3-0.2
		l0.7-0.5c0.2-0.3,0.6-1,0.8-1.7c0.1,0,0.3,0,0.4-0.1c0.7-0.4,1.2-1.1,1.7-1.7c0.5-0.6,0.9-1.1,1.4-1.4l0.4-0.3c0,0-0.2-0.8-0.2-0.9
		c0.3-0.6,1.2-1.5,1.6-1.7l0.4-0.2v-0.5c0.9-0.6,2.5-1.7,2.5-1.7l0.1-0.2c0,0,0.1-0.6,0.1-0.7c0.3-0.2,0.8-0.7,1.1-0.9h0.7l0.2-0.1
		c0.5-0.2,0.9-0.6,1.3-1c0.3-0.3,0.6-0.5,0.8-0.7h0.7c0,0,0.4-0.5,0.5-0.7c0.5-0.2,1-0.4,1.6-0.6c0.8-0.2,1.6-0.5,2.3-1c0,0,0,0,0,0
		s0.1,0,0.2,0c-0.1,0.6-0.5,1.7-0.6,2.1c-0.1,0.2-0.3,0.4-0.5,0.6l-0.6,0.8l-1.1,2.2l-1.5,3l-2.9,5.3c-2.5,4.4-5,9-7.1,14.1
		l-0.6,1.5c-1,2.2-2.2,5-2.2,7.8c0,0.4,0,0.9,0.1,1.3l0.1,0.7l0.7,0c1.1-0.1,1.5-0.3,2-0.6c0,0,0.5-0.2,0.6-0.3h1.7l0.1,0l1.2-0.6
		l1-0.5l0-0.5l0-0.2c0-0.3-0.1-0.5-0.1-0.6c0.4-0.8,1.3-1.5,2.1-2.1c0.7-0.6,1.3-1,1.7-1.6l0.3-0.5c0.4-0.7,0.7-1.2,1.3-1.7
		c1.2-1,2-1.7,2.7-2.5c0.8-0.9,1.6-1.7,3.1-2.7c1.5-1,2-1.7,2.3-2.1l0.2-0.2c0,0-0.1,0-0.1,0.1c1.4-0.8,5.9-5,6.7-5.8
		c1.1-0.8,4.4-3,4.9-3.3l0.3-0.2c0,0,1.3-0.8,1.5-0.9c0.2,0,1,0,1,0l0.3-0.8l-0.1,0.3c0,0,0.2-0.2,0.9-0.7c0.3-0.1,1-0.5,2.3-1.3
		l0.8-0.5c0.1,0,4-2.5,9.2-3.3l0.1,0l0.1,0c0.3-0.1,4.2-1.1,9-1.6c1.1-0.1,6.8-0.2,7.7-0.1l0.1,0l0.1,0c0,0,1.9-0.3,3.8,0.3
		c0.2,0.1,0.4,0.2,0.6,0.3v0.5l0.7-0.1l0.9-0.1c0.4-0.1,0.5-0.1,0.8,0c0,0,0.3,0.2,0.3,0.2l1,0.7l0-0.1c0,0,1,0,1.1,0
		c0,0.1,0.2,0.3,0.2,0.3l0.2,0c0.5,0.2,1.3,0.4,2,0.5l1.3,0.3c0.6,0.2,1.3,0.2,1.9,0.2c0.7,0.7,2.3,1.5,2.9,1.5h0.6c0,0,0-0.1,0-0.1
		c0.1,0.1,0.2,0.2,0.3,0.2c0.5,0.4,1.1,0.8,1.7,1c0,0-0.1,0-0.1-0.1l0.2,0.1c0,0-0.1,0-0.1,0c0.3,0.2,0.6,0.2,1,0.2c0,0,0.4,0,0.7,0
		c0,0.1,0.2,0.4,0.2,0.4l0.5,0c0.2,0,0.5,0,0.7,0c0.2,0.2,0.3,0.5,0.5,0.9l0.4,1l0.5,0h0.4c-0.1,0.1-0.1,0.3-0.1,0.3l1.3-0.3
		c0.1,0,0.2,0,0.3,0c0,0,0,0,0.1,0.1v1.5l2.4,0.5l-0.2-1c0,0-0.1-0.4-0.1-0.7c0,0,0.2,0,0.4-0.1c0.1,0.1,0.2,0.3,0.5,0.4
		c0,0.7,0.2,0.9,0.4,1.3l0.4,0.5l0.4,0v0.5l0.8-0.1c0.4,0,0.7-0.1,0.9-0.2c0.1,0.1,0.2,0.2,0.2,0.2c0.2,0.2,0.3,0.3,0.5,0.5
		c0,0,0.1,0.2,0.2,0.4v0.9h1.9v-1.2c0.2,0,0.4-0.1,0.4-0.1l0.1-0.6h0.3l0.1-0.6c0-0.2,0.1-0.4,0.1-0.5c0.1,0,1.4,0.5,1.4,0.5
		l-0.2-1.2l-0.1-0.6l0-0.1l0-0.2c-0.1-1.3-1.5-2.8-3.2-4.6l-1-1.1c-2.9-3.6-7.9-6.4-15.8-8.7c-1-0.3-2-0.4-3-0.5l-2.3-0.4l-0.1,0
		h-1.5c-0.5-0.2-1-0.3-1.6-0.3c-0.3-0.1-0.9-0.1-2.1-0.1v0.1c-0.2,0-0.4,0-0.4,0c-5.2,0.2-6.9,0.3-7.6,0.5c-0.3-0.1-0.6-0.1-0.9,0
		c-0.8-0.2-1.1-0.2-1.7,0c0,0-0.3,0.1-0.4,0.1h-1.9l-0.1,0c-1.1,0.3-2.3,0.4-3.6,0.5c-1.3,0.1-2.5,0.2-3.5,0.5l-1.1,0.3
		c-1,0.2-2,0.5-2.8,1l-0.1,0.1c0,0-0.2,0.3-0.3,0.5c-0.1,0-0.2,0-0.2,0s-0.3,0-0.6,0c-0.1,0-0.2,0-0.3,0c0,0-0.1,0-0.1,0s0,0,0,0
		c0,0-0.1,0-0.1,0c0,0,0,0,0,0c-0.1,0-1,0.4-1,0.4l-3.5,1.4c-2.3,1-6,3.2-7.8,4.4c-5.1,3.4-9.1,6.4-14.2,10.7l-1.6,1.5
		c-0.7,0.7-1.4,1.3-2,1.8c-0.3,0.2-1.6,1.2-2,1.6l-0.9,1.1c-0.6,0.8-1.2,1.6-2,2.1c0.1-0.2,0.3-0.6,0.3-0.6s0-0.1,0-0.1
		c0-0.1,0-0.1,0.1-0.3c0,0,0.6-0.4,0.6-0.4s0-1,0-1.2c0.1-0.3,0.3-0.8,0.5-1.4l0.3-0.9l0-0.1c0-0.1,0.1-0.2,0.2-0.3
		c0.2-0.2,0.4-0.5,0.4-0.9c0,0,0,0,0,0.1l0.1-0.3c0,0.1,0,0.1,0,0.2c0.1-0.2,0.4-0.7,0.6-0.9c0.7-0.1,0.8-0.6,0.8-1.1
		c0-0.1,0-0.5,0-0.7c0-0.1,0.1-0.2,0.1-0.2c0.1-0.2,0.3-0.4,0.4-0.8c0.1-0.1,0.2-0.3,0.3-0.4c0,0,0,0,0,0h0.1l0.2-0.4
		c0.5-1.1,0.8-1.6,1.4-2.4l0.8-1.3c0,0,0.2-0.4,0.3-0.6c0.1-0.1,0.2-0.2,0.2-0.2c0.5-0.3,0.6-0.6,0.6-1c0-0.1,0-0.1,0-0.2
		c0,0,0-0.2,0-0.3c0.1-0.2,0.3-0.5,0.6-0.7c0.4-0.5,0.9-1,1.1-1.6c0.8-0.4,0.9-1.2,0.9-1.6c0-0.3,0-0.5,0.1-0.7
		c0.2-0.3,0.6-0.8,1-1.2c0.5-0.5,1-1,1.3-1.5l0.9-1.8l0.6-1.2l0.2-0.4c0.5-0.9,1.3-2.4,1.3-3.6c0-0.3-0.1-0.7-0.2-1
		c-0.2-0.5-0.7-1.1-1.7-1.3l-0.1,0l-0.1,0c-7-0.2-11.5,3.2-15.8,6.4l-1.7,1.3c-3.7,2.7-6.6,5.1-9,7.5c0,0-0.9,1-1.3,1.4
		c0-0.1,0.1-0.3,0.1-0.3l0.4-0.5c0.2-0.3,0.5-0.6,0.7-0.9l0-0.1c0,0,0.1-0.8,0.2-0.9c0.1-0.3,0.4-0.9,0.4-0.9
		c0.1-0.4,0.3-0.8,0.4-0.9l1.1-2c0.9-1.8,2.5-4.8,3.1-5.5c0-0.1,0.4-0.5,0.4-0.5c0.2-0.3,0.5-0.6,0.6-0.9c0.1-0.1,1-1,1-1
		s0.2-1.1,0.3-1.3c0.2-0.1,0.7-0.5,0.7-0.5v-0.8c0.2-0.1,0.5-0.2,0.7-0.4c0.1-0.1,1.4-1.8,1.7-2.5c0.1-0.3,0.1-0.5,0.1-0.7
		c0-0.1,0-0.2,0-0.3c0-0.1,0-0.1,0-0.1c0-0.1,0-0.1,0.1-0.2l0.5-0.4c0.3-0.2,0.8-0.5,1.2-1.1l-0.1,0.2l0.5-0.6l0.1-0.2l0.1-0.1
		l1.7-2.5l0.6-0.9c0.7-1,0.8-2,0.4-2.8c-0.4-0.6-1.1-1-2.1-0.9c-1.2,0.1-3.4,1-7.8,7.2l-1.9,2.5l-1.4,1.7l-1.5,1.8
		c-0.4,0.6-1.7,3.2-1.7,3.2l-0.3,0.4l-0.7,1c0,0,0,0.1,0,0.1c0,0.1-0.1,0.3-0.1,0.3s-0.1,0.2-0.1,0.4c-0.3,0.2-1.3,0.8-1.3,0.8
		s-0.1,1-0.2,1.2c-0.1,0.1-0.3,0.3-0.3,0.3c-0.3,0.3-0.6,0.6-0.7,1c0,0-0.3,1-0.3,1l-0.2,0.7c0,0-0.3,0.4-0.3,0.4l-0.5,0.7
		c-0.2-2.1-1.1-5-1.6-5.5l-0.1-0.1l0,0c0,0-0.1,0-0.2-0.1c-0.2-1.2-0.6-1.7-1.7-1.7c-0.2,0-0.4,0-0.6-0.1c0-0.1-0.1-0.1-0.1-0.1
		c-0.1-0.2-0.3-0.5-0.6-0.7l-0.2-0.1h-0.6c-0.1-0.1-0.3-0.2-0.3-0.2c-0.5-0.4-6.2-1.5-16.4,6.3c0,0-1,0.5-1,0.5l-0.9,0.4l-0.2,0.1
		l-0.3,0.1l-0.9,0.5l0.2-0.1l-1,0.7l-0.6,0.5l-0.1,0.1c-0.1,0.1-0.4,0.3-0.6,0.5c-0.3,0.2-0.7,0.4-0.9,0.7c-0.3,0.3-0.5,0.6-0.7,0.8
		l-0.3,0.4c-2.8,3-4,5-4.9,6.5l-1,1.6l-0.1,0.1c-0.4,1.3-1.1,2.1-1.9,2.9c-0.5,0.5-0.9,1.1-1.4,1.8c-2.5,3.6-7.5,7.4-10,9.2
		c0,0-0.4,0.3-0.8,0.6c-0.5-0.4-1-0.6-1.6-0.5c-1.1,0.1-1.8,1.1-2.1,1.5c0,0-0.2,0.3-0.2,0.3c-0.7,0.5-3.4,1.7-6,2
		c0,0-0.3,0.1-0.5,0.2c0,0-3.3,0.5-3.3,0.5c-1.3,0.2-2.7-0.7-3.6-1.4c0.4-0.3,0.8-0.6,0.9-0.6c0,0,0,0,0,0c0,0,0.3-0.2,0.3-0.2
		s0.2-0.1,0.3-0.2c0.7-0.3,5.7-3,6.7-4.7l0.2-0.8c0,0,0,0,0-0.1c1.8-0.3,2.5-2.4,2.7-3.5c0.2-0.2,0.4-0.4,0.6-0.6
		c0.8-0.6,1.9-1.5,3.1-4.3c0,0,0.1-0.2,0.1-0.2c0.6-0.4,1.3-1.2,1.5-2.5c0.9-0.8,1.2-1.2,1.4-2c0.2-0.5,0.4-1.2,1.2-2.6
		c0.1-0.1,0.3-0.4,0.3-0.4c1-1.3,2.1-2.7,2.1-4.1c0-0.3-0.1-0.6-0.2-0.9c0.1-0.1,0.2-0.2,0.3-0.5c0.1-0.1,0.3-0.1,0.4-0.2
		c0.4-0.3,0.5-0.7,0.5-1.1c0-0.1-0.1-0.2-0.1-0.3c0-0.3,0.1-0.3,0.5-0.5l0.1,0l0.1-0.1c1.9-1.5,2.5-5.1,2.6-5.9
		c0.3-0.4,1.2-1.9,2.1-3.8l0.3-0.5c0.5-0.6,0.9-1.1,1-2.9l0.3-1.3c0.3-1.5,0.6-2.9,0.6-3.7c0,0,0-0.1,0-0.1
		c-0.1-1.8-0.5-3.1-1.4-3.9c-0.9-0.9-2-1-2.8-1v0l-0.7,0c-2.2,0-3.4,0.9-4.4,1.8l-0.9,0.7l-1,0.9c-0.5,0.4-1,0.9-1.4,1.2
		c-2.4,1.5-4.1,3.4-6,6l-0.9,1.2l-1.9,2.3l-1.9,2.3l0.1-0.1l-0.8,0.9l-0.6,0.7l-0.1,0.1c-1.9,2.6-3.3,4.9-4.8,7.3l-1.4,2.3
		c-0.3,0.5-0.5,1-0.6,1.4c-0.1,0.4-0.2,0.8-0.4,1.1c-1.5,2.5-2.9,5.7-3.8,8.5c-0.4,1.3-1.1,4.8-1.2,6c-0.7,1.9-1,2.8-1,3.5
		c0,0.3,0.1,0.6,0.2,0.9c-0.3,1.3-0.6,2.4-0.6,3.2c0,0.6,0.1,1.1,0.4,1.5c-0.1,0.1-0.2,0.1-0.4,0.2l-0.6,0.2
		c-1.7,0.7-4.1,1.4-5.9,0.5c-0.2-0.2-1-1.1-1-1.1l-0.7-0.5c-0.5-0.3-0.9-0.6-1.2-1c0,0,0-0.3,0-0.3l-0.3-0.9c0,0-0.3-0.5-0.3-0.5
		c-0.1-0.1-0.3-0.3-0.3-0.4c0,0-0.1-0.5-0.1-0.5c0-0.2,0-0.5-0.1-0.8c0.2-0.7,0.8-1.4,1.4-2c0.4-0.5,0.9-0.9,1.2-1.4l0.4-0.8
		c0.1-0.3,0.2-0.5,0.3-0.6l0.3-0.2l0-0.4c0-0.3,0-0.5-0.1-0.7c1-1.1,1.9-3.6,2-3.7l0.1-0.2l0-0.2c0-0.3-0.2-0.8-0.4-1.2
		c0.1-0.1,0.3-0.1,0.3-0.1c1-0.7,1.3-1.4,1.4-1.9c0-0.1,0-0.2,0-0.2c0-0.2-0.1-0.5-0.1-0.7c0.1-0.2,0.2-0.4,0.3-0.6l0.2-0.4l1.3-2.1
		c0,0,0.2-0.4,0.4-0.7c0.7-0.5,1.5-2.1,1.6-2.6l0-0.1l0-0.1c0-0.6-0.1-1.1-0.2-1.4l-0.2-0.5l-0.6,0c-0.3,0-0.7,0.1-1,0.2
		c-0.3-3.7-3.3-4.9-6.1-4.8l-0.4,0c0,0-0.1,0.1-0.1,0.2c-0.3-0.1-0.7-0.2-1.1-0.1L79.8,51c0,0-0.4,0.2-0.5,0.2
		c-1.1,0.2-3.2,1.1-3.2,1.1C76.1,52.2,75.5,52.5,75.5,52.5"/>
	<path class="st0" d="M340.1,12.8c0.5,1.9-2.3,8.8-2.1,7.4c-0.5,1.1-0.3,1.4-1.6,2.6c-0.5,0.4-0.9,2.2-1.8,2.2
		c-0.4,0.5-1.6,1.5-1.9,1.9c-1.1,1.2-0.5-0.3-1.9,2.8c0,0,0,0.1-0.1,0.1c0,0,0-0.1,0.1-0.1c0-0.3-2.6,1.5-7.6,4.7
		c-0.6,0.4-2.5,1.1-3.5,1.6c-1.3,0.7-2.8,0.9-3.9,1.8c-1.2,0.6-3.5,1-6.8,1.6c-1.7,0-4.2,0.1-5,1c0,0-0.5,0.3-0.5,0.3
		c0.5-1.1,1.2-2.1,1.8-3c0.4-0.6,0.3-0.9,0.5-1.3c0.2-0.1,0.4-0.3,0.6-0.4c0.3-0.5,0.1-1,0.4-1.5c0.4-0.6,0.7-0.8,1-1.4
		c0-0.2,0.7-0.7,0.7-1c0.2-0.5,0.4-0.9,0.7-1.3c0.5-0.6,0.7-0.8,1.2-1.4c0.4-0.4,1-1.4,1.3-1.9c0.2-0.3,0.9-1.2,1.2-1.6
		c0.5-0.7,1.3-1.4,1.8-2.1c0.1-0.3,0.2-0.6,0.3-0.9c0.8-0.8,1.6-1.8,2.1-2.4c0.6-1.1,2-2,2.5-2.9c0,0,0,0,0-0.1c0,0,0,0.1,0,0.1
		c0.1,0,1.9-1.5,2.9-2.9c0.2,0,2-1.3,1.9-1.8c1.5-1.2,2.5-2.4,4.1-3.6c0.4-0.4,1.3-0.5,1.7-0.9c1.1-1.5,5.9-2.7,7.6-1.9
		C341.3,7.8,340.1,12.2,340.1,12.8 M286.1,111.9L286.1,111.9C286.1,111.9,286.1,111.8,286.1,111.9L286.1,111.9z M269.6,77.8
		c-0.7,0.7-1.4,2.1-2.2,2.5c-0.2,0-0.5,0.6-0.7,0.6c-0.6,0.3-0.8,0.6-1.3,1c-1.5,1.2-2.4,2.2-3.9,3.3c-0.9,0.7-2.3,1.7-3.2,2.3
		c-0.6,0.4-1,0.6-1.6,0.9c-0.6,0.3-1.4,0.9-2.1,1.2c-4,1.9-8,3.5-12.3,5c-1.4,0.5-7,1.5-8.2,1.3h-2.8c-2.1-0.1-3.6-2.2-3.4-2.1
		c-0.4-0.5-0.9-2.4-1-3c0-0.7,0.1-1.5,0.1-2.2c0-0.3,0-1.7,0.3-2.4c0.2-0.2,0.5-0.5,0.7-0.7c0.4-0.7,0.4-1.6,0.6-2.1
		c0.2-0.2,0.4-0.3,0.6-0.4c0.1-0.2,0.1-0.1,0.1-0.4c0.3,0,0.5-0.6,1.2-0.5c4-3.1,4-3.6,4.6-4c0.6,0,0.4,0.1,0.4-0.4
		c1.3-0.5,3.6-1,3.9-1.3c0,0,0.1-0.1,0.1-0.1c0,0,0,0,0,0c0,0,0,0,0,0c0.2,0.1,1.8,0.3,3.6-0.9c0-0.2,0.4-0.2,0.4-0.5
		c0.4-0.1,0.9-0.2,1.3-0.3c0.2,0,0.4,0.5,0.9,0.3c0.3-0.1,0.6-0.7,0.9-0.7c0.3,0,0.7,0.1,1,0.1c0.2-0.1,0.7-0.4,0.9-0.4
		c1.1-0.3,1.9,0.2,2.5-0.4c0.1,0,0.2,0.1,0.3,0.1c0.1,0.1,0.3,0.3,0.4,0.4h2.4c1.4,0.9,3.7-0.1,5.2,0.1c1,0.2,1.8,0.4,1.9-0.3
		c0.2,0,2.7,0.7,2.8,0.7c0.6,0.4,1.4,1.6,2.1,1.8c0.6,0.2,0.6-0.3,1-0.1c0.4,0,0.5,0.1,0.7,0.1c-0.3,0.2,0.9,0.7,1.6,1V77.8z
		 M338.2,0.2C338.2,0.2,338.2,0.2,338.2,0.2c-0.1,0-0.3,0-0.3,0c-0.3,0-0.5,0-0.7,0.1c-1-0.2-2.5,0.2-3,0.6c0,0,0,0,0,0
		c0,0-0.5,0.5-0.5,0.6c-0.1,0.1-0.3,0.1-0.6,0.1c-0.3,0-0.8,0-1.2,0.2c-0.5,0.2-1.6,0.7-2.2,1.1c0,0-1.8,1.4-1.9,1.4
		c-0.2,0.1-1.3,0.4-1.3,0.4l-0.1,0.1c-0.6,0.4-1.1,0.9-1.6,1.3c-0.6,0.6-1.3,1.2-2.1,1.6L322.2,8v0.5c-1.4,0.6-2.5,1.9-3.3,3
		l-0.1,0.2c-0.2,0.2-0.4,0.4-0.8,0.5l-0.9,0.5c-0.4,0.3-0.6,0.7-0.8,1.1c-0.1,0.2-0.2,0.3-0.2,0.4c-0.2,0-0.6,0.1-0.6,0.1
		s-0.9,1.2-1,1.3c-0.1,0.1-2,1.7-2,1.7s-0.4,1.1-0.4,1.3c-0.1,0-0.2,0.1-0.2,0.1c-0.3,0.1-0.7,0.2-1,0.5c0,0-2.2,2.9-2.5,3.4
		c-0.1,0.1-2.1,1.7-2.1,1.7s-0.1,0.5-0.2,0.8c-0.2,0.1-0.5,0.4-0.5,0.4c-0.4,0.4-0.9,0.7-1.1,1c0,0-0.3,0.8-0.3,0.8l-0.1,0.3
		c-0.1,0.1-0.3,0.3-0.5,0.4c-0.3,0.2-0.6,0.4-0.8,0.8c-0.5,0.7-0.7,1.4-0.9,2.2c-0.2,0.6-0.3,1.2-0.6,1.7c-0.1,0.2-0.4,0.4-0.6,0.6
		c-0.4,0.3-0.9,0.7-1.2,1.3c-0.3,0.5-0.3,1.1-0.4,1.5c-0.1,0.4-0.1,0.8-0.3,1.1c0,0-0.4,0.3-0.4,0.3l-0.6,0.6c0,0-0.5,1-0.5,1
		s-0.2,0.4-0.2,0.5c-0.2,0.2-1,0.8-1,0.8l-0.7,1c-0.8,1-1.7,2.3-2.2,3.5c-4.1,0.9-9.7-0.2-13.9-1l-0.1,0c0,0-1,0.1-1.1,0.1
		c-0.1,0-0.2-0.1-0.2-0.1c-0.5-0.2-1.2-0.4-2-0.2c-0.5,0.2-0.5,0.1-0.8,0c0,0,0.1,0,0.1,0.1l-0.1-0.1c0,0,0,0,0,0
		c-0.3-0.1-0.6-0.2-0.9-0.3c0-0.1,0-0.1,0-0.1c0-0.3-0.1-0.6-0.4-0.8c-0.5-0.4-1.2-0.1-1.9,0.4c-0.1,0-0.1,0-0.2,0c0,0,0-0.1,0-0.1
		l-0.1-0.6h-1.9l-0.1,1.1c-0.3,0.3-2,0.8-2.4,0.6l0.1,0.1l-0.1-0.1h0l-0.1-0.1l-0.4-0.1c-0.6,0.1-0.7,0.1-1,0.3l-0.5,0.3l0,0.5
		c0,0.4,0.1,0.6,0.2,0.8c-0.1,0.1-0.1,0.2-0.1,0.3c-0.2,0-0.7,0.1-0.7,0.1l-0.1,0.1l-0.7,0.5c-0.2,0.2-0.3,0.3-1,0.3l-0.3,0
		l-0.6,0.6l0,0.4c0.2,1.7,2.3,2.1,3.6,2.4l0.6,0.1c0.5,0.1,0.9,0,1.2,0c0.2,0,0.3-0.1,0.4,0c0.1,0.1,0.4,0.4,0.4,0.4l0.2,0.1
		c0.6,0.2,1.3,0.3,2,0.3l1.2,0.1h2.3c1.1,0.3,2.4,0.4,4.2,0.4l1-0.1l0.6-0.1c1.6,0.2,4.3,0.3,5.8,0c0.5-0.1,1.2-0.1,2-0.1
		c1,0,1.9-0.1,2.6-0.2c-0.3,0.5-0.6,1.1-0.6,1.1c-0.9,1.6-2.2,3.3-3.4,5c0,0-1.7,2.4-1.7,2.4c-0.2,0.2-0.6,0.6-0.6,0.6l-0.5,0.6
		l-0.1,0.1l-0.9,1.4c0,0-0.4,0.7-0.4,0.7c-0.2,0.2-0.5,0.5-0.8,1c-0.2,0.3-0.5,0.8-0.7,0.9l-0.1,0.1l-0.1,0.1
		c-0.8,1.2-1.6,2-2.4,2.8c-0.7,0.7-1.4,1.5-2.2,2.5l0.1-0.1l-0.8,1c0,0-0.1,0.2-0.3,0.3c-0.8-0.6-1.8-1.3-2.7-1.4c0,0,0,0,0.1,0
		l-0.2,0c0.1,0,0.1,0,0.2,0c-0.7-0.2-3.4-1.1-4.7-1.3c-0.6-0.3-3-1.1-5-0.9c0,0,0,0,0,0l-0.3-0.3c-0.1-0.1-0.4-0.1-0.7,0
		c0,0-0.3,0-0.3,0c-2.6-0.5-3.9,0-4.6,0.3c0,0-0.2,0.1-0.3,0.1c0-0.1-0.3-0.4-0.3-0.4l-0.4-0.1c-2.8,0-5.1,0.4-7.5,1.2h-2.3v0
		l-0.5,0.4c0,0-0.1,0.1-0.1,0.1c-0.8,0.2-2.5,0.8-3.9,1.2c-0.2,0-0.4-0.1-0.4-0.1c-0.1,0-0.5-0.1-0.8,0.2c0,0-0.2,0.1-0.2,0.2
		c-0.1,0-0.2,0.1-0.2,0.1c0,0,0.1,0,0.1,0l-0.2,0c0,0,0,0,0,0c-0.3,0.1-0.6,0.2-0.9,0.4c-0.2,0.1-0.4,0.2-0.5,0.2l-0.1,0l-2.8,1.4
		c-4.3,2.1-7.4,3.6-10.3,8.2c0,0-1.5,2.8-1.5,4c0,0,0,0,0,0.1c0,0-0.2,1-0.2,1l-0.1,0.2c0,0-0.1,0.3-0.1,0.3
		c-0.3,0.7-0.4,1.5-0.4,2.2c0,1.2,0.2,2.2,0.4,2.8c0.2,0.5,0.3,1.4,0.3,1.9c0,0.3,0,0.4,0,0.5c0,0,0,0,0,0l-0.1,0.5
		c0.1,0.3,0.1,0.5,0.2,0.7c0,0,0,0,0,0c0,0.1,0,0.3,0.1,0.4c0.1,0.4,0.9,1.8,1.9,2.1c0.4,0.5,1,0.5,1.3,0.6c0,0,0.3,0,0.3,0
		c0,0,0.4,0.1,0.4,0.1c0,0,1.9,0.6,1.9,0.6s0-0.1,0-0.1c0.4,0.2,0.9,0.5,1,0.6l0,0l0,0l-0.1-0.4l0.1,0.4c0,0,0.1,0.1,0.1,0.1
		c0,0.1,0,0.3,0,0.3c0.1,0,0.3,0,0.4,0c0.1,0,0.8,0.2,0.8,0.2c0.6,0.2,1.2,0.3,1.7,0.2c0.6,0.1,2.9,0.6,4,0.1c1,0.3,1.3,0.3,1.6,0.1
		c2,0,3.1-0.7,3.8-1.3c0.2-0.1,0.5-0.3,0.6-0.4l0.2,0.2l0.4,0.1c0.5-0.1,1.2-0.2,1.8-0.6l0.2-0.1c0,0,0-0.1,0.1-0.2
		c0.6,0,1.6-0.1,1.6-0.1c1.5-0.1,1.8-0.1,2.1-0.8c0,0,0,0,0,0c0.2-0.1,0.3-0.1,0.3-0.1c0.3-0.1,0.5-0.2,0.7-0.3
		c0.5,0.1,1.2-0.1,1.4-0.2l0.1-0.1c0,0,1.3-1.3,1.5-1.5c0.3,0,0.6-0.1,0.6-0.1c0.2,0,0.6-0.1,0.8-0.5c0,0,0-0.1,0.1-0.3
		c0.1-0.1,0.2-0.1,0.4-0.1c0.3,0,0.7,0,1.1-0.2c0.4-0.2,0.7-0.5,1-0.8c0,0,0.3-0.2,0.4-0.4c0.1,0,0.2,0,0.2,0
		c0.4,0.1,0.6-0.1,0.9-0.3c0.4-0.3,1.4-1.1,4.5-3.2c0,0,2.6-2,2.6-2l1.1-0.8c0,0-0.2,0-0.3,0.1c1.3-0.5,4.4-3.4,4.6-3.7
		c0,0,0,0-0.1,0l0.1-0.1c0,0,0,0,0,0c0.4-0.3,0.8-0.7,1.1-1.2c0.2,0.2,0.4,0.3,0.7,0.4c-0.1,0.1-0.1,0.2-0.1,0.3
		c0,0.4,0.4,0.7,0.7,0.8c0.7,0.4,1.1,0.7,1.4,0.8c0,0.1-0.1,0.1-0.1,0.2c0,0,0,0.1,0,0.1c0,0.4,0.3,0.7,0.8,0.9
		c0.1,0.3,0.2,0.6,0.5,0.7c0.1,0.1,0.2,0.1,0.4,0.1c0,0,0,0,0,0c0,0.1-0.1,0.2-0.1,0.4c0,0,0,0.1,0,0.1c0,0.8,0.5,1.6,1.6,2
		c0.1,0.4,0.3,1.4,0.3,1.4s0.1,0,0.3,0.1c0,0.1,0,0.9,0,0.9c0.2,1.9,0.9,2.9,1.6,3.4c0.1,1,0.5,2,1.4,2.9c0,0,0.4,0.5,1,2.3
		c0.4,1,0.5,1.4,0.5,1.6c0-0.1,0.1-0.2,0.2-0.2l-0.2,0.3v0c0,0,0,0,0-0.1c-0.1,0.2-0.1,0.5,0.1,0.8l0-0.2l0.2,0.3
		c0-0.1-0.1-0.1-0.1-0.2l0.1,0.3l0.1,1.1l0.3,0.2c0,0,0.1,0.1,0.2,0.1c0,0.1,0,0.2,0,0.4c0,0.7,0.2,1.8,0.6,3.7l0.2,0.7
		c0,0,0.1,0,0.2,0c0,0.1-0.1,0.3-0.1,0.4c0,0.3,0.1,0.5,0.2,0.7c0,0,0.1,0.1,0.1,0.1c0,0.4-0.1,1.2-0.1,1.2l0,0c0,0,0.3,0.5,0.3,0.5
		c0,0.1,0,0.2,0,0.2c0.4,1.2,0.6,2,0.6,2.7c0,1-0.4,1.6-0.8,2.1l-0.7,1l0.1,0.3c0.4,1.3,1.5,2.2,2.5,2.5c0.6,0.2,1.1,0.2,1.5,0
		c-0.1,0-0.1,0-0.2,0l0.4-0.1c-0.1,0-0.1,0.1-0.2,0.1c1.8-0.3,3.6-3.4,3.9-4.4l0.4-1.5l0.3-1.3l0.4-0.6l0.3-0.5
		c0.2-0.5,0.3-0.9,0.3-1.2c0-0.1,0-0.1,0-0.1c0,0,0,0,0,0c0.1-0.1,0.7-0.5,0.7-1.5c0-0.3-0.1-0.7-0.2-1.1c0.2-0.3,0.3-0.8,0.3-1.6
		c0-0.6,0-1.4-0.1-2.4c0,0-0.1-1.4-0.1-1.5c0-0.3,0.1-0.5,0.1-0.7c0-0.8-0.2-1.2-0.5-1.7c0,0-0.3-0.6-0.4-0.7v-1.3l0-0.1
		c-0.2-0.6-0.4-1.6-0.4-2.3l0-0.3c0,0-0.3-0.3-0.4-0.4c0,0,0,0,0,0c0-0.3-0.1-0.6-0.2-0.9c-0.4-2.5-0.7-3-1-3.5l-0.2-0.3l-0.2-0.1
		c-0.7-0.3-0.8-0.5-0.8-0.5v0c0,0,0-0.1,0-0.1c0-0.3,0-0.7-0.5-1.3l-0.1-0.1c0,0-0.4-0.3-0.5-0.4c-0.2-0.3-0.3-0.6-0.4-1
		c-0.2-0.5-0.3-1.1-0.6-1.6l-0.6-0.8c-0.5-0.5-0.8-1-0.9-1.8c0-0.1,0.1-0.2,0.1-0.3c0-0.2-0.1-0.4-0.2-0.6c0,0,0-0.1,0-0.1
		c-0.2-1-1.1-2-1.6-2.4l-0.1-0.1c0,0-0.6-0.1-0.6-0.1c-0.2-0.2-0.3-0.4-0.5-0.7c-0.3-0.6-0.8-1.4-1.9-1.6c0-0.2-0.1-0.7-0.1-0.7
		s-1.5-1.1-2.1-1.6c0.3-0.6,0.9-1.1,1.5-1.5c0.5-0.4,1-0.8,1.3-1.3c0.7-1,1.6-1.9,2.4-2.9c1-1.1,1.9-2.2,2.8-3.4
		c0.3-0.4,0.4-0.8,0.6-1.2c0,0,0.3-0.8,0.3-0.8c0,0,0.2-0.1,0.2-0.1l0.6-0.4c0.5-0.5,0.8-1.2,1.1-1.9c0,0,0.4-0.8,0.5-1
		c0.1-0.1,1-0.9,1-0.9l0.1-0.1c0.8-1.3,1.6-2.4,2.5-3.6l1.5-2c0.4-0.5,0.7-1.3,1.1-2.1c0.6-1.1,1.3-2.5,1.8-2.9
		c0.3-0.2,1.1-0.4,1.8-0.5l1.5-0.4l2.2-0.9c2.5-1,5.1-1.9,7.5-3.2c5.9-3,9.6-5,14.9-8l0,0l0.1-0.1l1.2-0.7c0.8-0.5,1.2-0.7,1.4-0.9
		l0,0l0.1-0.1c0,0,0,0-0.1,0.1l4-2.9c0.5-0.3,0.9-0.9,1.3-1.4c0.3-0.5,0.7-1,1-1.1c3.7-2.3,6.8-6.3,9.3-12.1c0.9-2,1.3-3.7,1.3-5.3
		c0-1-0.2-1.9-0.6-2.8c0,0,0,0,0-0.1c0-0.1,0-0.3-0.1-0.4c0,0,0,0,0,0l-0.1-0.6c-0.5-2.6-1-3.3-1.6-4L344,2.8L344,2.7
		c-0.3-0.4-3-2.7-5-2.7h0C338.8,0,338.5,0.1,338.2,0.2L338.2,0.2z"/>
	<path class="st0" d="M330.2,34.6L330.2,34.6C330.3,34.5,330.3,34.5,330.2,34.6L330.2,34.6z"/>
	<path class="st0" d="M307.2,89.4c-0.1,0-0.3-0.1-0.4-0.3C306.9,89.1,307.1,89.3,307.2,89.4 M310,75.6c-0.1-0.2,0.6-1.4,0.5-1.6
		c-0.9,0.9,0.9-2.4,0.9-2.2c0.1-0.7,1.8-2.5,1.8-3.9c1.3-1.9,2.9-3.9,4.2-5.8c0.7-1.1,1.5-1.8,2.2-2.9c0.7-1.1,3.7-3.1,4.9-4
		c0.7-0.5,1.1-1.3,1.9-1.6c0-0.1,0.1-0.1,0.1-0.2v0.2c0.8,0.4,0.8,1.2,1.5,1.6c0,0.5,0.1,1.1,0.1,1.6c-0.1,0.4-0.5,0.7-0.6,1.3
		c-0.3,0-0.4,0-0.6,0.1c-1,0.4-0.8,2.1-1.3,3.1c-0.2,0.1-0.4,0.5-0.6,0.7c-0.3,0.6-0.1,1.4-0.4,2c-0.2,0.3-0.7,1.1-0.8,1.3
		c0,0.3-0.3,0.9-0.2,1.2c-0.2,0.1-0.5,0.9-0.7,1c-0.3,0.4-0.5,1.1-0.7,1.5c-0.9,1.6-1.3,3.2-2.4,4.6c-0.4,0.6-1,1.3-1.5,1.9
		c-2.7,3.3-4.2,3.5-8.2,7.4c0,0-1.5,1.5-1.5,1.5C308.6,80.7,309.2,78.4,310,75.6 M332.1,83.4L332.1,83.4c0,0-0.1,0.1-0.1,0.1
		c0,0,0,0,0,0C332,83.5,332.1,83.5,332.1,83.4 M394.2,65.5C394.2,65.6,394.2,65.6,394.2,65.5c0-0.1,0-0.2,0-0.2
		C394.2,65.4,394.2,65.5,394.2,65.5 M301,90.4c0.1,0.1,0.3,0.1,0.4,0.1c1.8,0.9,4-0.1,5.2-0.7c0.3-0.1,0.6-0.3,0.7-0.3
		c0.1,0.1,0.1,0.1,0.1,0.1c0.7,0.2,1.6-0.3,3.1-1.2l0.3-0.2l0.1-0.1c2.9-2.7,4.6-4.3,5.6-5.3c0.4-0.4,0.7-0.7,1-0.9
		c0.1,0.1,0.2,0.2,0.2,0.5c0,0.2,0,0.5-0.1,0.9c0,0.4-0.1,0.8-0.1,1.2c0,0.9,0.2,1.8,1.2,2.5c2.1,2.1,5.4,0.6,6.2,0
		c0,0,0-0.1,0.1-0.1c0.7-0.2,1.3-0.3,1.7-0.4c0.5-0.1,0.8-0.1,1.2-0.3c0,0,1.7-0.1,1.7-0.1s-0.3-0.4-0.6-0.7
		c0.1-0.1,0.3-0.3,0.6-0.5c0.2-0.2,0.4-0.2,0.7-0.3c0.5-0.1,1.1-0.3,1.5-1c0.2,0,0.5,0,0.8-0.3c0.4,0,0.8-0.2,1-0.5
		c0.1-0.1,0.2-0.4,0.2-0.7c0-0.1,0-0.2,0-0.3c0.2-0.2,0.4-0.4,0.4-0.4s0.2-0.2,0.4-0.5c1.1-0.1,1.5-0.5,1.9-1.2c0,0,0.4-0.6,0.5-0.8
		c0.2-0.1,0.5-0.3,0.5-0.3c0.6-0.3,1.3-0.7,2-1.6c0,0,0.1,0,0.1,0c-0.1,0.7-0.2,2-0.2,2l0.6,0.2c0,0,0.1,0,0.1,0c0,0.1,0,0.1,0,0.2
		c0,0.2,0,0.4-0.1,0.7c0,0.3-0.1,0.6-0.1,1c0,0.5,0.1,1,0.5,1.5l-0.1-0.1c0,0,0.1,0.1,0.1,0.2l0,0c0,0,0.3,1,0.4,1.1
		c0,0.2,0.1,0.5,0.3,0.8c0.1,0.1,0.2,0.2,0.4,0.4c0,0,0,0,0,0.1c0.4,0.5,1.7,1,3.6,0.4l0,0l0,0c3.5-1.5,4.7-2.6,5.3-3.4
		c0.1-0.1,8.5-8.3,8.5-8.3c0.3-0.3,0.6-0.6,0.9-0.9c-0.1,0.6-0.3,1.1-0.4,1.7L359,77l-0.2,1.2c-0.1,0.7-0.2,1.6-0.4,1.9l-0.1,0.2
		l0,0.2c0,2.8,1.2,4.9,3.1,5.6c1.4,0.5,4.2,1,5.9,0.2c1.1-0.5,1.6-0.7,1.7-1c1.3-0.7,1.5-1,1.8-1.4c0.1-0.2,0.2-0.3,0.7-0.7l0.2-0.2
		c0,0,0.1-0.4,0.1-0.5c0.1-0.1,0.2-0.1,0.4-0.2l0.9-0.4c0.5-0.4,0.9-0.9,1.2-1.4c0.3-0.4,0.6-0.8,0.8-1c0.5-0.2,1.1-0.6,1.3-1.2
		c0.1,0,0.4-0.1,0.4-0.1l0.1-0.1c0.4-0.3,0.6-0.7,0.7-1c0,0,0.1-0.3,0.2-0.3c1.8-1.5,3.4-3.6,3.6-3.9l1-1.1c0.9-1,2.1-2.2,2.8-3.2
		c-0.3,0.5-0.3,1.1-0.3,1.5c0,0.4-0.1,0.8-0.2,1c-0.3,0.5-0.5,0.9-0.5,1.2c-0.9,1.6-2.1,4.1-2.1,5.7c0,0.1,0,0.1,0,0.1
		c-0.2,0.1-0.4,0.3-0.6,0.7c-0.4,0.5-0.5,1.3-0.5,2c0,0.4,0.1,0.8,0.2,1.2c0.2,0.5,0.4,0.9,0.7,1.1c0,0.1,0,0.2,0.1,0.3
		c0.2,0.4,1.5,2.6,5.7,2.5c0.3,0,2.1,0,3.1-0.5c0,0,0.2-0.3,0.4-0.5h1.3c0,0,0.1-0.4,0.2-0.5c1.2-0.1,1.8-0.1,2.2-0.4l0.2-0.1
		c0,0,0.3-0.5,0.4-0.7c0.2-0.1,0.5-0.2,0.7-0.2c0.4-0.1,0.9-0.2,1.4-0.5l0.9-0.6c0.4-0.3,0.7-0.6,1.1-0.7l1.2,0.1l0-0.8
		c0,0,0-0.1,0-0.2c0.2-0.1,0.4-0.1,0.7-0.1c0.4,0,0.8-0.1,1.3-0.3l0.2-0.1c0,0,0.5-0.6,0.6-0.8c1.6-0.8,3.6-2.1,4.2-3.9l0.4-1.1
		l-1.2,0.2c-1,0.1-1.5,0.6-1.9,1l-0.6,0.4c-0.4,0.2-3,1.2-4.7,1.9c0,0,0,0,0,0c-0.3,0.1-0.6,0.1-1.1,0.3c-1.5,0.4-5.8,1.7-6.5,1.7
		c-0.6-0.2-0.9-0.3-0.9-1.1c0-0.3,0-0.6,0.1-1.1c0.1-0.5,0.3-1,0.6-1.6l0.7-1.6c0.2-0.7,0.3-1.3,0.3-1.9c0-0.5,0-0.9,0.2-1.4l0.4-1
		c0.3-0.7,0.6-1.6,0.6-2.4c0-0.3-0.1-0.5-0.1-0.8c0,0,0.1-0.1,0.1-0.1l0.4-0.5c0,0,0-0.1,0-0.2c0-0.1,0.2-0.2,0.2-0.2
		c0.4-0.4,1-1,1-1.9c0-0.2,0-0.4-0.1-0.6c0-0.3,0.5-1.2,0.6-1.4c0.9-1.4,1.2-1.6,1.2-1.7c0.1,0,0.3-0.1,0.3-0.1l0.1-0.2l0.2-0.7
		c0,0,0-0.8,0-0.9c0.1-0.3,0.2-0.6,0.2-0.8c0-0.3-0.1-0.6-0.2-0.7c0.1-0.2,0.1-0.5,0.1-0.6c0-0.3-0.1-0.6-0.4-0.9
		c0-0.1,0.2-0.5,0.3-0.7c0.4-0.7,0.8-1.6,0.8-2.5c0-0.1,0-0.2,0-0.2c0,0-0.2-1.6-0.2-1.6s-0.5-0.4-0.5-0.4c0-0.1-0.1-0.2-0.1-0.2
		c-0.1-0.3-0.2-0.7-0.6-0.9c0.1-0.4,0.1-0.9,0.1-1.3c0-0.5,0-1,0-1.4c0-0.4,0-0.8,0-1.1c0-0.3,0-0.5,0.1-0.7l0-1c0-0.1,0-0.2,0-0.4
		c0-0.1,0-0.2,0-0.3l0.1-0.1l0-0.2c0-0.6-0.1-1.1-0.2-1.4l-0.2-0.6l-0.6,0.1c-0.7,0.1-1.1,0.3-1.3,0.5c-0.2,0.1-0.3,0.2-0.5,0.2
		l-0.6,0.1v0.6c-0.6,0.5-1.2,1.4-1.2,2c0,0,0,0.1,0.1,0.3c0,0.2-0.3,0.8-1.1,2.5c-1.1,1.3-2,3-2.6,4.3c-1.1,2.3-2.3,4.3-3.2,5.9
		c-1.2,2.1-1.7,2.9-1.7,3.5c0,0.1,0,0.2,0,0.2c0,0.1-0.1,0.3-0.1,0.3c0,0-0.1,0.1-0.1,0.1l-0.4,0.3l-0.1,0.2
		c-0.1,0.2-0.3,0.4-0.5,0.6l-0.5,0.6l0,0.2c0,0.3-0.4,0.7-0.7,0.9l-0.7,0.9l0.1,0c0,0-0.1,0.9-0.1,1c-0.6,1-2,3.2-2.7,3.9l0,0
		c-0.2,0.2-0.5,0.5-0.9,0.9l-1.9,2l-3.7,4c-0.5,0.6-1.2,1.1-1.9,1.6c-0.7,0.5-1.4,1.1-2,1.8c0-0.4-0.1-0.7-0.1-1.2l0-0.3
		c0,0,0-0.4,0-0.4c0-0.2,0-0.3,0-0.5c0-0.2,0-0.4-0.1-0.6c0,0-0.1-0.3-0.1-0.4c0-0.3,0.2-0.8,0.3-1.2l0-0.1l0-0.1c0,0,0,0,0-0.1
		c0-0.3,0-1-0.5-1.5c0,0-0.1,0-0.1-0.1c0.1-0.4,0.3-0.9,0.3-0.9l0.2-0.7l0-0.1c0-0.1,0-0.1,0-0.2c0-0.3,0-0.5,0.1-0.8
		c0-0.3,0.1-0.7,0.1-1c0-0.2,0-0.3,0-0.5c0,0,0,0,0,0c0.1-0.3,0.3-0.7,0.5-1c0.3-0.4,0.5-0.7,0.6-1c0.1-0.1,0.5-0.7,0.5-0.7l0-0.1
		l0.1-0.2l0.4-1.3l-0.1-0.1c0,0-0.1-0.4-0.1-0.6c0.1-0.1,0.2-0.3,0.2-0.3c0.3-0.3,0.6-0.7,0.7-1.5c1-0.4,1.5-1.1,1.7-2.3
		c1-0.8,2.2-3.1,2.4-4.4c1.1-0.8,1.6-1.3,1.6-1.4c0.2-0.3,0.9-1.3,0.9-2.3c0-0.2,0-0.4-0.1-0.5c0-0.1-0.1-0.1-0.1-0.2
		c0.1-0.1,0.3-0.1,0.4-0.2c0.6-0.3,1.1-0.5,1.3-1c0-0.1,0.1-0.2,0.1-0.4c0-0.3-0.2-0.7-0.5-0.9c-0.6-0.5-1.9-0.7-3.2,0.1l-0.2,0.1
		l0,0.1c0,0-0.1,0.1-0.1,0.2c-0.8,0.2-2.3,0.6-2.7,1l-0.1,0.1l0,0.1c-0.2,0.4-0.4,0.6-0.8,0.8c-0.4,0.3-0.8,0.6-1.2,1.1
		c-0.8,1.1-1.3,2-1.7,2.9l-1.1,2c-0.6,0.9-1,1.9-1.5,2.9c-0.5,0.9-0.9,1.9-1.5,2.8l-0.3,0.5l-1.7,2.7l0.1-0.1l-0.8,1l-0.7,0.8
		l-0.1,0.1l-0.5,0.9c-0.1,0.2-0.2,0.4-1.5,1.5l-2.1,2c-0.6,0.6-1,1-1.8,1.6c-0.9,0.7-1.8,1.5-2.6,2.3c-1.1,1-2.2,2-3.7,3.1
		c-0.1-2.7-0.6-3.4-1.2-3.9c0-0.1,0-0.2,0-0.3c0-0.5-0.1-1.2-0.6-1.7c0-0.1,0-0.3,0-0.3c0.1-1,0.4-2.6,0.4-3.7c0,0,0,0,0,0
		c0.2-0.2,0.3-0.5,0.3-0.7c0,0,0-0.1,0-0.1c0.6-0.2,0.6-0.7,0.7-1.3c0,0,0.1-0.8,0.1-0.9c0.7-1.7,1-2.4,1.1-2.6
		c0.1-0.1,0.1-0.2,0.1-0.3c0.1-0.2,0.2-0.3,0.2-0.3c0.2-0.3,0.5-0.6,0.7-1.2c0.6-0.4,1-1.3,1.2-2c0.1-0.3,0.3-0.8,0.4-1l-0.2,0.1
		l0.2-0.1c0,0,0,0,0,0l0,0l0.4-0.2c0.4-0.6,0.9-1.8,1-2.6c0,0,0.1-0.1,0.1-0.1c0.5-0.4,0.6-0.7,0.6-1.5c0,0,0.1-0.9,0.1-1
		c0.1-0.4,0.7-2.4,0.7-3.6l0-0.8l-0.9,0.1c0,0-0.7,0.2-0.8,0.2c-0.4,0.2-0.6,0.4-0.7,0.8c-0.1,0-0.2,0.1-0.2,0.1l-0.2,0.6l0-0.2
		l-0.3,0.5c-0.2,0.3-0.3,0.5-0.4,0.6c-1.4,1-1.8,1.7-2.3,2.8l-0.6,1.3c-0.5,1.2-1,2.4-1.6,3.4l-1.4,1.9l-1.3,1.8
		c-6.1,9.2-12.2,15.7-18.8,19.8c0-0.2,0-0.3,0-0.5c0-1.2,0.2-2.4,0.4-3.1l0.3-1.5l0.2-1.2l0.6-2l0-0.2l0,0l0.1-0.3
		c0.1-0.2,0.2-0.4,0.3-0.7c0,0,0.2-0.6,0.2-0.6l0.3-0.8c0.9-1.6,1.5-2.7,2.4-4l0.1-0.2c0,0,0-0.2,0-0.2c0-0.1,0.3-0.4,0.4-0.6
		c0.4-0.5,1-1.2,1.2-2.2c0.3-0.3,0.4-0.7,0.4-1.2c0-0.2,0-0.4-0.1-0.6c0.2-0.6,0.4-0.9,0.6-1.3c0.3-0.4,0.5-0.9,0.8-1.7
		c0-0.1,0.1-0.2,0.1-0.2c0,0,0.3-0.3,0.3-0.3l1-1.2c0,0-0.3,0-0.5,0c0-0.1,0.1-0.3,0.1-0.4c0,0,0-0.1,0-0.1c0.1-0.2,0.3-0.4,0.3-0.7
		c0.1-0.3,0.1-0.8,0.1-1.2c0-0.8-0.1-1.5-0.2-2.1c0.4-0.2,0.8-0.6,1-1c0.2-0.4,0.3-0.8,0.3-1.3c0-0.6-0.1-1.2-0.4-1.8l0-0.1
		l-0.1-0.1c-1.5-1.9-2.4-2.1-3.8-2.4l-1.5-0.4l-0.1,0c-3.7,0-5.9,1.6-8.2,3.4c-0.8,0.6-1.6,1.2-2.5,1.8c-0.4,0.3-0.6,0.5-0.7,0.7
		l-0.2,0.2c-6.5,4.4-11.6,10.7-16.1,19.8l-0.8,1.4c-0.6,0.9-1.1,1.8-1.4,2.8l0,0.1v1.1c0,0.1-0.1,0.2-0.1,0.2l-0.4,0.7l0.1,0.1v0.7
		H300c0,0-0.2,2.2-0.2,2.4c-0.5,0.7-0.7,2-0.7,2.9c0,0.4,0,0.7,0.1,0.9c0,0,0,0.1,0.1,0.1c-0.1,0.3-0.2,0.7-0.2,1
		C299.1,88.8,300.4,90.1,301,90.4"/>
</g>
</svg>
